<svg xmlns="http://www.w3.org/2000/svg" width="22" height="16" viewBox="0 0 22 16">
  <g id="capture" transform="translate(-1764 -261)">
    <g id="합치기_3" data-name="합치기 3" transform="translate(6412 261)" fill="none">
      <path d="M-4648,16V2h6V0h10V2h6V16Z" stroke="none"/>
      <path d="M -4627 14.99963760375977 L -4627 3.000537872314453 L -4632.99951171875 3.000537872314453 L -4632.99951171875 0.9999978542327881 L -4641 0.9999978542327881 L -4641 3.000537872314453 L -4647.00048828125 3.000537872314453 L -4647.00048828125 14.99963760375977 L -4627 14.99963760375977 M -4626 15.99963760375977 L -4648.00048828125 15.99963760375977 L -4648.00048828125 2.000537872314453 L -4642 2.000537872314453 L -4642 -2.151794433302712e-06 L -4631.99951171875 -2.151794433302712e-06 L -4631.99951171875 2.000537872314453 L -4626 2.000537872314453 L -4626 15.99963760375977 Z" stroke="none" fill="#002d65"/>
    </g>
    <g id="타원_381" data-name="타원 381" transform="translate(1771 266)" fill="none" stroke="#002d65" stroke-width="1">
      <circle cx="4" cy="4" r="4" stroke="none"/>
      <circle cx="4" cy="4" r="3.5" fill="none"/>
    </g>
  </g>
</svg>
