<svg xmlns="http://www.w3.org/2000/svg" width="24.042" height="25.041" viewBox="0 0 24.042 25.041">
  <g id="right_03" transform="translate(-894.979 -779.979)">
    <g id="빼기_46" data-name="빼기 46" transform="translate(3546.979 5730.979)" fill="none">
      <path d="M-2639.979-4929.958h0l-12.021-5.02,6.081-2.54,5.94,2.48,5.94-2.48,6.081,2.54-12.02,5.02Z" stroke="none"/>
      <path d="M -2639.979248046875 -4931.0419921875 L -2630.55322265625 -4934.978515625 L -2634.03955078125 -4936.43505859375 L -2639.979248046875 -4933.95458984375 L -2640.364501953125 -4934.115234375 L -2645.919189453125 -4936.43505859375 L -2649.405517578125 -4934.978515625 L -2639.979248046875 -4931.0419921875 M -2639.978759765625 -4929.95849609375 L -2639.979736328125 -4929.95849609375 L -2652.000244140625 -4934.978515625 L -2645.919189453125 -4937.5185546875 L -2639.979248046875 -4935.0380859375 L -2634.03955078125 -4937.5185546875 L -2627.95849609375 -4934.978515625 L -2639.978759765625 -4929.95849609375 Z" stroke="none" fill="#000"/>
    </g>
    <g id="빼기_47" data-name="빼기 47" transform="translate(3546.979 5734.979)" fill="none">
      <path d="M-2639.979-4929.958h0l-12.021-5.02,6.081-2.54,5.94,2.48,5.94-2.48,6.081,2.54-12.02,5.02Z" stroke="none"/>
      <path d="M -2639.979248046875 -4931.0419921875 L -2630.55322265625 -4934.978515625 L -2634.03955078125 -4936.43505859375 L -2639.979248046875 -4933.95458984375 L -2640.364501953125 -4934.115234375 L -2645.919189453125 -4936.43505859375 L -2649.405517578125 -4934.978515625 L -2639.979248046875 -4931.0419921875 M -2639.978759765625 -4929.95849609375 L -2639.979736328125 -4929.95849609375 L -2652.000244140625 -4934.978515625 L -2645.919189453125 -4937.5185546875 L -2639.979248046875 -4935.0380859375 L -2634.03955078125 -4937.5185546875 L -2627.95849609375 -4934.978515625 L -2639.978759765625 -4929.95849609375 Z" stroke="none" fill="#000"/>
    </g>
    <g id="패스_13562" data-name="패스 13562" transform="translate(907 779.979) rotate(45)" fill="none">
      <path d="M4.95,4.95,17,0,12.05,12.05,0,17Z" stroke="none"/>
      <path d="M 15.16530418395996 1.834695816040039 L 5.716059684753418 5.716059684753418 L 1.834695816040039 15.16530418395996 L 11.2839412689209 11.2839412689209 L 15.16530418395996 1.834695816040039 M 17 0 L 12.05025005340576 12.05025005340576 L 0 17 L 4.949749946594238 4.949749946594238 L 17 0 Z" stroke="none" fill="#000"/>
    </g>
  </g>
</svg>
