<svg xmlns="http://www.w3.org/2000/svg" xmlns:xlink="http://www.w3.org/1999/xlink" width="80" height="80" viewBox="0 0 80 80">
  <defs>
    <linearGradient id="linear-gradient" x1="0.5" x2="0.5" y2="1" gradientUnits="objectBoundingBox">
      <stop offset="0" stop-color="#043dff"/>
      <stop offset="1" stop-color="#0092e5"/>
    </linearGradient>
    <clipPath id="clip-path">
      <rect id="사각형_2352" data-name="사각형 2352" width="66.225" height="14.807" fill="#fff"/>
    </clipPath>
  </defs>
  <g id="thumbnail" transform="translate(-1587 -207)">
    <rect id="사각형_2629" data-name="사각형 2629" width="80" height="80" rx="40" transform="translate(1587 207)" fill="url(#linear-gradient)"/>
    <g id="그룹_6618" data-name="그룹 6618" transform="translate(1595.401 241.49)">
      <path id="패스_12490" data-name="패스 12490" d="M242.222,23.551H241.2V24.1h.964v.726H241.2v.568h1.018v.726h-1.873v-3.3h1.873Z" transform="translate(-207.258 -19.682)" fill="#fff"/>
      <path id="패스_12491" data-name="패스 12491" d="M256.912,26.121l.558-3.3h.845l.667,1.759.707-1.759h.855l.494,3.3h-.855l-.242-1.9-.8,1.9H258.8l-.761-1.9-.282,1.9Z" transform="translate(-221.54 -19.683)" fill="#fff"/>
      <g id="그룹_6400" data-name="그룹 6400" transform="translate(0 0)">
        <g id="그룹_6399" data-name="그룹 6399" clip-path="url(#clip-path)">
          <path id="패스_12492" data-name="패스 12492" d="M291.595,25.029v1.092h-.855v-3.3H292.1a1.135,1.135,0,0,1,.835.3,1.021,1.021,0,0,1,.306.8,1.071,1.071,0,0,1-.292.82,1.1,1.1,0,0,1-.82.287Zm0-.692h.287a.558.558,0,0,0,.361-.1.377.377,0,0,0,.109-.3.4.4,0,0,0-.1-.3.5.5,0,0,0-.366-.119h-.292Z" transform="translate(-250.71 -19.682)" fill="#fff"/>
          <path id="패스_12493" data-name="패스 12493" d="M314.113,25.241a1.971,1.971,0,0,1-2.6,0,1.724,1.724,0,0,1,0-2.466,1.971,1.971,0,0,1,2.6,0,1.724,1.724,0,0,1,0,2.466m-1.967-1.863a.9.9,0,0,0-.262.647.838.838,0,0,0,.262.613.935.935,0,0,0,.667.262.9.9,0,0,0,.929-.889.89.89,0,0,0-.267-.633.988.988,0,0,0-.662-.262.949.949,0,0,0-.667.262" transform="translate(-268.177 -19.218)" fill="#fff"/>
          <path id="패스_12494" data-name="패스 12494" d="M338.977,22.825l.573,2.13.7-2.13h.682l.647,2.13.623-2.13h.894l-1.052,3.3h-.875l-.6-1.907-.633,1.907h-.87l-.983-3.3Z" transform="translate(-291.535 -19.682)" fill="#fff"/>
          <path id="패스_12495" data-name="패스 12495" d="M378.71,23.551h-1.018V24.1h.963v.726h-.963v.568h1.018v.726h-1.873v-3.3h1.873Z" transform="translate(-324.954 -19.682)" fill="#fff"/>
          <path id="패스_12496" data-name="패스 12496" d="M396.245,22.825a1.065,1.065,0,0,1,.806.292,1.084,1.084,0,0,1,.282.741.951.951,0,0,1-.262.687.921.921,0,0,1-.455.227l1.033,1.349h-1.062l-.82-1.265v1.265h-.855v-3.3Zm-.479,1.478h.163a.642.642,0,0,0,.415-.134.41.41,0,0,0,.109-.277.389.389,0,0,0-.114-.277.58.58,0,0,0-.41-.128h-.163Z" transform="translate(-340.539 -19.682)" fill="#fff"/>
          <rect id="사각형_2350" data-name="사각형 2350" width="0.855" height="3.296" transform="translate(57.434 3.143)" fill="#fff"/>
          <path id="패스_12497" data-name="패스 12497" d="M428.383,26.121v-3.3h.855l1.576,2.016V22.825h.855v3.3h-.855l-1.576-2.016v2.016Z" transform="translate(-369.402 -19.683)" fill="#fff"/>
          <path id="패스_12498" data-name="패스 12498" d="M457.821,23.788h1.7a1.843,1.843,0,0,1-.529,1.482,1.609,1.609,0,0,1-1.161.415,1.7,1.7,0,0,1-1.265-.489,1.661,1.661,0,0,1-.474-1.191,1.718,1.718,0,0,1,.494-1.235,1.916,1.916,0,0,1,2.169-.262,1.614,1.614,0,0,1,.588.677l-.815.336a.807.807,0,0,0-.237-.331.691.691,0,0,0-.46-.163.8.8,0,0,0-.563.227,1.111,1.111,0,0,0-.287.756,1.031,1.031,0,0,0,.262.712.779.779,0,0,0,.6.252.706.706,0,0,0,.474-.153.587.587,0,0,0,.2-.366h-.7Z" transform="translate(-393.296 -19.218)" fill="#fff"/>
          <path id="패스_12499" data-name="패스 12499" d="M242.222,59.44H241.2v.549h.964v.726H241.2v.568h1.018v.726h-1.873v-3.3h1.873Z" transform="translate(-207.258 -50.63)" fill="#fff"/>
          <path id="패스_12500" data-name="패스 12500" d="M257.024,60.25l-1.058-1.537h1.058l.489.855.509-.855h1.053L258,60.25l1.245,1.759H258.21l-.7-1.072-.741,1.072h-1.033Z" transform="translate(-220.525 -50.629)" fill="#fff"/>
          <path id="패스_12501" data-name="패스 12501" d="M284.435,60.917v1.092h-.855v-3.3h1.364a1.134,1.134,0,0,1,.835.3,1.021,1.021,0,0,1,.306.8,1.071,1.071,0,0,1-.292.82,1.1,1.1,0,0,1-.82.287Zm0-.692h.287a.558.558,0,0,0,.361-.1.377.377,0,0,0,.109-.3.4.4,0,0,0-.1-.3.5.5,0,0,0-.366-.119h-.291Z" transform="translate(-244.536 -50.629)" fill="#fff"/>
          <path id="패스_12502" data-name="패스 12502" d="M306.737,59.44h-1.018v.549h.964v.726h-.964v.568h1.018v.726h-1.873v-3.3h1.873Z" transform="translate(-262.89 -50.63)" fill="#fff"/>
          <path id="패스_12503" data-name="패스 12503" d="M324.272,58.713a1.065,1.065,0,0,1,.806.291,1.085,1.085,0,0,1,.281.741.951.951,0,0,1-.262.687.921.921,0,0,1-.455.227l1.033,1.349h-1.062l-.82-1.265v1.265h-.855v-3.3Zm-.479,1.477h.163a.642.642,0,0,0,.415-.134.41.41,0,0,0,.109-.277.389.389,0,0,0-.114-.277.58.58,0,0,0-.41-.128h-.163Z" transform="translate(-278.475 -50.629)" fill="#fff"/>
          <path id="패스_12504" data-name="패스 12504" d="M344.34,59.44v2.57h-.855V59.44h-.7v-.726h2.258v.726Z" transform="translate(-295.589 -50.63)" fill="#fff"/>
          <rect id="사각형_2351" data-name="사각형 2351" width="0.855" height="3.296" transform="translate(49.797 8.084)" fill="#fff"/>
          <path id="패스_12505" data-name="패스 12505" d="M371.924,60.557a1.155,1.155,0,0,0,.756.336.434.434,0,0,0,.331-.114.3.3,0,0,0,.084-.208.257.257,0,0,0-.094-.2,1.191,1.191,0,0,0-.425-.173l-.222-.069a1.076,1.076,0,0,1-.474-.267.829.829,0,0,1-.188-.583,1.078,1.078,0,0,1,.3-.8,1.162,1.162,0,0,1,.845-.311,2.316,2.316,0,0,1,1.018.267l-.341.667a.869.869,0,0,0-.563-.222.411.411,0,0,0-.282.1.245.245,0,0,0-.084.178.22.22,0,0,0,.044.148.543.543,0,0,0,.287.148l.262.079a1.258,1.258,0,0,1,.6.326.778.778,0,0,1,.212.588,1.117,1.117,0,0,1-.311.83,1.278,1.278,0,0,1-.974.336,1.761,1.761,0,0,1-.647-.109,2.306,2.306,0,0,1-.5-.262Z" transform="translate(-320.401 -50.165)" fill="#fff"/>
          <path id="패스_12506" data-name="패스 12506" d="M394.946,59.44h-1.018v.549h.964v.726h-.964v.568h1.018v.726h-1.873v-3.3h1.873Z" transform="translate(-338.954 -50.63)" fill="#fff"/>
          <path id="패스_12507" data-name="패스 12507" d="M2.41,1.205A1.205,1.205,0,1,1,1.205,0,1.205,1.205,0,0,1,2.41,1.205" transform="translate(0 0)" fill="#fff"/>
          <path id="패스_12508" data-name="패스 12508" d="M214.442,0a1.2,1.2,0,0,0-.6.163,1.2,1.2,0,0,1,0,2.085,1.2,1.2,0,1,0,.6-2.248" transform="translate(-184.397 0)" fill="#fff"/>
          <path id="패스_12509" data-name="패스 12509" d="M201.914,1.205a1.2,1.2,0,0,1,.6-1.043,1.2,1.2,0,1,0-.6,2.248,1.2,1.2,0,0,0,.6-.162,1.2,1.2,0,0,1-.6-1.043" transform="translate(-173.075)" fill="#fff"/>
          <path id="패스_12510" data-name="패스 12510" d="M172.7,22.51v8.264a1.379,1.379,0,0,1-1.377,1.377v2.066a3.443,3.443,0,0,0,3.443-3.443V22.51Z" transform="translate(-147.734 -19.411)" fill="#fff"/>
          <path id="패스_12511" data-name="패스 12511" d="M1.25,30.774H3.316V23.543a1.033,1.033,0,0,0-2.066,0Z" transform="translate(-1.078 -19.411)" fill="#fff"/>
          <path id="패스_12512" data-name="패스 12512" d="M206.336,23.543v7.231H208.4V23.543a1.033,1.033,0,0,0-2.066,0" transform="translate(-177.927 -19.411)" fill="#fff"/>
          <path id="패스_12513" data-name="패스 12513" d="M31.771,27.564l-3.341-4.9a.345.345,0,0,0-.285-.15h-1.54a.344.344,0,0,0-.344.344v7.92h2.066V25.718l3.341,4.9a.344.344,0,0,0,.285.15h1.54a.344.344,0,0,0,.344-.344v-7.92H31.771Z" transform="translate(-22.645 -19.41)" fill="#fff"/>
          <path id="패스_12514" data-name="패스 12514" d="M91.632,22.51a.344.344,0,0,0-.344.344V30.43a.344.344,0,0,0,.344.344h4.476V28.708H93.354V27.5h2.755V25.781H93.354V24.576h2.755V22.51H91.632Z" transform="translate(-78.719 -19.411)" fill="#fff"/>
          <path id="패스_12515" data-name="패스 12515" d="M141.128,28.708h-2.755V27.5h2.755V25.781h-2.755V24.576h2.755V22.51h-4.476a.344.344,0,0,0-.344.344V30.43a.344.344,0,0,0,.344.344h4.476Z" transform="translate(-117.54 -19.411)" fill="#fff"/>
        </g>
      </g>
    </g>
  </g>
</svg>
