<svg xmlns="http://www.w3.org/2000/svg" width="146" height="146" viewBox="0 0 146 146">
  <g id="upload" transform="translate(-542 -403)">
    <rect id="사각형_2438" data-name="사각형 2438" width="146" height="146" rx="73" transform="translate(542 403)" fill="#f6f8ff"/>
    <path id="합치기_1" data-name="합치기 1" d="M2693,58V51h48v7Zm14-13V25h-14l24-25,24,25h-14V45Z" transform="translate(-2102 440)" fill="#4338f7"/>
    <path id="패스_13471" data-name="패스 13471" d="M-15.42-4.05v-6.66h-2.355v6.66a2.68,2.68,0,0,1-.48,1.763,2.206,2.206,0,0,1-1.74.563,2.713,2.713,0,0,1-1.148-.2,1.738,1.738,0,0,1-.667-.525,1.736,1.736,0,0,1-.315-.743A4.854,4.854,0,0,1-22.2-4.05v-6.66h-2.355v6.66A4.1,4.1,0,0,0-23.362-.81,4.931,4.931,0,0,0-19.995.24a4.949,4.949,0,0,0,3.36-1.058A4.059,4.059,0,0,0-15.42-4.05ZM-9.7-1.395a1.7,1.7,0,0,1-.87-.21,1.685,1.685,0,0,1-.577-.547,2.364,2.364,0,0,1-.315-.787,4.309,4.309,0,0,1-.1-.915,4.731,4.731,0,0,1,.09-.93,2.335,2.335,0,0,1,.307-.8,1.751,1.751,0,0,1,.57-.562A1.643,1.643,0,0,1-9.72-6.36a1.613,1.613,0,0,1,.863.218,1.8,1.8,0,0,1,.577.57,2.436,2.436,0,0,1,.323.8,4.309,4.309,0,0,1,.1.915,4.654,4.654,0,0,1-.09.915,2.255,2.255,0,0,1-.307.787,1.707,1.707,0,0,1-.57.547A1.689,1.689,0,0,1-9.7-1.395Zm-3.915-6.36V2.715h2.13V-.96h.03a2.513,2.513,0,0,0,1,.863A3.02,3.02,0,0,0-9.135.2a3.2,3.2,0,0,0,1.492-.33A3.158,3.158,0,0,0-6.577-1.02,3.819,3.819,0,0,0-5.94-2.3a5.33,5.33,0,0,0,.21-1.5,5.9,5.9,0,0,0-.21-1.583A3.864,3.864,0,0,0-6.585-6.7a3.252,3.252,0,0,0-1.1-.915,3.359,3.359,0,0,0-1.575-.345,3.037,3.037,0,0,0-1.32.285,2.343,2.343,0,0,0-.99.915h-.03v-.99Zm9.225-2.955V0h2.13V-10.71ZM1.3-3.87a4.654,4.654,0,0,1,.09-.915,2.334,2.334,0,0,1,.307-.8,1.727,1.727,0,0,1,.578-.562,1.714,1.714,0,0,1,.9-.218,1.755,1.755,0,0,1,.907.218,1.706,1.706,0,0,1,.585.563,2.334,2.334,0,0,1,.307.8,4.654,4.654,0,0,1,.09.915,4.542,4.542,0,0,1-.09.907,2.418,2.418,0,0,1-.307.8,1.619,1.619,0,0,1-.585.562,1.8,1.8,0,0,1-.907.21,1.763,1.763,0,0,1-.9-.21A1.638,1.638,0,0,1,1.7-2.168a2.418,2.418,0,0,1-.307-.8A4.542,4.542,0,0,1,1.3-3.87Zm-2.13,0A4.7,4.7,0,0,0-.54-2.19,3.644,3.644,0,0,0,.27-.907,3.543,3.543,0,0,0,1.53-.09,4.533,4.533,0,0,0,3.18.2,4.593,4.593,0,0,0,4.837-.09,3.53,3.53,0,0,0,6.1-.907a3.644,3.644,0,0,0,.81-1.283A4.7,4.7,0,0,0,7.2-3.87a4.761,4.761,0,0,0-.285-1.687,3.632,3.632,0,0,0-.81-1.29,3.615,3.615,0,0,0-1.268-.825A4.488,4.488,0,0,0,3.18-7.965a4.429,4.429,0,0,0-1.65.293,3.63,3.63,0,0,0-1.26.825,3.632,3.632,0,0,0-.81,1.29A4.761,4.761,0,0,0-.825-3.87ZM8.49-5.37a2.474,2.474,0,0,1,.375-1.245A2.554,2.554,0,0,1,9.7-7.41a3.66,3.66,0,0,1,1.148-.427,6.524,6.524,0,0,1,1.282-.128,8.692,8.692,0,0,1,1.185.082,3.625,3.625,0,0,1,1.1.323,2.158,2.158,0,0,1,.81.667A1.865,1.865,0,0,1,15.54-5.76v4.035a8.1,8.1,0,0,0,.06,1,1.817,1.817,0,0,0,.21.72H13.65a3.056,3.056,0,0,1-.1-.367A3.2,3.2,0,0,1,13.5-.75a2.776,2.776,0,0,1-1.2.735A4.817,4.817,0,0,1,10.89.2,3.809,3.809,0,0,1,9.855.06a2.37,2.37,0,0,1-.84-.42,1.955,1.955,0,0,1-.562-.72,2.434,2.434,0,0,1-.2-1.035A2.261,2.261,0,0,1,8.482-3.2a1.944,1.944,0,0,1,.6-.683,2.688,2.688,0,0,1,.84-.382,8.967,8.967,0,0,1,.952-.2q.48-.075.945-.12a5.683,5.683,0,0,0,.825-.135,1.438,1.438,0,0,0,.57-.263.576.576,0,0,0,.195-.5,1.13,1.13,0,0,0-.112-.548.827.827,0,0,0-.3-.315,1.18,1.18,0,0,0-.435-.15,3.56,3.56,0,0,0-.532-.037,1.617,1.617,0,0,0-.99.27,1.205,1.205,0,0,0-.42.9Zm4.92,1.575a.955.955,0,0,1-.337.187,3.447,3.447,0,0,1-.435.113q-.232.045-.488.075t-.51.075a3.847,3.847,0,0,0-.472.12,1.4,1.4,0,0,0-.4.2.963.963,0,0,0-.278.322,1.037,1.037,0,0,0-.105.5,1,1,0,0,0,.105.48.8.8,0,0,0,.285.308,1.2,1.2,0,0,0,.42.158,2.681,2.681,0,0,0,.495.045,1.883,1.883,0,0,0,.975-.21,1.4,1.4,0,0,0,.51-.5,1.607,1.607,0,0,0,.2-.592A4.07,4.07,0,0,0,13.41-3ZM22.695-3.9a4.731,4.731,0,0,1-.09.93,2.521,2.521,0,0,1-.3.8,1.6,1.6,0,0,1-.563.562,1.689,1.689,0,0,1-.877.21,1.583,1.583,0,0,1-.847-.218,1.871,1.871,0,0,1-.585-.57,2.458,2.458,0,0,1-.337-.8,3.949,3.949,0,0,1-.1-.9,4.276,4.276,0,0,1,.1-.922,2.453,2.453,0,0,1,.315-.787,1.66,1.66,0,0,1,.577-.555,1.73,1.73,0,0,1,.885-.21,1.649,1.649,0,0,1,.87.21A1.731,1.731,0,0,1,22.3-5.6a2.255,2.255,0,0,1,.308.78A4.619,4.619,0,0,1,22.695-3.9Zm.03,2.91V0H24.75V-10.71H22.62v3.9h-.03a2.286,2.286,0,0,0-.983-.863A3.049,3.049,0,0,0,20.3-7.965a3.19,3.19,0,0,0-1.5.338,3.216,3.216,0,0,0-1.072.892,3.918,3.918,0,0,0-.645,1.283,5.234,5.234,0,0,0-.218,1.507,5.573,5.573,0,0,0,.218,1.56,4.152,4.152,0,0,0,.645,1.327,3.071,3.071,0,0,0,1.087.915A3.316,3.316,0,0,0,20.34.2a3.267,3.267,0,0,0,1.372-.278,2.2,2.2,0,0,0,.983-.908Z" transform="translate(615 528)" fill="#4338f7"/>
  </g>
</svg>
