<svg xmlns="http://www.w3.org/2000/svg" width="36" height="36" viewBox="0 0 36 36">
  <g id="view_list_on" transform="translate(-2224 -6516)">
    <g id="패스_14054" data-name="패스 14054" transform="translate(2224 6516)" fill="#e5ebff">
      <path d="M 26 35.5 L 10 35.5 C 4.761680126190186 35.5 0.5 31.23831939697266 0.5 26 L 0.5 10 C 0.5 4.761680126190186 4.761680126190186 0.5 10 0.5 L 26 0.5 C 31.23831939697266 0.5 35.5 4.761680126190186 35.5 10 L 35.5 26 C 35.5 31.23831939697266 31.23831939697266 35.5 26 35.5 Z" stroke="none"/>
      <path d="M 10 1 C 5.037380218505859 1 1 5.037380218505859 1 10 L 1 26 C 1 30.96261978149414 5.037380218505859 35 10 35 L 26 35 C 30.96261978149414 35 35 30.96261978149414 35 26 L 35 10 C 35 5.037380218505859 30.96261978149414 1 26 1 L 10 1 M 10 0 L 26 0 C 31.52285003662109 0 36 4.477149963378906 36 10 L 36 26 C 36 31.52285003662109 31.52285003662109 36 26 36 L 10 36 C 4.477149963378906 36 0 31.52285003662109 0 26 L 0 10 C 0 4.477149963378906 4.477149963378906 0 10 0 Z" stroke="none" fill="#4338f7"/>
    </g>
    <g id="사각형_4917" data-name="사각형 4917" transform="translate(2233 6526)" fill="#fff" stroke="#4338f7" stroke-width="1">
      <rect width="18" height="4" stroke="none"/>
      <rect x="0.5" y="0.5" width="17" height="3" fill="none"/>
    </g>
    <g id="사각형_4920" data-name="사각형 4920" transform="translate(2233 6532)" fill="#fff" stroke="#4338f7" stroke-width="1">
      <rect width="18" height="4" stroke="none"/>
      <rect x="0.5" y="0.5" width="17" height="3" fill="none"/>
    </g>
    <g id="사각형_4922" data-name="사각형 4922" transform="translate(2233 6538)" fill="#fff" stroke="#4338f7" stroke-width="1">
      <rect width="18" height="4" stroke="none"/>
      <rect x="0.5" y="0.5" width="17" height="3" fill="none"/>
    </g>
  </g>
</svg>
