<svg xmlns="http://www.w3.org/2000/svg" xmlns:xlink="http://www.w3.org/1999/xlink" width="218.039" height="48.751" viewBox="0 0 218.039 48.751">
  <defs>
    <clipPath id="clip-path">
      <rect id="사각형_2352" data-name="사각형 2352" width="218.039" height="48.751" fill="#fff"/>
    </clipPath>
  </defs>
  <g id="ineeji_logo" transform="translate(0 0)">
    <path id="패스_12490" data-name="패스 12490" d="M246.516,25.217h-3.351v1.806h3.172v2.392h-3.172v1.871h3.351v2.392h-6.166V22.825h6.166Z" transform="translate(-131.398 -12.478)" fill="#fff"/>
    <path id="패스_12491" data-name="패스 12491" d="M256.912,33.677l1.839-10.852h2.782l2.2,5.792,2.326-5.792h2.815L270.5,33.677h-2.815l-.8-6.247-2.619,6.247h-1.123l-2.505-6.247-.927,6.247Z" transform="translate(-140.453 -12.478)" fill="#fff"/>
    <g id="그룹_6400" data-name="그룹 6400" transform="translate(0 0)">
      <g id="그룹_6399" data-name="그룹 6399" clip-path="url(#clip-path)">
        <path id="패스_12492" data-name="패스 12492" d="M293.555,30.081v3.6H290.74V22.825h4.49a3.735,3.735,0,0,1,2.749.976,3.363,3.363,0,0,1,1.009,2.636,3.525,3.525,0,0,1-.96,2.7,3.612,3.612,0,0,1-2.7.944Zm0-2.277h.943a1.838,1.838,0,0,0,1.188-.342,1.241,1.241,0,0,0,.358-.992,1.318,1.318,0,0,0-.326-.976,1.653,1.653,0,0,0-1.2-.39h-.96Z" transform="translate(-158.946 -12.478)" fill="#fff"/>
        <path id="패스_12493" data-name="패스 12493" d="M321.261,32.015a6.489,6.489,0,0,1-8.558,0,5.676,5.676,0,0,1,0-8.118,6.488,6.488,0,0,1,8.558,0,5.677,5.677,0,0,1,0,8.118m-6.475-6.134a2.976,2.976,0,0,0-.863,2.131,2.758,2.758,0,0,0,.863,2.018,3.079,3.079,0,0,0,2.2.862,2.947,2.947,0,0,0,3.059-2.928,2.931,2.931,0,0,0-.878-2.083,3.252,3.252,0,0,0-2.18-.862,3.125,3.125,0,0,0-2.2.862" transform="translate(-170.02 -12.184)" fill="#fff"/>
        <path id="패스_12494" data-name="패스 12494" d="M341.028,22.825l1.887,7.012,2.294-7.012h2.245l2.131,7.012,2.05-7.012h2.945l-3.465,10.852h-2.88l-1.969-6.28-2.082,6.28H341.32l-3.237-10.852Z" transform="translate(-184.829 -12.478)" fill="#fff"/>
        <path id="패스_12495" data-name="패스 12495" d="M383,25.217h-3.351v1.806h3.172v2.392h-3.172v1.871H383v2.392h-6.166V22.825H383Z" transform="translate(-206.016 -12.478)" fill="#fff"/>
        <path id="패스_12496" data-name="패스 12496" d="M399.3,22.825a3.506,3.506,0,0,1,2.652.96,3.57,3.57,0,0,1,.927,2.44,3.132,3.132,0,0,1-.862,2.262,3.035,3.035,0,0,1-1.5.748l3.4,4.442h-3.5l-2.7-4.165v4.165h-2.815V22.825Zm-1.578,4.865h.537a2.115,2.115,0,0,0,1.367-.44,1.349,1.349,0,0,0,.358-.911,1.28,1.28,0,0,0-.374-.911,1.909,1.909,0,0,0-1.35-.423h-.537Z" transform="translate(-215.897 -12.478)" fill="#fff"/>
        <rect id="사각형_2350" data-name="사각형 2350" width="2.815" height="10.852" transform="translate(189.096 10.347)" fill="#fff"/>
        <path id="패스_12497" data-name="패스 12497" d="M428.383,33.677V22.825H431.2l5.19,6.638V22.825H439.2V33.677h-2.815l-5.19-6.638v6.638Z" transform="translate(-234.195 -12.479)" fill="#fff"/>
        <path id="패스_12498" data-name="패스 12498" d="M461.785,27.232h5.6c0,2.148-.44,3.677-1.741,4.881a5.3,5.3,0,0,1-3.823,1.367,5.606,5.606,0,0,1-4.165-1.611,5.469,5.469,0,0,1-1.562-3.921,5.654,5.654,0,0,1,1.627-4.067,6.308,6.308,0,0,1,7.142-.863,5.313,5.313,0,0,1,1.936,2.229l-2.684,1.107a2.658,2.658,0,0,0-.781-1.09,2.277,2.277,0,0,0-1.513-.537,2.621,2.621,0,0,0-1.855.748,3.659,3.659,0,0,0-.944,2.489,3.394,3.394,0,0,0,.863,2.343,2.566,2.566,0,0,0,1.985.83,2.324,2.324,0,0,0,1.562-.5,1.931,1.931,0,0,0,.667-1.2h-2.31Z" transform="translate(-249.343 -12.184)" fill="#fff"/>
        <path id="패스_12499" data-name="패스 12499" d="M246.516,61.1h-3.351v1.806h3.172V65.3h-3.172v1.871h3.351v2.392h-6.166V58.713h6.166Z" transform="translate(-131.398 -32.098)" fill="#fff"/>
        <path id="패스_12500" data-name="패스 12500" d="M259.981,63.772,256.5,58.713h3.482l1.611,2.814,1.676-2.814h3.466l-3.53,5.059,4.1,5.792h-3.417l-2.311-3.531-2.44,3.531h-3.4Z" transform="translate(-139.809 -32.098)" fill="#fff"/>
        <path id="패스_12501" data-name="패스 12501" d="M286.395,65.969v3.6H283.58V58.713h4.49a3.734,3.734,0,0,1,2.749.976,3.362,3.362,0,0,1,1.009,2.635,3.525,3.525,0,0,1-.96,2.7,3.611,3.611,0,0,1-2.7.944Zm0-2.277h.944a1.836,1.836,0,0,0,1.187-.342,1.24,1.24,0,0,0,.358-.992,1.315,1.315,0,0,0-.325-.976,1.653,1.653,0,0,0-1.2-.39h-.96Z" transform="translate(-155.032 -32.098)" fill="#fff"/>
        <path id="패스_12502" data-name="패스 12502" d="M311.031,61.1h-3.351v1.806h3.172V65.3h-3.172v1.871h3.351v2.392h-6.166V58.713h6.166Z" transform="translate(-166.668 -32.098)" fill="#fff"/>
        <path id="패스_12503" data-name="패스 12503" d="M327.331,58.713a3.507,3.507,0,0,1,2.652.96,3.571,3.571,0,0,1,.927,2.44,3.132,3.132,0,0,1-.862,2.262,3.035,3.035,0,0,1-1.5.748l3.4,4.442h-3.5l-2.7-4.165v4.165h-2.815V58.713Zm-1.578,4.864h.537a2.115,2.115,0,0,0,1.367-.44,1.349,1.349,0,0,0,.358-.911,1.28,1.28,0,0,0-.374-.911,1.909,1.909,0,0,0-1.35-.423h-.537Z" transform="translate(-176.549 -32.098)" fill="#fff"/>
        <path id="패스_12504" data-name="패스 12504" d="M347.909,61.1v8.46h-2.815V61.1h-2.311V58.713h7.436V61.1Z" transform="translate(-187.399 -32.098)" fill="#fff"/>
        <rect id="사각형_2351" data-name="사각형 2351" width="2.815" height="10.852" transform="translate(163.952 26.615)" fill="#fff"/>
        <path id="패스_12505" data-name="패스 12505" d="M372.762,66.017a3.8,3.8,0,0,0,2.489,1.106,1.428,1.428,0,0,0,1.09-.374.97.97,0,0,0,.276-.684.847.847,0,0,0-.309-.65,3.92,3.92,0,0,0-1.4-.57l-.732-.228a3.542,3.542,0,0,1-1.562-.879,2.729,2.729,0,0,1-.618-1.92,3.547,3.547,0,0,1,.992-2.619,3.826,3.826,0,0,1,2.782-1.025,7.623,7.623,0,0,1,3.351.879L378,61.25a2.862,2.862,0,0,0-1.855-.732,1.353,1.353,0,0,0-.927.325.806.806,0,0,0-.277.586.725.725,0,0,0,.146.488,1.787,1.787,0,0,0,.944.488l.863.261a4.141,4.141,0,0,1,1.968,1.073,2.561,2.561,0,0,1,.7,1.936,3.676,3.676,0,0,1-1.025,2.733,4.206,4.206,0,0,1-3.205,1.106,5.8,5.8,0,0,1-2.131-.358,7.592,7.592,0,0,1-1.643-.862Z" transform="translate(-203.129 -31.804)" fill="#fff"/>
        <path id="패스_12506" data-name="패스 12506" d="M399.239,61.1h-3.351v1.806h3.172V65.3h-3.172v1.871h3.351v2.392h-6.166V58.713h6.166Z" transform="translate(-214.892 -32.098)" fill="#fff"/>
        <path id="패스_12507" data-name="패스 12507" d="M7.936,3.968A3.968,3.968,0,1,1,3.968,0,3.968,3.968,0,0,1,7.936,3.968" transform="translate(0 0)" fill="#fff"/>
        <path id="패스_12508" data-name="패스 12508" d="M215.823,0a3.942,3.942,0,0,0-1.984.535,3.962,3.962,0,0,1,0,6.866A3.967,3.967,0,1,0,215.823,0" transform="translate(-116.905 0)" fill="#fff"/>
        <path id="패스_12509" data-name="패스 12509" d="M204.677,3.968A3.963,3.963,0,0,1,206.661.535a3.967,3.967,0,1,0-1.984,7.4,3.946,3.946,0,0,0,1.984-.535,3.963,3.963,0,0,1-1.984-3.433" transform="translate(-109.727)" fill="#fff"/>
        <path id="패스_12510" data-name="패스 12510" d="M175.857,22.51V49.72a4.54,4.54,0,0,1-4.535,4.535v6.8A11.337,11.337,0,0,0,182.659,49.72V22.51Z" transform="translate(-93.661 -12.306)" fill="#fff"/>
        <path id="패스_12511" data-name="패스 12511" d="M1.25,49.72h6.8V25.911a3.4,3.4,0,0,0-6.8,0Z" transform="translate(-0.683 -12.306)" fill="#fff"/>
        <path id="패스_12512" data-name="패스 12512" d="M206.336,25.911V49.72h6.8V25.911a3.4,3.4,0,0,0-6.8,0" transform="translate(-112.803 -12.306)" fill="#fff"/>
        <path id="패스_12513" data-name="패스 12513" d="M44.4,39.153,33.4,23a1.134,1.134,0,0,0-.937-.5H27.395a1.134,1.134,0,0,0-1.134,1.134V49.719h6.8V33.075l11,16.148a1.134,1.134,0,0,0,.937.5h5.069A1.134,1.134,0,0,0,51.2,48.585V22.509H44.4Z" transform="translate(-14.357 -12.306)" fill="#fff"/>
        <path id="패스_12514" data-name="패스 12514" d="M92.422,22.51a1.134,1.134,0,0,0-1.134,1.134V48.586a1.134,1.134,0,0,0,1.134,1.134H107.16v-6.8H98.09V38.949h9.07V33.28H98.09V29.312h9.07v-6.8H92.422Z" transform="translate(-49.907 -12.306)" fill="#fff"/>
        <path id="패스_12515" data-name="패스 12515" d="M152.179,42.917h-9.07V38.949h9.07V33.28h-9.07V29.312h9.07v-6.8H137.441a1.134,1.134,0,0,0-1.134,1.134V48.586a1.134,1.134,0,0,0,1.134,1.134h14.738Z" transform="translate(-74.518 -12.306)" fill="#fff"/>
      </g>
    </g>
  </g>
</svg>
