<svg xmlns="http://www.w3.org/2000/svg" xmlns:xlink="http://www.w3.org/1999/xlink" width="413.713" height="318" viewBox="0 0 413.713 318">
  <defs>
    <clipPath id="clip-path">
      <rect id="사각형_2353" data-name="사각형 2353" width="413.713" height="41.759" fill="none"/>
    </clipPath>
    <clipPath id="clip-path-2">
      <rect id="사각형_2359" data-name="사각형 2359" width="343.526" height="225.31" fill="none"/>
    </clipPath>
  </defs>
  <g id="title" transform="translate(-278 -217)">
    <g id="그룹_6402" data-name="그룹 6402" transform="translate(278 217)" clip-path="url(#clip-path)">
      <path id="패스_12516" data-name="패스 12516" d="M0,1.923H6.358c5.05,0,8.012,2.917,8.012,7.271a7.075,7.075,0,0,1-3.4,6.358,6.953,6.953,0,0,1,6.009,7.272c0,5.1-3.744,8.143-9.013,8.143H0ZM1.916,15.072H6.532a5.587,5.587,0,0,0,3.962-1.219,5.476,5.476,0,0,0,1.916-4.441A5.628,5.628,0,0,0,10.45,4.883,7.6,7.6,0,0,0,5.616,3.664h-3.7Zm0,14.152H6.793c1.959,0,4.354,0,6.313-1.741a5.644,5.644,0,0,0,1.873-4.442c0-2.612-.914-4.4-3.092-5.4a12.908,12.908,0,0,0-5.442-.827H1.916Z" transform="translate(0 0.778)" fill="#fff"/>
      <path id="패스_12517" data-name="패스 12517" d="M17.081,19.168a7.133,7.133,0,0,0,7.054,7.49,6.782,6.782,0,0,0,6.184-4.05l1.48.871A8.586,8.586,0,0,1,24,28.31c-5.53,0-8.752-4.092-8.752-9.275,0-6.182,4.267-9.362,8.622-9.362,4.79,0,8.4,3.831,8.4,9.494Zm13.368-1.656a6.672,6.672,0,0,0-6.575-6.182,6.789,6.789,0,0,0-6.662,6.182Z" transform="translate(6.168 3.912)" fill="#fff"/>
      <path id="패스_12518" data-name="패스 12518" d="M37,28.024,28.55,9.953h2L38,25.76,44.487,9.953h2L34.82,37.735h-2Z" transform="translate(11.545 4.025)" fill="#fff"/>
      <path id="패스_12519" data-name="패스 12519" d="M61.107,18.994a9.319,9.319,0,0,1-18.638,0,9.319,9.319,0,1,1,18.638,0m-1.829,0a7.492,7.492,0,1,0-14.981,0,7.492,7.492,0,1,0,14.981,0" transform="translate(17.174 3.912)" fill="#fff"/>
      <path id="패스_12520" data-name="패스 12520" d="M59.24,10.066h1.741v2.786a5.934,5.934,0,0,1,5.443-3.178,5.518,5.518,0,0,1,4.921,2.482,8.562,8.562,0,0,1,.871,4.486v11.19H70.475V16.641a6.571,6.571,0,0,0-.7-3.57,3.769,3.769,0,0,0-3.483-1.743,4.675,4.675,0,0,0-4.355,2.483,9.651,9.651,0,0,0-.958,4.789v9.231H59.24Z" transform="translate(23.956 3.912)" fill="#fff"/>
      <path id="패스_12521" data-name="패스 12521" d="M87.537,0H89.28V31.745H87.537v-3.18a8.092,8.092,0,0,1-6.879,3.658c-4.486,0-8.709-3.222-8.709-9.449,0-6.488,4.4-9.189,8.709-9.189a8.04,8.04,0,0,1,6.879,3.484ZM73.779,22.731c0,5.181,3.4,7.838,6.967,7.838,3.528,0,6.88-2.657,6.88-7.838,0-4.137-2.57-7.49-6.967-7.49-3.658,0-6.88,2.525-6.88,7.49" transform="translate(29.096 0)" fill="#fff"/>
      <path id="패스_12522" data-name="패스 12522" d="M102.437,28.024,93.989,9.953h2l7.446,15.806,6.488-15.806h2L100.26,37.735h-2Z" transform="translate(38.008 4.025)" fill="#fff"/>
      <path id="패스_12523" data-name="패스 12523" d="M126.576,18.994a9.318,9.318,0,1,1-18.636,0,9.318,9.318,0,1,1,18.636,0m-1.829,0a7.492,7.492,0,1,0-14.979,0,7.492,7.492,0,1,0,14.979,0" transform="translate(43.65 3.912)" fill="#fff"/>
      <path id="패스_12524" data-name="패스 12524" d="M126.327,9.953V20.664a6.889,6.889,0,0,0,1.132,4.442,5.048,5.048,0,0,0,7.054,0,6.889,6.889,0,0,0,1.132-4.442V9.953h1.741V21.145a7.665,7.665,0,0,1-1.348,4.876,6.95,6.95,0,0,1-10.1,0,7.667,7.667,0,0,1-1.35-4.876V9.953Z" transform="translate(50.381 4.025)" fill="#fff"/>
      <path id="패스_12525" data-name="패스 12525" d="M137.885,10.066h1.741v2.309a4.2,4.2,0,0,1,3.92-2.7,4.126,4.126,0,0,1,1.872.435l-.871,1.567a2.01,2.01,0,0,0-1.306-.348c-3.571,0-3.615,4.747-3.615,6.967v9.536h-1.741Z" transform="translate(55.759 3.912)" fill="#fff"/>
      <path id="패스_12526" data-name="패스 12526" d="M167.659,3.665H155.641V14.2H167.4v1.741H155.641V29.224h12.019v1.741H153.725V1.923h13.934Z" transform="translate(62.165 0.778)" fill="#fff"/>
      <path id="패스_12527" data-name="패스 12527" d="M173.123,18.4l-6.575-8.447h2.135l5.616,7.315,5.53-7.315h2.133L175.519,18.4l7.141,9.318h-2.135L174.3,19.533l-6.227,8.186h-2.133Z" transform="translate(67.104 4.025)" fill="#fff"/>
      <path id="패스_12528" data-name="패스 12528" d="M182.064,37.847h-1.741V10.067h1.741v3.091a8.35,8.35,0,0,1,6.967-3.484c5.356,0,8.622,4.007,8.622,9.145,0,5.226-3.309,9.492-8.709,9.492a7.732,7.732,0,0,1-6.88-3.658Zm13.76-19.028c0-4.877-3.222-7.49-6.88-7.49-3.483,0-6.967,2.482-6.967,7.4,0,4.442,2.438,7.925,6.924,7.925s6.924-3.483,6.924-7.838" transform="translate(72.921 3.912)" fill="#fff"/>
      <path id="패스_12529" data-name="패스 12529" d="M197.31,19.168a7.134,7.134,0,0,0,7.054,7.49,6.78,6.78,0,0,0,6.184-4.05l1.48.871a8.584,8.584,0,0,1-7.794,4.833c-5.529,0-8.752-4.092-8.752-9.275,0-6.182,4.268-9.362,8.622-9.362,4.79,0,8.405,3.831,8.405,9.494Zm13.368-1.656A6.67,6.67,0,0,0,204.1,11.33a6.791,6.791,0,0,0-6.662,6.182Z" transform="translate(79.05 3.912)" fill="#fff"/>
      <path id="패스_12530" data-name="패스 12530" d="M225.67,14.247a8.114,8.114,0,0,0-6.14-2.917c-4.354,0-7.4,3.352-7.4,7.707a7.281,7.281,0,0,0,7.315,7.62,8.939,8.939,0,0,0,6.445-3.18V25.83a9.688,9.688,0,0,1-6.488,2.482,8.865,8.865,0,0,1-9.1-9.232c0-5.268,3.526-9.405,9.231-9.405a9.336,9.336,0,0,1,6.14,2.264Z" transform="translate(85.043 3.912)" fill="#fff"/>
      <path id="패스_12531" data-name="패스 12531" d="M227.3,13.438V29.55h-1.741V13.438H223.6V11.784h1.959V5.426H227.3v6.358h3.091v1.654Z" transform="translate(90.42 2.195)" fill="#fff"/>
      <path id="패스_12532" data-name="패스 12532" d="M245.449,10.067h1.741V27.833h-1.741v-3.18a8.115,8.115,0,0,1-6.924,3.658c-4.66,0-8.665-3.526-8.665-9.362,0-5.487,3.484-9.276,8.665-9.276a8.11,8.11,0,0,1,6.924,3.484Zm-13.76,8.752c0,4.007,2.483,7.838,6.967,7.838,4.442,0,6.88-3.746,6.88-7.838,0-5.269-3.875-7.49-6.924-7.49-3.526,0-6.924,2.656-6.924,7.49" transform="translate(92.953 3.912)" fill="#fff"/>
      <path id="패스_12533" data-name="패스 12533" d="M248.935,13.438V29.55h-1.741V13.438h-1.959V11.784h1.959V5.426h1.741v6.358h3.091v1.654Z" transform="translate(99.17 2.195)" fill="#fff"/>
      <path id="패스_12534" data-name="패스 12534" d="M252.054,6.2a1.569,1.569,0,1,1,3.136,0,1.569,1.569,0,1,1-3.136,0m2.439,23.689h-1.741V12.124h1.741Z" transform="translate(101.928 1.856)" fill="#fff"/>
      <path id="패스_12535" data-name="패스 12535" d="M275.776,18.994a9.32,9.32,0,0,1-18.639,0,9.32,9.32,0,0,1,18.639,0m-1.83,0a7.492,7.492,0,1,0-14.979,0,7.492,7.492,0,1,0,14.979,0" transform="translate(103.983 3.912)" fill="#fff"/>
      <path id="패스_12536" data-name="패스 12536" d="M273.909,10.066h1.741v2.786a5.934,5.934,0,0,1,5.443-3.178,5.513,5.513,0,0,1,4.92,2.482,8.549,8.549,0,0,1,.872,4.486v11.19h-1.741V16.641a6.583,6.583,0,0,0-.7-3.57,3.774,3.774,0,0,0-3.484-1.743,4.675,4.675,0,0,0-4.355,2.483,9.651,9.651,0,0,0-.958,4.789v9.231h-1.741Z" transform="translate(110.766 3.912)" fill="#fff"/>
      <path id="패스_12537" data-name="패스 12537" d="M295.5,13.331a3.248,3.248,0,0,0-3.091-2,2.861,2.861,0,0,0-3,2.83c0,1.743,1.393,2.307,3.136,3.005,1.784.7,3.439,1.175,4.57,2.612a4.27,4.27,0,0,1,.916,2.875c0,4.049-3.048,5.66-5.792,5.66a6.08,6.08,0,0,1-6.14-4.7l1.7-.522a4.531,4.531,0,0,0,4.441,3.571,3.808,3.808,0,0,0,3.962-3.92c0-2-1.261-2.743-3.962-3.831-1.785-.74-3.091-1.306-3.875-2.351a3.73,3.73,0,0,1-.785-2.309,4.508,4.508,0,0,1,4.747-4.571,4.785,4.785,0,0,1,4.66,2.873Z" transform="translate(115.692 3.912)" fill="#fff"/>
    </g>
    <rect id="사각형_2354" data-name="사각형 2354" width="11.138" height="57.145" transform="translate(281.598 309.69)" fill="#fff"/>
    <path id="패스_12538" data-name="패스 12538" d="M62.258,0V38.125L27.474,0h-7.71V57.144H30.9V18.934L65.686,57.144H73.4V0Z" transform="translate(285.992 309.69)" fill="#fff"/>
    <path id="패스_12539" data-name="패스 12539" d="M67.343,0V57.144H78.482V31.957H96.473v-9.6H78.482V9.6H97.673V0Z" transform="translate(305.233 309.69)" fill="#fff"/>
    <rect id="사각형_2355" data-name="사각형 2355" width="11.138" height="57.145" transform="translate(412.497 309.69)" fill="#fff"/>
    <path id="패스_12540" data-name="패스 12540" d="M155.527,0V38.125L120.743,0h-7.712V57.144H124.17V18.934l34.784,38.211h7.711V0Z" transform="translate(323.709 309.69)" fill="#fff"/>
    <rect id="사각형_2356" data-name="사각형 2356" width="11.137" height="57.145" transform="translate(503.562 309.69)" fill="#fff"/>
    <path id="패스_12541" data-name="패스 12541" d="M173.361,0V9.6h12.85V57.144h11.138V9.6H210.2V0Z" transform="translate(348.105 309.69)" fill="#fff"/>
    <path id="패스_12542" data-name="패스 12542" d="M204.47,0V57.144h31.7v-9.6H215.608V31.957h19.7v-9.6h-19.7V9.6H236.17V0Z" transform="translate(360.685 309.69)" fill="#fff"/>
    <g id="그룹_6405" data-name="그룹 6405" transform="translate(278 309.69)">
      <g id="그룹_6404" data-name="그룹 6404" clip-path="url(#clip-path-2)">
        <path id="패스_12543" data-name="패스 12543" d="M61.611,88.4c0,17.392-12.509,29.814-30.5,29.814S.61,105.791.61,88.4s12.509-29.9,30.5-29.9,30.5,12.509,30.5,29.9m-11.481,0c0-11.567-7.881-19.791-19.02-19.791S12.091,76.832,12.091,88.4s7.881,19.7,19.02,19.7,19.02-8.14,19.02-19.7" transform="translate(0.247 23.656)" fill="#fff"/>
        <path id="패스_12544" data-name="패스 12544" d="M68.043,59.414c6.425,0,10.881.685,15.079,4.369a18.2,18.2,0,0,1,5.827,13.794c0,2.227-.344,8.4-4.713,12.764-3.17,3.171-7.881,5.056-14.478,5.056h-7.2v21.161H51.422V59.414ZM62.56,85.8H67.1c2.142,0,4.883,0,7.282-1.8a8.525,8.525,0,0,0,3.085-6.682,7.873,7.873,0,0,0-3.17-6.512c-2.314-1.626-5.227-1.8-7.883-1.8H62.56Z" transform="translate(20.794 24.026)" fill="#fff"/>
        <path id="패스_12545" data-name="패스 12545" d="M104.935,69.01v47.548H93.8V69.01H80.946v-9.6h36.84v9.6Z" transform="translate(32.734 24.026)" fill="#fff"/>
        <rect id="사각형_2357" data-name="사각형 2357" width="11.138" height="57.145" transform="translate(157.369 83.44)" fill="#fff"/>
        <path id="패스_12546" data-name="패스 12546" d="M137.441,59.414h8.053L160.658,95.74l15.85-36.326h8.053l9.6,57.145h-11.31l-5.14-35.212-15.336,35.212H158.6L143.952,81.346l-5.825,35.212h-11.31Z" transform="translate(51.283 24.026)" fill="#fff"/>
        <path id="패스_12547" data-name="패스 12547" d="M218.786,104.565H195.74l-5.054,11.993H178.6l24.588-57.145h8.74l23.9,57.145H223.84Zm-3.255-9.082-8.138-20.562-8.14,20.562Z" transform="translate(72.226 24.026)" fill="#fff"/>
        <path id="패스_12548" data-name="패스 12548" d="M235.25,59.414v47.548H252.9v9.6H224.112V59.414Z" transform="translate(90.628 24.026)" fill="#fff"/>
        <path id="패스_12549" data-name="패스 12549" d="M31.7,132.22a11.163,11.163,0,0,0-9.338-4.883c-6,0-7.883,3.769-7.883,6.682a4.813,4.813,0,0,0,1.8,3.855c1.371,1.285,3.255,1.972,6.853,3.257,4.456,1.542,8.654,3.084,11.567,5.74,2.57,2.313,4.883,6.168,4.883,11.995,0,11.137-8.053,18.763-19.876,18.763C9.168,177.628,3,171.2,0,166.832l7.283-6.939a13.4,13.4,0,0,0,11.993,7.624c5.054,0,8.824-3.084,8.824-7.883a6.637,6.637,0,0,0-2.226-5.14c-2.142-1.97-5.57-3.084-8.825-4.2a27.511,27.511,0,0,1-9.511-4.969C5.655,143.7,3,140.53,3,134.7c0-8.4,5.655-16.792,18.334-16.792A21.973,21.973,0,0,1,37.525,124.6Z" transform="translate(0 47.682)" fill="#fff"/>
        <path id="패스_12550" data-name="패스 12550" d="M66.9,128.424H46.335v12.764h19.7v9.6h-19.7v15.593H66.9v9.595H35.2V118.828H66.9Z" transform="translate(14.233 48.052)" fill="#fff"/>
        <path id="패스_12551" data-name="패스 12551" d="M82.536,118.828c7.883,0,11.909,2.056,14.565,4.283a16.23,16.23,0,0,1,5.654,12.852c0,5.568-2.227,10.453-6.682,13.45a15.816,15.816,0,0,1-6.254,2.486l17.82,24.074H93.76l-15.25-22.96H77.139v22.96H66V118.828Zm-5.4,26.3h3.17c2.142,0,10.967-.257,10.967-8.652,0-8.482-8.74-8.568-10.8-8.568H77.139Z" transform="translate(26.69 48.053)" fill="#fff"/>
        <rect id="사각형_2358" data-name="사각형 2358" width="11.138" height="57.145" transform="translate(141.435 166.881)" fill="#fff"/>
        <path id="패스_12552" data-name="패스 12552" d="M149.672,128.424H129.11v12.764h19.7v9.6h-19.7v15.593h20.562v9.595h-31.7V118.828h31.7Z" transform="translate(47.707 48.052)" fill="#fff"/>
        <path id="패스_12553" data-name="패스 12553" d="M177.182,132.22a11.163,11.163,0,0,0-9.338-4.883c-6,0-7.883,3.769-7.883,6.682a4.813,4.813,0,0,0,1.8,3.855c1.371,1.285,3.255,1.972,6.853,3.257,4.456,1.542,8.654,3.084,11.567,5.74,2.57,2.313,4.883,6.168,4.883,11.995,0,11.137-8.053,18.763-19.876,18.763-10.537,0-16.707-6.426-19.7-10.8l7.283-6.939a13.4,13.4,0,0,0,11.993,7.624c5.054,0,8.824-3.084,8.824-7.883a6.637,6.637,0,0,0-2.226-5.14c-2.142-1.97-5.57-3.084-8.825-4.2a27.511,27.511,0,0,1-9.51-4.969c-1.883-1.628-4.54-4.8-4.54-10.624,0-8.4,5.655-16.792,18.334-16.792a21.973,21.973,0,0,1,16.193,6.683Z" transform="translate(58.831 47.682)" fill="#fff"/>
        <path id="패스_12554" data-name="패스 12554" d="M183.9,122.754v14.092h-3.941V122.754h-3.8v-3.522H187.7v3.522Zm4.4,14.092,3.153-17.938h2.873l4.31,10.707,4.543-10.707h2.873l2.827,17.938h-3.939l-1.344-9.687-4.172,9.919h-1.576l-4.078-9.919-1.529,9.687Z" transform="translate(71.238 48.085)" fill="#fff"/>
      </g>
    </g>
  </g>
</svg>
