<svg xmlns="http://www.w3.org/2000/svg" xmlns:xlink="http://www.w3.org/1999/xlink" width="210.463" height="200" viewBox="0 0 210.463 200">
  <defs>
    <linearGradient id="linear-gradient" x1="0.035" x2="0.969" y2="0.971" gradientUnits="objectBoundingBox">
      <stop offset="0" stop-color="#3d73b4"/>
      <stop offset="1" stop-color="#010339"/>
    </linearGradient>
    <linearGradient id="linear-gradient-2" x1="0.5" x2="0.5" y2="1" gradientUnits="objectBoundingBox">
      <stop offset="0" stop-color="#fa1d1d"/>
      <stop offset="1" stop-color="#e00606"/>
    </linearGradient>
    <filter id="합치기_12" x="74.88" y="33.792" width="135.583" height="151.374" filterUnits="userSpaceOnUse">
      <feOffset dx="10" dy="10" input="SourceAlpha"/>
      <feGaussianBlur stdDeviation="10" result="blur"/>
      <feFlood flood-opacity="0.251"/>
      <feComposite operator="in" in2="blur"/>
      <feComposite in="SourceGraphic"/>
    </filter>
    <filter id="패스_13614" x="10" y="30" width="160" height="160" filterUnits="userSpaceOnUse">
      <feOffset dx="10" dy="10" input="SourceAlpha"/>
      <feGaussianBlur stdDeviation="10" result="blur-2"/>
      <feFlood/>
      <feComposite operator="in" in2="blur-2"/>
      <feComposite in="SourceGraphic"/>
    </filter>
    <linearGradient id="linear-gradient-3" x1="0.5" x2="0.5" y2="1" gradientUnits="objectBoundingBox">
      <stop offset="0" stop-color="#fff"/>
      <stop offset="1" stop-color="#f7debf"/>
    </linearGradient>
    <filter id="패스_13611" x="59.71" y="68.341" width="42.532" height="71.776" filterUnits="userSpaceOnUse">
      <feOffset dy="3" input="SourceAlpha"/>
      <feGaussianBlur stdDeviation="1.5" result="blur-3"/>
      <feFlood flood-color="#fc0808" flood-opacity="0.251"/>
      <feComposite operator="in" in2="blur-3"/>
      <feComposite in="SourceGraphic"/>
    </filter>
  </defs>
  <g id="icon_03_b" transform="translate(-1023 -797)">
    <g id="패스_13618" data-name="패스 13618" transform="translate(1023 797)" fill="url(#linear-gradient)">
      <path d="M46,0H154a46,46,0,0,1,46,46V154a46,46,0,0,1-46,46H46A46,46,0,0,1,0,154V46A46,46,0,0,1,46,0Z" stroke="none"/>
      <path d="M 46 1 C 39.92460632324219 1 34.03144836425781 2.189651489257812 28.48426818847656 4.535919189453125 C 23.12580871582031 6.802337646484375 18.313232421875 10.04716491699219 14.18019104003906 14.18019104003906 C 10.04716491699219 18.313232421875 6.802337646484375 23.12580871582031 4.535919189453125 28.48426818847656 C 2.189651489257812 34.03144836425781 1 39.92460632324219 1 46 L 1 154 C 1 160.0753936767578 2.189651489257812 165.9685516357422 4.535919189453125 171.5157318115234 C 6.802337646484375 176.8741760253906 10.04716491699219 181.686767578125 14.18019104003906 185.8198089599609 C 18.313232421875 189.9528350830078 23.12580871582031 193.1976623535156 28.48426818847656 195.4640808105469 C 34.03144836425781 197.8103485107422 39.92460632324219 199 46 199 L 154 199 C 160.0753936767578 199 165.9685516357422 197.8103485107422 171.5157318115234 195.4640808105469 C 176.8741760253906 193.1976623535156 181.686767578125 189.9528350830078 185.8198089599609 185.8198089599609 C 189.9528350830078 181.686767578125 193.1976623535156 176.8741760253906 195.4640808105469 171.5157318115234 C 197.8103485107422 165.9685516357422 199 160.0753936767578 199 154 L 199 46 C 199 39.92460632324219 197.8103485107422 34.03144836425781 195.4640808105469 28.48426818847656 C 193.1976623535156 23.12580871582031 189.9528350830078 18.313232421875 185.8198089599609 14.18019104003906 C 181.686767578125 10.04716491699219 176.8741760253906 6.802337646484375 171.5157318115234 4.535919189453125 C 165.9685516357422 2.189651489257812 160.0753936767578 1 154 1 L 46 1 M 46 0 L 154 0 C 179.4051055908203 0 200 20.59489440917969 200 46 L 200 154 C 200 179.4051055908203 179.4051055908203 200 154 200 L 46 200 C 20.59489440917969 200 0 179.4051055908203 0 154 L 0 46 C 0 20.59489440917969 20.59489440917969 0 46 0 Z" stroke="none" fill="rgba(144,212,255,0.25)"/>
    </g>
    <g id="그룹_7018" data-name="그룹 7018" transform="translate(12.954 398.603)">
      <g transform="matrix(1, 0, 0, 1, 1010.05, 398.4)" filter="url(#합치기_12)">
        <path id="합치기_12-2" data-name="합치기 12" d="M-2594.581-6816.8a12,12,0,0,1-12-12v-28.149h-10.307a8,8,0,0,1-6.11-13.164l29.775-35.224a8,8,0,0,1,12.219,0l29.776,35.224a8,8,0,0,1-6.109,13.164h-10.307v28.149a12,12,0,0,1-12,12Z" transform="translate(2719.78 6961.97)" fill="url(#linear-gradient-2)"/>
      </g>
      <g transform="matrix(1, 0, 0, 1, 1010.05, 398.4)" filter="url(#패스_13614)">
        <g id="패스_13614-2" data-name="패스 13614" transform="translate(30 50)" fill="#ff6334">
          <path d="M50,0A50,50,0,1,1,0,50,50,50,0,0,1,50,0Z" stroke="none"/>
          <path d="M 50 1 C 43.38460159301758 1 36.96761322021484 2.29541015625 30.92729187011719 4.850250244140625 C 25.09253692626953 7.318145751953125 19.85215759277344 10.85137176513672 15.35177612304688 15.35177612304688 C 10.85137176513672 19.85215759277344 7.318145751953125 25.09253692626953 4.850250244140625 30.92729187011719 C 2.29541015625 36.96761322021484 1 43.38460159301758 1 50 C 1 56.61539840698242 2.29541015625 63.03238677978516 4.850250244140625 69.07270812988281 C 7.318145751953125 74.907470703125 10.85137176513672 80.14784240722656 15.35177612304688 84.64822387695312 C 19.85215759277344 89.14862823486328 25.09253692626953 92.68185424804688 30.92729187011719 95.14974975585938 C 36.96761322021484 97.70458984375 43.38460159301758 99 50 99 C 56.61539840698242 99 63.03238677978516 97.70458984375 69.07270812988281 95.14974975585938 C 74.907470703125 92.68185424804688 80.14784240722656 89.14862823486328 84.64822387695312 84.64822387695312 C 89.14862823486328 80.14784240722656 92.68185424804688 74.907470703125 95.14974975585938 69.07270812988281 C 97.70458984375 63.03238677978516 99 56.61539840698242 99 50 C 99 43.38460159301758 97.70458984375 36.96761322021484 95.14974975585938 30.92729187011719 C 92.68185424804688 25.09253692626953 89.14862823486328 19.85215759277344 84.64822387695312 15.35177612304688 C 80.14784240722656 10.85137176513672 74.907470703125 7.318145751953125 69.07270812988281 4.850250244140625 C 63.03238677978516 2.29541015625 56.61539840698242 1 50 1 M 50 0 C 77.61424255371094 0 100 22.38575744628906 100 50 C 100 77.61424255371094 77.61424255371094 100 50 100 C 22.38575744628906 100 0 77.61424255371094 0 50 C 0 22.38575744628906 22.38575744628906 0 50 0 Z" stroke="none" fill="rgba(255,255,255,0.1)"/>
        </g>
      </g>
      <g transform="matrix(1, 0, 0, 1, 1010.05, 398.4)" filter="url(#패스_13611)">
        <path id="패스_13611-2" data-name="패스 13611" d="M2.409-50.952A2.429,2.429,0,0,0-.1-53.262a2.5,2.5,0,0,0-2.442,2.31v5.082c-7.656.858-13.4,6.072-13.4,13.464,0,4.092,1.716,9.834,11.748,12.936l5.478,1.518c4.62,1.32,5.544,3.1,5.478,5.148C6.7-9.834,3.993-7.986.1-7.986a7.706,7.706,0,0,1-7.326-4.29,4.707,4.707,0,0,0-5.94-2.31,4.241,4.241,0,0,0-2.574,5.412C-14.025-3.96-9.207-.264-2.541.462V6.2A2.457,2.457,0,0,0-.1,8.514,2.429,2.429,0,0,0,2.409,6.2V.462C9.6-.264,16.335-4.554,16.467-12.738,16.6-17.094,15.015-23.3,3.993-26.466L-1.419-28.05C-5.841-29.3-6.3-31.482-6.3-32.67c0-2.706,2.508-4.686,5.874-4.686a8.035,8.035,0,0,1,6.468,3.168c1.584,1.98,3.7,2.64,6.072,1.122a4,4,0,0,0,1.452-5.346A14.138,14.138,0,0,0,2.409-45.8Z" transform="translate(80.77 123.6)" stroke="rgba(255,255,255,0.5)" stroke-width="1" fill="url(#linear-gradient-3)"/>
      </g>
    </g>
  </g>
</svg>
