<svg xmlns="http://www.w3.org/2000/svg" xmlns:xlink="http://www.w3.org/1999/xlink" width="211.501" height="200" viewBox="0 0 211.501 200">
  <defs>
    <linearGradient id="linear-gradient" x1="0.035" x2="0.969" y2="0.971" gradientUnits="objectBoundingBox">
      <stop offset="0" stop-color="#3d73b4"/>
      <stop offset="1" stop-color="#010339"/>
    </linearGradient>
    <linearGradient id="linear-gradient-2" x1="0.5" x2="0.5" y2="1" gradientUnits="objectBoundingBox">
      <stop offset="0" stop-color="#48ffff"/>
      <stop offset="1" stop-color="#0091bc"/>
    </linearGradient>
    <filter id="합치기_13" x="66.5" y="36.282" width="145.001" height="150.247" filterUnits="userSpaceOnUse">
      <feOffset dx="10" dy="10" input="SourceAlpha"/>
      <feGaussianBlur stdDeviation="10" result="blur"/>
      <feFlood flood-opacity="0.251"/>
      <feComposite operator="in" in2="blur"/>
      <feComposite in="SourceGraphic"/>
    </filter>
    <filter id="사각형_4047" x="9" y="30" width="160" height="160" filterUnits="userSpaceOnUse">
      <feOffset dx="10" dy="10" input="SourceAlpha"/>
      <feGaussianBlur stdDeviation="10" result="blur-2"/>
      <feFlood/>
      <feComposite operator="in" in2="blur-2"/>
      <feComposite in="SourceGraphic"/>
    </filter>
    <linearGradient id="linear-gradient-3" x1="0.5" x2="0.5" y2="1" gradientUnits="objectBoundingBox">
      <stop offset="0" stop-color="#fff"/>
      <stop offset="1" stop-color="#ace6f4"/>
    </linearGradient>
    <filter id="타원_409" x="37.982" y="81.982" width="42.036" height="42.036" filterUnits="userSpaceOnUse">
      <feOffset dy="3" input="SourceAlpha"/>
      <feGaussianBlur stdDeviation="5" result="blur-3"/>
      <feFlood flood-color="#00ced6" flood-opacity="0.502"/>
      <feComposite operator="in" in2="blur-3"/>
      <feComposite in="SourceGraphic"/>
    </filter>
    <filter id="타원_410" x="57.982" y="81.982" width="42.036" height="42.036" filterUnits="userSpaceOnUse">
      <feOffset dy="3" input="SourceAlpha"/>
      <feGaussianBlur stdDeviation="5" result="blur-4"/>
      <feFlood flood-color="#00ced6" flood-opacity="0.502"/>
      <feComposite operator="in" in2="blur-4"/>
      <feComposite in="SourceGraphic"/>
    </filter>
    <filter id="타원_411" x="77.982" y="81.982" width="42.036" height="42.036" filterUnits="userSpaceOnUse">
      <feOffset dy="3" input="SourceAlpha"/>
      <feGaussianBlur stdDeviation="5" result="blur-5"/>
      <feFlood flood-color="#00ced6" flood-opacity="0.502"/>
      <feComposite operator="in" in2="blur-5"/>
      <feComposite in="SourceGraphic"/>
    </filter>
  </defs>
  <g id="icon_02_b" transform="translate(-698 -797)">
    <g id="패스_13617" data-name="패스 13617" transform="translate(698 797)" fill="url(#linear-gradient)">
      <path d="M46,0H154a46,46,0,0,1,46,46V154a46,46,0,0,1-46,46H46A46,46,0,0,1,0,154V46A46,46,0,0,1,46,0Z" stroke="none"/>
      <path d="M 46 1 C 39.92460632324219 1 34.03144836425781 2.189651489257812 28.48426818847656 4.535919189453125 C 23.12580871582031 6.802337646484375 18.313232421875 10.04716491699219 14.18019104003906 14.18019104003906 C 10.04716491699219 18.313232421875 6.802337646484375 23.12580871582031 4.535919189453125 28.48426818847656 C 2.189651489257812 34.03144836425781 1 39.92460632324219 1 46 L 1 154 C 1 160.0753936767578 2.189651489257812 165.9685516357422 4.535919189453125 171.5157318115234 C 6.802337646484375 176.8741760253906 10.04716491699219 181.686767578125 14.18019104003906 185.8198089599609 C 18.313232421875 189.9528350830078 23.12580871582031 193.1976623535156 28.48426818847656 195.4640808105469 C 34.03144836425781 197.8103485107422 39.92460632324219 199 46 199 L 154 199 C 160.0753936767578 199 165.9685516357422 197.8103485107422 171.5157318115234 195.4640808105469 C 176.8741760253906 193.1976623535156 181.686767578125 189.9528350830078 185.8198089599609 185.8198089599609 C 189.9528350830078 181.686767578125 193.1976623535156 176.8741760253906 195.4640808105469 171.5157318115234 C 197.8103485107422 165.9685516357422 199 160.0753936767578 199 154 L 199 46 C 199 39.92460632324219 197.8103485107422 34.03144836425781 195.4640808105469 28.48426818847656 C 193.1976623535156 23.12580871582031 189.9528350830078 18.313232421875 185.8198089599609 14.18019104003906 C 181.686767578125 10.04716491699219 176.8741760253906 6.802337646484375 171.5157318115234 4.535919189453125 C 165.9685516357422 2.189651489257812 160.0753936767578 1 154 1 L 46 1 M 46 0 L 154 0 C 179.4051055908203 0 200 20.59489440917969 200 46 L 200 154 C 200 179.4051055908203 179.4051055908203 200 154 200 L 46 200 C 20.59489440917969 200 0 179.4051055908203 0 154 L 0 46 C 0 20.59489440917969 20.59489440917969 0 46 0 Z" stroke="none" fill="rgba(144,212,255,0.25)"/>
    </g>
    <g id="그룹_7017" data-name="그룹 7017" transform="translate(-133.929 394.514)">
      <g transform="matrix(1, 0, 0, 1, 831.93, 402.49)" filter="url(#합치기_13)">
        <path id="합치기_13-2" data-name="합치기 13" d="M-2590.621-6821.632l-4.367-4.367H-2610a21,21,0,0,1-21-21v-43a21,21,0,0,1,21-21h43a21,21,0,0,1,21,21v43a21,21,0,0,1-21,21h-15.012l-4.367,4.367a2.993,2.993,0,0,1-2.122.878A2.989,2.989,0,0,1-2590.621-6821.632Z" transform="translate(2717.5 6967.28)" fill="url(#linear-gradient-2)"/>
      </g>
      <g transform="matrix(1, 0, 0, 1, 831.93, 402.49)" filter="url(#사각형_4047)">
        <g id="사각형_4047-2" data-name="사각형 4047" transform="translate(29 50)" fill="#40f3f7" stroke="rgba(255,255,255,0.1)" stroke-width="1">
          <rect width="100" height="100" rx="50" stroke="none"/>
          <rect x="0.5" y="0.5" width="99" height="99" rx="49.5" fill="none"/>
        </g>
      </g>
      <g transform="matrix(1, 0, 0, 1, 831.93, 402.49)" filter="url(#타원_409)">
        <g id="타원_409-2" data-name="타원 409" transform="translate(52.98 93.98)" stroke="rgba(255,255,255,0.5)" stroke-width="1" fill="url(#linear-gradient-3)">
          <circle cx="6.018" cy="6.018" r="6.018" stroke="none"/>
          <circle cx="6.018" cy="6.018" r="5.518" fill="none"/>
        </g>
      </g>
      <g transform="matrix(1, 0, 0, 1, 831.93, 402.49)" filter="url(#타원_410)">
        <g id="타원_410-2" data-name="타원 410" transform="translate(72.98 93.98)" stroke="rgba(255,255,255,0.5)" stroke-width="1" fill="url(#linear-gradient-3)">
          <circle cx="6.018" cy="6.018" r="6.018" stroke="none"/>
          <circle cx="6.018" cy="6.018" r="5.518" fill="none"/>
        </g>
      </g>
      <g transform="matrix(1, 0, 0, 1, 831.93, 402.49)" filter="url(#타원_411)">
        <g id="타원_411-2" data-name="타원 411" transform="translate(92.98 93.98)" stroke="rgba(255,255,255,0.5)" stroke-width="1" fill="url(#linear-gradient-3)">
          <circle cx="6.018" cy="6.018" r="6.018" stroke="none"/>
          <circle cx="6.018" cy="6.018" r="5.518" fill="none"/>
        </g>
      </g>
    </g>
  </g>
</svg>
