<svg xmlns="http://www.w3.org/2000/svg" width="18" height="17" viewBox="0 0 18 17">
  <g id="lock" transform="translate(-1867 1308)">
    <rect id="사각형_3867" data-name="사각형 3867" width="18" height="17" transform="translate(1867 -1308)" fill="#fff" opacity="0.003"/>
    <path id="패스_12566" data-name="패스 12566" d="M4.669,3.968h7.5a1.833,1.833,0,0,0,1.382-.485,2.047,2.047,0,0,0,.468-1.471V-3.648a2.034,2.034,0,0,0-.468-1.458A1.825,1.825,0,0,0,12.17-5.6h-7.5A1.814,1.814,0,0,0,3.3-5.106a2.033,2.033,0,0,0-.468,1.458V2.012A2.045,2.045,0,0,0,3.3,3.483,1.822,1.822,0,0,0,4.669,3.968Zm.152-1.337a.511.511,0,0,1-.4-.158.654.654,0,0,1-.142-.452V-3.657A.621.621,0,0,1,4.42-4.1a.526.526,0,0,1,.4-.149h7.213a.513.513,0,0,1,.4.149.634.634,0,0,1,.137.443V2.022a.667.667,0,0,1-.137.452.5.5,0,0,1-.4.158ZM4.28-4.941H5.686V-7.666A3.356,3.356,0,0,1,6.063-9.32a2.556,2.556,0,0,1,1-1.02,2.752,2.752,0,0,1,1.358-.346,2.766,2.766,0,0,1,1.365.346,2.584,2.584,0,0,1,1,1.02,3.325,3.325,0,0,1,.38,1.654v2.725h1.406V-7.51a4.915,4.915,0,0,0-.586-2.511,3.861,3.861,0,0,0-1.535-1.507,4.273,4.273,0,0,0-2.033-.5,4.257,4.257,0,0,0-2.026.5,3.837,3.837,0,0,0-1.531,1.507A4.941,4.941,0,0,0,4.281-7.51Z" transform="translate(1867.638 -1295.468)" fill="#fff"/>
  </g>
</svg>
