<svg id="logout_over" xmlns="http://www.w3.org/2000/svg" width="80" height="30" viewBox="0 0 80 30">
  <rect id="사각형_3681" data-name="사각형 3681" width="80" height="30" rx="8" fill="#fff" opacity="0.2"/>
  <path id="패스_13559" data-name="패스 13559" d="M.9-9.282V0H7.462V-1.716H2.938V-9.282Zm9.152,5.928a4.034,4.034,0,0,1,.078-.793,2.023,2.023,0,0,1,.267-.689,1.5,1.5,0,0,1,.5-.488,1.486,1.486,0,0,1,.78-.188,1.521,1.521,0,0,1,.787.188,1.478,1.478,0,0,1,.507.488,2.023,2.023,0,0,1,.266.689,4.034,4.034,0,0,1,.078.793,3.936,3.936,0,0,1-.078.786,2.1,2.1,0,0,1-.266.689,1.4,1.4,0,0,1-.507.487,1.564,1.564,0,0,1-.787.182,1.528,1.528,0,0,1-.78-.182,1.419,1.419,0,0,1-.5-.487,2.1,2.1,0,0,1-.267-.689A3.936,3.936,0,0,1,10.049-3.354Zm-1.846,0A4.073,4.073,0,0,0,8.45-1.9a3.159,3.159,0,0,0,.7,1.112,3.071,3.071,0,0,0,1.092.708,3.929,3.929,0,0,0,1.43.247,3.981,3.981,0,0,0,1.437-.247,3.059,3.059,0,0,0,1.1-.708,3.158,3.158,0,0,0,.7-1.112,4.073,4.073,0,0,0,.247-1.456,4.126,4.126,0,0,0-.247-1.463,3.147,3.147,0,0,0-.7-1.118,3.133,3.133,0,0,0-1.1-.715A3.89,3.89,0,0,0,11.674-6.9a3.839,3.839,0,0,0-1.43.254,3.146,3.146,0,0,0-1.092.715,3.147,3.147,0,0,0-.7,1.118A4.126,4.126,0,0,0,8.2-3.354ZM19.487-1.586a1.307,1.307,0,0,1-.715-.182,1.443,1.443,0,0,1-.461-.468,1.95,1.95,0,0,1-.247-.643,3.67,3.67,0,0,1-.071-.722,3.019,3.019,0,0,1,.084-.722,1.781,1.781,0,0,1,.273-.611,1.408,1.408,0,0,1,.468-.423,1.353,1.353,0,0,1,.669-.156,1.517,1.517,0,0,1,.754.169,1.346,1.346,0,0,1,.481.455,1.965,1.965,0,0,1,.26.656,3.812,3.812,0,0,1,.078.787,2.452,2.452,0,0,1-.1.7,1.843,1.843,0,0,1-.292.592,1.441,1.441,0,0,1-.494.416A1.468,1.468,0,0,1,19.487-1.586ZM22.815-.429V-6.721H21.06v.9h-.026a2.008,2.008,0,0,0-.839-.832A2.6,2.6,0,0,0,19.032-6.9a2.713,2.713,0,0,0-1.241.273,2.67,2.67,0,0,0-.9.734,3.279,3.279,0,0,0-.552,1.066,4.189,4.189,0,0,0-.189,1.254,5.115,5.115,0,0,0,.163,1.306,3.037,3.037,0,0,0,.514,1.079,2.467,2.467,0,0,0,.9.728,2.936,2.936,0,0,0,1.3.267,2.758,2.758,0,0,0,1.163-.253,1.828,1.828,0,0,0,.851-.787h.026v.884A1.835,1.835,0,0,1,20.715.832a1.34,1.34,0,0,1-1.137.468,1.82,1.82,0,0,1-.871-.2A1.053,1.053,0,0,1,18.2.377H16.367a1.941,1.941,0,0,0,.319.982,2.3,2.3,0,0,0,.7.67,3.2,3.2,0,0,0,.936.383,4.3,4.3,0,0,0,1.007.123,4.54,4.54,0,0,0,1.846-.312,2.827,2.827,0,0,0,1.053-.761A2.276,2.276,0,0,0,22.7.494,4.5,4.5,0,0,0,22.815-.429Zm3.12-2.925a4.034,4.034,0,0,1,.078-.793,2.023,2.023,0,0,1,.267-.689,1.5,1.5,0,0,1,.5-.488,1.486,1.486,0,0,1,.78-.188,1.521,1.521,0,0,1,.787.188,1.478,1.478,0,0,1,.507.488,2.023,2.023,0,0,1,.266.689,4.034,4.034,0,0,1,.078.793,3.936,3.936,0,0,1-.078.786,2.1,2.1,0,0,1-.266.689,1.4,1.4,0,0,1-.507.487,1.564,1.564,0,0,1-.787.182,1.528,1.528,0,0,1-.78-.182,1.419,1.419,0,0,1-.5-.487,2.1,2.1,0,0,1-.267-.689A3.936,3.936,0,0,1,25.935-3.354Zm-1.846,0A4.073,4.073,0,0,0,24.336-1.9a3.159,3.159,0,0,0,.7,1.112,3.071,3.071,0,0,0,1.092.708,3.929,3.929,0,0,0,1.43.247A3.981,3.981,0,0,0,29-.078a3.059,3.059,0,0,0,1.1-.708A3.159,3.159,0,0,0,30.8-1.9a4.073,4.073,0,0,0,.247-1.456A4.126,4.126,0,0,0,30.8-4.817a3.147,3.147,0,0,0-.7-1.118A3.133,3.133,0,0,0,29-6.649,3.89,3.89,0,0,0,27.56-6.9a3.839,3.839,0,0,0-1.43.254,3.146,3.146,0,0,0-1.092.715,3.147,3.147,0,0,0-.7,1.118A4.126,4.126,0,0,0,24.089-3.354ZM38.545,0V-6.721H36.7V-3.2a2.493,2.493,0,0,1-.338,1.476,1.279,1.279,0,0,1-1.092.448,1.007,1.007,0,0,1-.923-.41,2.355,2.355,0,0,1-.26-1.241v-3.8H32.24v4.134a5.417,5.417,0,0,0,.111,1.137,2.163,2.163,0,0,0,.383.871,1.754,1.754,0,0,0,.747.553,3.229,3.229,0,0,0,1.215.2,2.686,2.686,0,0,0,1.144-.26,2.077,2.077,0,0,0,.91-.845h.039V0Zm3.744-6.721V-8.736H40.443v2.015H39.325v1.235h1.118v3.965a1.717,1.717,0,0,0,.169.819,1.2,1.2,0,0,0,.461.481,1.916,1.916,0,0,0,.676.228,5.389,5.389,0,0,0,.813.058q.273,0,.559-.013A4.393,4.393,0,0,0,43.641,0V-1.43a2.586,2.586,0,0,1-.273.039q-.143.013-.3.013a.9.9,0,0,1-.624-.156.9.9,0,0,1-.156-.624V-5.486h1.352V-6.721Z" transform="translate(26 20)" fill="#fff"/>
  <path id="패스_12566" data-name="패스 12566" d="M4.669,3.968h7.5a1.833,1.833,0,0,0,1.382-.485,2.047,2.047,0,0,0,.468-1.471V-3.648a2.034,2.034,0,0,0-.468-1.458A1.825,1.825,0,0,0,12.17-5.6h-7.5A1.814,1.814,0,0,0,3.3-5.106a2.033,2.033,0,0,0-.468,1.458V2.012A2.045,2.045,0,0,0,3.3,3.483,1.822,1.822,0,0,0,4.669,3.968Zm.152-1.337a.511.511,0,0,1-.4-.158.654.654,0,0,1-.142-.452V-3.657A.621.621,0,0,1,4.42-4.1a.526.526,0,0,1,.4-.149h7.213a.513.513,0,0,1,.4.149.634.634,0,0,1,.137.443V2.022a.667.667,0,0,1-.137.452.5.5,0,0,1-.4.158ZM4.28-4.941H5.686V-7.666A3.356,3.356,0,0,1,6.063-9.32a2.556,2.556,0,0,1,1-1.02,2.752,2.752,0,0,1,1.358-.346,2.766,2.766,0,0,1,1.365.346,2.584,2.584,0,0,1,1,1.02,3.325,3.325,0,0,1,.38,1.654v2.725h1.406V-7.51a4.915,4.915,0,0,0-.586-2.511,3.861,3.861,0,0,0-1.535-1.507,4.273,4.273,0,0,0-2.033-.5,4.257,4.257,0,0,0-2.026.5,3.837,3.837,0,0,0-1.531,1.507A4.941,4.941,0,0,0,4.281-7.51Z" transform="translate(5.638 19.032)" fill="#fff"/>
</svg>
