<svg xmlns="http://www.w3.org/2000/svg" xmlns:xlink="http://www.w3.org/1999/xlink" width="175" height="115" viewBox="0 0 175 115">
  <defs>
    <linearGradient id="linear-gradient" x1="0.966" y1="0.132" x2="0.101" y2="0.899" gradientUnits="objectBoundingBox">
      <stop offset="0" stop-color="#ffba60"/>
      <stop offset="1" stop-color="#ff9000"/>
    </linearGradient>
    <linearGradient id="linear-gradient-2" x1="0.5" x2="0.5" y2="1.373" gradientUnits="objectBoundingBox">
      <stop offset="0" stop-color="#fff"/>
      <stop offset="1" stop-color="#fad4a4"/>
    </linearGradient>
    <filter id="합치기_14" x="31.565" y="38.637" width="66.001" height="43.001" filterUnits="userSpaceOnUse">
      <feOffset dy="3" input="SourceAlpha"/>
      <feGaussianBlur stdDeviation="1.5" result="blur"/>
      <feFlood flood-color="#ff9d00" flood-opacity="0.396"/>
      <feComposite operator="in" in2="blur"/>
      <feComposite in="SourceGraphic"/>
    </filter>
  </defs>
  <g id="icon_04" transform="translate(-1358 -96)">
    <rect id="사각형_4070" data-name="사각형 4070" width="175" height="115" transform="translate(1358 96)" fill="#fff" opacity="0"/>
    <g id="그룹_7027" data-name="그룹 7027" transform="translate(175 -320)">
      <g id="그룹_7019" data-name="그룹 7019" transform="translate(-68.934 -28.35)">
        <path id="패스_13612" data-name="패스 13612" d="M18,0H61.39a18,18,0,0,1,18,18V61.39a18,18,0,0,1-18,18H18a18,18,0,0,1-18-18V18A18,18,0,0,1,18,0Z" transform="translate(1308.863 502.487) rotate(-45)" fill="url(#linear-gradient)"/>
        <g id="사각형_4054" data-name="사각형 4054" transform="translate(1264.934 452.602)" fill="#ffba00" stroke="rgba(255,255,255,0.33)" stroke-width="1">
          <rect width="100" height="100" rx="50" stroke="none"/>
          <rect x="0.5" y="0.5" width="99" height="99" rx="49.5" fill="none"/>
        </g>
        <g transform="matrix(1, 0, 0, 1, 1251.93, 444.35)" filter="url(#합치기_14)">
          <g id="합치기_14-2" data-name="합치기 14" transform="translate(2667.07 6951.14)" fill="url(#linear-gradient-2)">
            <path d="M-2618.514-6877v0l-.271,0A12.491,12.491,0,0,1-2631-6889.75a12.491,12.491,0,0,1,12.215-12.749,11.723,11.723,0,0,1,3.286.467,16.2,16.2,0,0,1,14.357-8.968c8.316,0,15.176,6.505,16.164,14.907a8.884,8.884,0,0,1,1.75-.173,9.437,9.437,0,0,1,9.229,9.633,9.438,9.438,0,0,1-9.229,9.634Z" stroke="none"/>
            <path d="M -2583.228759765625 -6877.9990234375 C -2578.691162109375 -6877.9990234375 -2574.99951171875 -6881.8720703125 -2574.99951171875 -6886.6328125 C -2574.99951171875 -6891.39306640625 -2578.691162109375 -6895.26611328125 -2583.228759765625 -6895.26611328125 C -2583.751220703125 -6895.26611328125 -2584.27392578125 -6895.21435546875 -2584.7822265625 -6895.1123046875 L -2585.845458984375 -6894.89892578125 L -2585.97216796875 -6895.97607421875 C -2586.91259765625 -6903.97119140625 -2593.4345703125 -6910 -2601.142822265625 -6910 C -2606.7763671875 -6910 -2611.93701171875 -6906.771484375 -2614.610595703125 -6901.57470703125 L -2614.98779296875 -6900.84130859375 L -2615.779541015625 -6901.072265625 C -2616.75146484375 -6901.35546875 -2617.7626953125 -6901.4990234375 -2618.78564453125 -6901.4990234375 C -2621.773193359375 -6901.4990234375 -2624.583984375 -6900.2822265625 -2626.70068359375 -6898.0732421875 C -2628.82861328125 -6895.85205078125 -2630.00048828125 -6892.896484375 -2630.00048828125 -6889.75 C -2630.00048828125 -6886.60302734375 -2628.82861328125 -6883.646484375 -2626.70068359375 -6881.42529296875 C -2624.583984375 -6879.2158203125 -2621.773193359375 -6877.9990234375 -2618.78564453125 -6877.9990234375 C -2618.702392578125 -6877.9990234375 -2618.618896484375 -6878 -2618.5361328125 -6878.001953125 L -2617.514404296875 -6878.02099609375 L -2617.514404296875 -6877.9990234375 L -2583.228759765625 -6877.9990234375 M -2583.228759765625 -6876.9990234375 L -2618.514404296875 -6876.9990234375 L -2618.514404296875 -6877.001953125 C -2618.6044921875 -6877 -2618.695068359375 -6876.9990234375 -2618.78564453125 -6876.9990234375 C -2625.53173828125 -6876.9990234375 -2631.00048828125 -6882.70751953125 -2631.00048828125 -6889.75 C -2631.00048828125 -6896.791015625 -2625.53173828125 -6902.4990234375 -2618.78564453125 -6902.4990234375 C -2617.647216796875 -6902.4990234375 -2616.545166015625 -6902.3369140625 -2615.499755859375 -6902.0322265625 C -2612.753173828125 -6907.37109375 -2607.354248046875 -6911 -2601.142822265625 -6911 C -2592.8271484375 -6911 -2585.96728515625 -6904.49462890625 -2584.97900390625 -6896.0927734375 C -2584.412353515625 -6896.20654296875 -2583.8271484375 -6896.26611328125 -2583.228759765625 -6896.26611328125 C -2578.131103515625 -6896.26611328125 -2573.99951171875 -6891.953125 -2573.99951171875 -6886.6328125 C -2573.99951171875 -6881.31298828125 -2578.131103515625 -6876.9990234375 -2583.228759765625 -6876.9990234375 Z" stroke="none" fill="rgba(255,255,255,0.25)"/>
          </g>
        </g>
      </g>
    </g>
  </g>
</svg>
