<svg xmlns="http://www.w3.org/2000/svg" xmlns:xlink="http://www.w3.org/1999/xlink" width="175" height="120" viewBox="0 0 175 120">
  <defs>
    <linearGradient id="linear-gradient" x1="0.5" x2="0.5" y2="1" gradientUnits="objectBoundingBox">
      <stop offset="0" stop-color="#48ffff"/>
      <stop offset="1" stop-color="#0091bc"/>
    </linearGradient>
    <filter id="사각형_4047" x="4" y="2" width="118" height="118" filterUnits="userSpaceOnUse">
      <feOffset dy="3" input="SourceAlpha"/>
      <feGaussianBlur stdDeviation="3" result="blur"/>
      <feFlood flood-opacity="0.161"/>
      <feComposite operator="in" in2="blur"/>
      <feComposite in="SourceGraphic"/>
    </filter>
    <linearGradient id="linear-gradient-2" x1="0.5" x2="0.5" y2="1" gradientUnits="objectBoundingBox">
      <stop offset="0" stop-color="#fff"/>
      <stop offset="1" stop-color="#ace6f4"/>
    </linearGradient>
    <filter id="타원_409" x="21.982" y="39.982" width="42.036" height="42.036" filterUnits="userSpaceOnUse">
      <feOffset dy="3" input="SourceAlpha"/>
      <feGaussianBlur stdDeviation="5" result="blur-2"/>
      <feFlood flood-color="#00ced6" flood-opacity="0.502"/>
      <feComposite operator="in" in2="blur-2"/>
      <feComposite in="SourceGraphic"/>
    </filter>
    <filter id="타원_410" x="41.982" y="39.982" width="42.036" height="42.036" filterUnits="userSpaceOnUse">
      <feOffset dy="3" input="SourceAlpha"/>
      <feGaussianBlur stdDeviation="5" result="blur-3"/>
      <feFlood flood-color="#00ced6" flood-opacity="0.502"/>
      <feComposite operator="in" in2="blur-3"/>
      <feComposite in="SourceGraphic"/>
    </filter>
    <filter id="타원_411" x="61.982" y="39.982" width="42.036" height="42.036" filterUnits="userSpaceOnUse">
      <feOffset dy="3" input="SourceAlpha"/>
      <feGaussianBlur stdDeviation="5" result="blur-4"/>
      <feFlood flood-color="#00ced6" flood-opacity="0.502"/>
      <feComposite operator="in" in2="blur-4"/>
      <feComposite in="SourceGraphic"/>
    </filter>
  </defs>
  <g id="icon_02" transform="translate(-714 -96)">
    <rect id="사각형_4068" data-name="사각형 4068" width="175" height="115" transform="translate(714 96)" fill="#fff" opacity="0"/>
    <g id="그룹_7024" data-name="그룹 7024" transform="translate(-45 -320)">
      <g id="그룹_7017" data-name="그룹 7017" transform="translate(-88.929 -28.486)">
        <path id="합치기_13" data-name="합치기 13" d="M-2590.621-6821.632l-4.367-4.367H-2610a21,21,0,0,1-21-21v-43a21,21,0,0,1,21-21h43a21,21,0,0,1,21,21v43a21,21,0,0,1-21,21h-15.012l-4.367,4.367a2.993,2.993,0,0,1-2.122.878A2.989,2.989,0,0,1-2590.621-6821.632Z" transform="translate(3549.429 7369.769)" fill="url(#linear-gradient)"/>
        <g transform="matrix(1, 0, 0, 1, 847.93, 444.49)" filter="url(#사각형_4047)">
          <g id="사각형_4047-2" data-name="사각형 4047" transform="translate(13 8)" fill="#40f3f7" stroke="rgba(255,255,255,0.33)" stroke-width="1">
            <rect width="100" height="100" rx="50" stroke="none"/>
            <rect x="0.5" y="0.5" width="99" height="99" rx="49.5" fill="none"/>
          </g>
        </g>
        <g transform="matrix(1, 0, 0, 1, 847.93, 444.49)" filter="url(#타원_409)">
          <g id="타원_409-2" data-name="타원 409" transform="translate(36.98 51.98)" stroke="rgba(255,255,255,0.5)" stroke-width="1" fill="url(#linear-gradient-2)">
            <circle cx="6.018" cy="6.018" r="6.018" stroke="none"/>
            <circle cx="6.018" cy="6.018" r="5.518" fill="none"/>
          </g>
        </g>
        <g transform="matrix(1, 0, 0, 1, 847.93, 444.49)" filter="url(#타원_410)">
          <g id="타원_410-2" data-name="타원 410" transform="translate(56.98 51.98)" stroke="rgba(255,255,255,0.5)" stroke-width="1" fill="url(#linear-gradient-2)">
            <circle cx="6.018" cy="6.018" r="6.018" stroke="none"/>
            <circle cx="6.018" cy="6.018" r="5.518" fill="none"/>
          </g>
        </g>
        <g transform="matrix(1, 0, 0, 1, 847.93, 444.49)" filter="url(#타원_411)">
          <g id="타원_411-2" data-name="타원 411" transform="translate(76.98 51.98)" stroke="rgba(255,255,255,0.5)" stroke-width="1" fill="url(#linear-gradient-2)">
            <circle cx="6.018" cy="6.018" r="6.018" stroke="none"/>
            <circle cx="6.018" cy="6.018" r="5.518" fill="none"/>
          </g>
        </g>
      </g>
    </g>
  </g>
</svg>
