<svg xmlns="http://www.w3.org/2000/svg" xmlns:xlink="http://www.w3.org/1999/xlink" width="175" height="115" viewBox="0 0 175 115">
  <defs>
    <linearGradient id="linear-gradient" x1="0.5" x2="0.5" y2="1" gradientUnits="objectBoundingBox">
      <stop offset="0" stop-color="#fa1d1d"/>
      <stop offset="1" stop-color="#e00606"/>
    </linearGradient>
    <linearGradient id="linear-gradient-2" x1="0.5" x2="0.5" y2="1" gradientUnits="objectBoundingBox">
      <stop offset="0" stop-color="#fff"/>
      <stop offset="1" stop-color="#f7debf"/>
    </linearGradient>
    <filter id="패스_13611" x="42.71" y="26.341" width="42.532" height="71.776" filterUnits="userSpaceOnUse">
      <feOffset dy="3" input="SourceAlpha"/>
      <feGaussianBlur stdDeviation="1.5" result="blur"/>
      <feFlood flood-color="#fc0808" flood-opacity="0.251"/>
      <feComposite operator="in" in2="blur"/>
      <feComposite in="SourceGraphic"/>
    </filter>
  </defs>
  <g id="icon_03" transform="translate(-1040 -96)">
    <rect id="사각형_4069" data-name="사각형 4069" width="175" height="115" transform="translate(1040 96)" fill="#fff" opacity="0"/>
    <g id="그룹_7026" data-name="그룹 7026" transform="translate(64 -320)">
      <g id="그룹_7018" data-name="그룹 7018" transform="translate(-51.046 -24.397)">
        <path id="합치기_12" data-name="합치기 12" d="M-2594.581-6816.8a12,12,0,0,1-12-12v-28.149h-10.307a8,8,0,0,1-6.11-13.164l29.775-35.224a8,8,0,0,1,12.219,0l29.776,35.224a8,8,0,0,1-6.109,13.164h-10.307v28.149a12,12,0,0,1-12,12Z" transform="translate(3729.829 7360.363)" fill="url(#linear-gradient)"/>
        <g id="사각형_4044" data-name="사각형 4044" transform="translate(1040.046 448.397)" fill="#ff6334" stroke="rgba(255,255,255,0.33)" stroke-width="1">
          <rect width="100" height="100" rx="50" stroke="none"/>
          <rect x="0.5" y="0.5" width="99" height="99" rx="49.5" fill="none"/>
        </g>
        <g transform="matrix(1, 0, 0, 1, 1027.05, 440.4)" filter="url(#패스_13611)">
          <path id="패스_13611-2" data-name="패스 13611" d="M2.409-50.952A2.429,2.429,0,0,0-.1-53.262a2.5,2.5,0,0,0-2.442,2.31v5.082c-7.656.858-13.4,6.072-13.4,13.464,0,4.092,1.716,9.834,11.748,12.936l5.478,1.518c4.62,1.32,5.544,3.1,5.478,5.148C6.7-9.834,3.993-7.986.1-7.986a7.706,7.706,0,0,1-7.326-4.29,4.707,4.707,0,0,0-5.94-2.31,4.241,4.241,0,0,0-2.574,5.412C-14.025-3.96-9.207-.264-2.541.462V6.2A2.457,2.457,0,0,0-.1,8.514,2.429,2.429,0,0,0,2.409,6.2V.462C9.6-.264,16.335-4.554,16.467-12.738,16.6-17.094,15.015-23.3,3.993-26.466L-1.419-28.05C-5.841-29.3-6.3-31.482-6.3-32.67c0-2.706,2.508-4.686,5.874-4.686a8.035,8.035,0,0,1,6.468,3.168c1.584,1.98,3.7,2.64,6.072,1.122a4,4,0,0,0,1.452-5.346A14.138,14.138,0,0,0,2.409-45.8Z" transform="translate(63.77 81.6)" stroke="rgba(255,255,255,0.5)" stroke-width="1" fill="url(#linear-gradient-2)"/>
        </g>
      </g>
    </g>
  </g>
</svg>
