<svg xmlns="http://www.w3.org/2000/svg" xmlns:xlink="http://www.w3.org/1999/xlink" width="175" height="115" viewBox="0 0 175 115">
  <defs>
    <linearGradient id="linear-gradient" x1="0.2" y1="0.113" x2="0.855" y2="0.839" gradientUnits="objectBoundingBox">
      <stop offset="0" stop-color="#049eff"/>
      <stop offset="1" stop-color="#002ecb"/>
    </linearGradient>
    <linearGradient id="linear-gradient-2" y1="0.5" x2="1" y2="0.5" gradientUnits="objectBoundingBox">
      <stop offset="0" stop-color="#fff"/>
      <stop offset="1" stop-color="#b5ddff"/>
    </linearGradient>
    <filter id="사각형_4049" x="28.5" y="43.5" width="17" height="37" filterUnits="userSpaceOnUse">
      <feOffset dy="3" input="SourceAlpha"/>
      <feGaussianBlur stdDeviation="1.5" result="blur"/>
      <feFlood flood-color="#049eff" flood-opacity="0.251"/>
      <feComposite operator="in" in2="blur"/>
      <feComposite in="SourceGraphic"/>
    </filter>
    <filter id="사각형_4050" x="67.5" y="43.5" width="17" height="37" filterUnits="userSpaceOnUse">
      <feOffset dy="3" input="SourceAlpha"/>
      <feGaussianBlur stdDeviation="1.5" result="blur-2"/>
      <feFlood flood-color="#049eff" flood-opacity="0.251"/>
      <feComposite operator="in" in2="blur-2"/>
      <feComposite in="SourceGraphic"/>
    </filter>
    <filter id="사각형_4051" x="54.5" y="35.5" width="17" height="53" filterUnits="userSpaceOnUse">
      <feOffset dy="3" input="SourceAlpha"/>
      <feGaussianBlur stdDeviation="1.5" result="blur-3"/>
      <feFlood flood-color="#049eff" flood-opacity="0.251"/>
      <feComposite operator="in" in2="blur-3"/>
      <feComposite in="SourceGraphic"/>
    </filter>
    <filter id="사각형_4052" x="41.5" y="49.5" width="17" height="25" filterUnits="userSpaceOnUse">
      <feOffset dy="3" input="SourceAlpha"/>
      <feGaussianBlur stdDeviation="1.5" result="blur-4"/>
      <feFlood flood-color="#049eff" flood-opacity="0.251"/>
      <feComposite operator="in" in2="blur-4"/>
      <feComposite in="SourceGraphic"/>
    </filter>
    <filter id="사각형_4053" x="80.5" y="49.5" width="17" height="25" filterUnits="userSpaceOnUse">
      <feOffset dy="3" input="SourceAlpha"/>
      <feGaussianBlur stdDeviation="1.5" result="blur-5"/>
      <feFlood flood-color="#049eff" flood-opacity="0.251"/>
      <feComposite operator="in" in2="blur-5"/>
      <feComposite in="SourceGraphic"/>
    </filter>
  </defs>
  <g id="icon_01" transform="translate(-384 -96)">
    <rect id="사각형_4067" data-name="사각형 4067" width="175" height="115" transform="translate(384 96)" fill="#fff" opacity="0"/>
    <g id="그룹_7025" data-name="그룹 7025" transform="translate(-152 -320)">
      <g id="그룹_7016" data-name="그룹 7016" transform="translate(120 -13)">
        <rect id="사각형_4041" data-name="사각형 4041" width="100" height="100" rx="50" transform="translate(479 437)" fill="url(#linear-gradient)"/>
        <g id="사각형_4048" data-name="사각형 4048" transform="translate(429 437)" fill="#043dff" stroke="rgba(255,255,255,0.33)" stroke-width="1">
          <rect width="100" height="100" rx="50" stroke="none"/>
          <rect x="0.5" y="0.5" width="99" height="99" rx="49.5" fill="none"/>
        </g>
        <g transform="matrix(1, 0, 0, 1, 416, 429)" filter="url(#사각형_4049)">
          <g id="사각형_4049-2" data-name="사각형 4049" transform="translate(41 45) rotate(90)" stroke="rgba(255,255,255,0.5)" stroke-width="1" fill="url(#linear-gradient-2)">
            <rect width="28" height="8" rx="4" stroke="none"/>
            <rect x="0.5" y="0.5" width="27" height="7" rx="3.5" fill="none"/>
          </g>
        </g>
        <g transform="matrix(1, 0, 0, 1, 416, 429)" filter="url(#사각형_4050)">
          <g id="사각형_4050-2" data-name="사각형 4050" transform="translate(80 45) rotate(90)" stroke="rgba(255,255,255,0.5)" stroke-width="1" fill="url(#linear-gradient-2)">
            <rect width="28" height="8" rx="4" stroke="none"/>
            <rect x="0.5" y="0.5" width="27" height="7" rx="3.5" fill="none"/>
          </g>
        </g>
        <g transform="matrix(1, 0, 0, 1, 416, 429)" filter="url(#사각형_4051)">
          <g id="사각형_4051-2" data-name="사각형 4051" transform="translate(67 37) rotate(90)" stroke="rgba(255,255,255,0.5)" stroke-width="1" fill="url(#linear-gradient-2)">
            <rect width="44" height="8" rx="4" stroke="none"/>
            <rect x="0.5" y="0.5" width="43" height="7" rx="3.5" fill="none"/>
          </g>
        </g>
        <g transform="matrix(1, 0, 0, 1, 416, 429)" filter="url(#사각형_4052)">
          <g id="사각형_4052-2" data-name="사각형 4052" transform="translate(54 51) rotate(90)" stroke="rgba(255,255,255,0.5)" stroke-width="1" fill="url(#linear-gradient-2)">
            <rect width="16" height="8" rx="4" stroke="none"/>
            <rect x="0.5" y="0.5" width="15" height="7" rx="3.5" fill="none"/>
          </g>
        </g>
        <g transform="matrix(1, 0, 0, 1, 416, 429)" filter="url(#사각형_4053)">
          <g id="사각형_4053-2" data-name="사각형 4053" transform="translate(93 51) rotate(90)" stroke="rgba(255,255,255,0.5)" stroke-width="1" fill="url(#linear-gradient-2)">
            <rect width="16" height="8" rx="4" stroke="none"/>
            <rect x="0.5" y="0.5" width="15" height="7" rx="3.5" fill="none"/>
          </g>
        </g>
      </g>
    </g>
  </g>
</svg>
