<svg xmlns="http://www.w3.org/2000/svg" width="18" height="17" viewBox="0 0 18 17">
  <g id="setting" transform="translate(-1892 1307)">
    <rect id="사각형_3866" data-name="사각형 3866" width="18" height="17" transform="translate(1892 -1307)" fill="#fff" opacity="0"/>
    <path id="패스_13464" data-name="패스 13464" d="M9.994-5.146h1.479a.879.879,0,0,0,.574-.193.9.9,0,0,0,.309-.522L12.767-7.6q.216-.073.428-.157t.4-.179L15.121-7a.906.906,0,0,0,.58.145.851.851,0,0,0,.534-.257l1.037-1.038a.837.837,0,0,0,.266-.543.871.871,0,0,0-.163-.588l-.928-1.514q.1-.2.179-.4t.148-.411l1.75-.41a.871.871,0,0,0,.521-.309.9.9,0,0,0,.185-.574v-1.453a.889.889,0,0,0-.185-.566.874.874,0,0,0-.521-.31l-1.741-.417q-.072-.231-.155-.439t-.164-.383L17.393-18a.923.923,0,0,0,.159-.585.836.836,0,0,0-.263-.537l-1.055-1.039a.938.938,0,0,0-.519-.254.885.885,0,0,0-.565.126l-1.551.956q-.185-.089-.392-.173t-.438-.164l-.412-1.766a.885.885,0,0,0-.309-.518.89.89,0,0,0-.574-.189H9.994a.889.889,0,0,0-.574.189.886.886,0,0,0-.309.518L8.692-19.69q-.216.08-.432.164t-.408.181l-1.543-.948a.888.888,0,0,0-.565-.126.937.937,0,0,0-.519.256L4.17-19.125a.836.836,0,0,0-.263.537A.923.923,0,0,0,4.066-18l.929,1.533q-.08.176-.164.383t-.156.439l-1.74.417a.875.875,0,0,0-.522.31.89.89,0,0,0-.185.566V-12.9a.9.9,0,0,0,.185.574.871.871,0,0,0,.522.309l1.758.41a3.451,3.451,0,0,0,.14.411q.084.2.179.4L4.083-9.28a.869.869,0,0,0-.162.588.84.84,0,0,0,.265.543L5.224-7.111a.851.851,0,0,0,.534.257A.906.906,0,0,0,6.338-7L7.86-7.936q.192.095.4.179t.428.157L9.11-5.86a.9.9,0,0,0,.309.522A.879.879,0,0,0,9.994-5.146Zm.739-5.669A2.719,2.719,0,0,1,9.308-11.2a2.918,2.918,0,0,1-1.026-1.031A2.744,2.744,0,0,1,7.9-13.657a2.708,2.708,0,0,1,.382-1.413A2.925,2.925,0,0,1,9.308-16.1a2.721,2.721,0,0,1,1.425-.386,2.7,2.7,0,0,1,1.422.386,2.968,2.968,0,0,1,1.026,1.026,2.687,2.687,0,0,1,.386,1.413,2.723,2.723,0,0,1-.386,1.425A2.96,2.96,0,0,1,12.154-11.2,2.7,2.7,0,0,1,10.733-10.815Z" transform="translate(1890.271 -1284.854)" fill="#fff"/>
  </g>
</svg>
