<svg xmlns="http://www.w3.org/2000/svg" width="38" height="38" viewBox="0 0 38 38">
  <g id="apple" transform="translate(61 485)">
    <rect id="사각형_4342" data-name="사각형 4342" width="38" height="38" transform="translate(-61 -485)" fill="#fff" opacity="0.002"/>
    <path id="패스_13546" data-name="패스 13546" d="M22.6-22.6a7.341,7.341,0,0,0-2.44.4q-1.141.4-2.069.8a4.169,4.169,0,0,1-1.6.4,4.066,4.066,0,0,1-1.614-.38q-.872-.38-1.883-.751a6.225,6.225,0,0,0-2.162-.371A8.092,8.092,0,0,0,6.68-21.329,8.913,8.913,0,0,0,3.4-17.85,11.566,11.566,0,0,0,2.134-12.19a18.849,18.849,0,0,0,.482,4.221A22.326,22.326,0,0,0,3.924-3.98,19.147,19.147,0,0,0,5.752-.668,29.042,29.042,0,0,0,8.285,2.449a3.841,3.841,0,0,0,2.867,1.3,4.5,4.5,0,0,0,1.874-.362q.8-.362,1.679-.714a6.014,6.014,0,0,1,2.217-.353,5.622,5.622,0,0,1,2.162.343q.807.343,1.568.7a4.651,4.651,0,0,0,1.948.353,3.716,3.716,0,0,0,2.125-.631,7.994,7.994,0,0,0,1.735-1.614Q27.257.482,28-.575A17.1,17.1,0,0,0,29.354-2.9a19.372,19.372,0,0,0,.77-1.828,7.977,7.977,0,0,0,.25-.779l-.751-.4a8.364,8.364,0,0,1-1.614-1.2,7.451,7.451,0,0,1-1.586-2.162,7.14,7.14,0,0,1-.687-3.275,7.153,7.153,0,0,1,.538-2.895,7.438,7.438,0,0,1,1.262-2.022,8.9,8.9,0,0,1,1.3-1.215q.575-.417.649-.473a7.451,7.451,0,0,0-1.911-1.967,7.919,7.919,0,0,0-2.032-1.021,8.64,8.64,0,0,0-1.781-.39Q22.971-22.6,22.6-22.6Zm-1.225-2.839a8.889,8.889,0,0,0,1.317-2.254,6.831,6.831,0,0,0,.52-2.607A3.084,3.084,0,0,0,23.138-31a6.545,6.545,0,0,0-2.728.8,7.774,7.774,0,0,0-2.375,1.855,8.535,8.535,0,0,0-1.327,2.1,6.116,6.116,0,0,0-.584,2.6,2.442,2.442,0,0,0,.028.38q.028.176.046.25a2.818,2.818,0,0,0,.464.037,5.431,5.431,0,0,0,2.514-.7A7.05,7.05,0,0,0,21.375-25.438Z" transform="translate(-58.254 -452.995)"/>
  </g>
</svg>
