<svg xmlns="http://www.w3.org/2000/svg" width="34" height="34" viewBox="0 0 34 34">
  <g id="Google__G__logo" data-name="Google_&quot;G&quot;_logo" transform="translate(-1 -1)">
    <path id="패스_13553" data-name="패스 13553" d="M28.32,13.477A19.534,19.534,0,0,0,28.011,10H12v6.584h9.149A7.839,7.839,0,0,1,17.734,21.7V25.98h5.517a16.609,16.609,0,0,0,5.069-12.5Z" transform="translate(6 4.909)" fill="#4285f4"/>
    <path id="패스_13554" data-name="패스 13554" d="M17.356,27.855a16.225,16.225,0,0,0,11.251-4.111L23.09,19.463A10.221,10.221,0,0,1,7.836,14.1H2.18v4.389A16.984,16.984,0,0,0,17.356,27.855Z" transform="translate(0.644 7.145)" fill="#34a853"/>
    <path id="패스_13555" data-name="패스 13555" d="M8.48,17.919a9.914,9.914,0,0,1,0-6.46V7.07H2.824a16.828,16.828,0,0,0,0,15.238l4.4-3.431,1.252-.958Z" transform="translate(0 3.311)" fill="#fbbc05"/>
    <path id="패스_13556" data-name="패스 13556" d="M17.356,7.769A9.276,9.276,0,0,1,23.863,10.3l4.868-4.868A16.309,16.309,0,0,0,17.356,1,16.97,16.97,0,0,0,2.18,10.381L7.836,14.77a10.149,10.149,0,0,1,9.52-7Z" transform="translate(0.644 0)" fill="#ea4335"/>
    <path id="패스_13557" data-name="패스 13557" d="M1,1H35V35H1Z" transform="translate(0 0)" fill="none"/>
  </g>
</svg>
