<svg xmlns="http://www.w3.org/2000/svg" xmlns:xlink="http://www.w3.org/1999/xlink" width="38" height="38" viewBox="0 0 38 38">
  <defs>
    <clipPath id="clip-path">
      <rect id="사각형_3837" data-name="사각형 3837" width="33.797" height="31.509" fill="none"/>
    </clipPath>
  </defs>
  <g id="kakao" transform="translate(0 485)">
    <rect id="사각형_4343" data-name="사각형 4343" width="38" height="38" transform="translate(0 -485)" fill="#fff" opacity="0"/>
    <g id="그룹_6915" data-name="그룹 6915" transform="translate(2 -482)">
      <g id="그룹_6914" data-name="그룹 6914" clip-path="url(#clip-path)">
        <path id="패스_13547" data-name="패스 13547" d="M16.9,0C7.565,0,0,6.015,0,13.435c0,4.6,2.906,8.658,7.339,11.08L6.117,31.064a.376.376,0,0,0,.576.383l7.259-4.781s1.941.2,2.947.2c9.333,0,16.9-6.015,16.9-13.435S26.231,0,16.9,0" fill="#3c1e1e"/>
        <path id="패스_13548" data-name="패스 13548" d="M31.811,58.087h-4.87a.835.835,0,0,0,0,1.669h1.583v5.88a.82.82,0,0,0,.238.575.8.8,0,0,0,.57.239h.177a.8.8,0,0,0,.568-.238.822.822,0,0,0,.238-.576v-5.88h1.5a.835.835,0,0,0,0-1.669" transform="translate(-21.756 -48.397)" fill="#f9e000"/>
        <path id="패스_13549" data-name="패스 13549" d="M108.31,64.3h-2.263v-6a.9.9,0,1,0-1.8,0v6.763a.755.755,0,0,0,.752.758h3.309a.758.758,0,0,0,0-1.516" transform="translate(-86.859 -47.813)" fill="#f9e000"/>
        <path id="패스_13550" data-name="패스 13550" d="M142.283,64.571l-2.524-3.341,2.281-2.3a.8.8,0,0,0,0-1.127.787.787,0,0,0-1.119,0L138.1,60.65V58.291a.9.9,0,1,0-1.8,0v6.671a.9.9,0,1,0,1.8,0V62.9l.513-.517L141,65.544a.8.8,0,0,0,1.125.161.813.813,0,0,0,.159-1.134" transform="translate(-113.563 -47.812)" fill="#f9e000"/>
        <path id="패스_13551" data-name="패스 13551" d="M64.9,64.788,62.477,58.1l-.008-.007a1.192,1.192,0,0,0-1.137-.7,1.39,1.39,0,0,0-.389.055,1.271,1.271,0,0,0-.337.153,1.119,1.119,0,0,0-.261.233.992.992,0,0,0-.124.2c-.03.062-.149.4-.188.51l-.041.112-.049.134-.057.153-.064.172-.07.189-.076.2-.081.218-.085.23-.089.24-.092.249-.095.256-.1.261-.1.265-.1.267-.1.267-.1.266-.1.264-.1.259-.094.253-.091.245-.087.236L58.2,63.5l-.079.213-.073.2-.068.182-.061.165-.054.146-.046.125-.038.1-.029.079-.02.053-.01.028a.814.814,0,0,0,.493,1.034.8.8,0,0,0,1.027-.5l.413-1.188h3.322l.413,1.188a.8.8,0,0,0,1.027.5.813.813,0,0,0,.493-1.034m-4.727-2.166,1.116-3.209c.013,0,.023,0,.036,0l1.115,3.206Z" transform="translate(-48.052 -47.813)" fill="#f9e000"/>
      </g>
    </g>
  </g>
</svg>
