<svg xmlns="http://www.w3.org/2000/svg" width="30.068" height="20.045" viewBox="0 0 30.068 20.045">
  <g id="그룹_7200" data-name="그룹 7200" transform="translate(-884.837 -524.541)">
    <path id="패스_12508" data-name="패스 12508" d="M218.851,0a9.957,9.957,0,0,0-5.012,1.352,10.007,10.007,0,0,1,0,17.342A10.02,10.02,0,1,0,218.851,0" transform="translate(686.031 524.541)" fill="#4338f7"/>
    <path id="패스_12509" data-name="패스 12509" d="M210.731,10.023a10.011,10.011,0,0,1,5.012-8.671,10.019,10.019,0,1,0-5.012,18.693,9.968,9.968,0,0,0,5.012-1.351,10.011,10.011,0,0,1-5.012-8.671" transform="translate(684.128 524.541)" fill="#4338f7"/>
  </g>
</svg>
