<svg xmlns="http://www.w3.org/2000/svg" xmlns:xlink="http://www.w3.org/1999/xlink" width="182" height="40.693" viewBox="0 0 182 40.693">
  <defs>
    <clipPath id="clip-path">
      <rect id="사각형_2352" data-name="사각형 2352" width="182" height="40.693" fill="#fff"/>
    </clipPath>
  </defs>
  <g id="ineeji_logo" transform="translate(0 0)">
    <path id="패스_12490" data-name="패스 12490" d="M245.5,24.821h-2.8v1.507h2.648v2H242.7v1.562h2.8v2h-5.147V22.825H245.5Z" transform="translate(-149.407 -14.188)" fill="#fff"/>
    <path id="패스_12491" data-name="패스 12491" d="M256.912,31.883l1.535-9.058h2.322L262.6,27.66l1.942-4.835h2.349l1.358,9.058H265.9l-.666-5.215-2.186,5.215h-.937l-2.091-5.215-.774,5.215Z" transform="translate(-159.702 -14.189)" fill="#fff"/>
    <g id="그룹_6400" data-name="그룹 6400" transform="translate(0 0)">
      <g id="그룹_6399" data-name="그룹 6399" clip-path="url(#clip-path)">
        <path id="패스_12492" data-name="패스 12492" d="M293.089,28.882v3H290.74V22.825h3.748a3.118,3.118,0,0,1,2.295.815,2.807,2.807,0,0,1,.842,2.2,2.943,2.943,0,0,1-.8,2.254,3.015,3.015,0,0,1-2.254.788Zm0-1.9h.787a1.534,1.534,0,0,0,.991-.285,1.036,1.036,0,0,0,.3-.828,1.1,1.1,0,0,0-.272-.815,1.38,1.38,0,0,0-1-.326h-.8Z" transform="translate(-180.73 -14.189)" fill="#fff"/>
        <path id="패스_12493" data-name="패스 12493" d="M319.564,30.407a5.417,5.417,0,0,1-7.143,0,4.738,4.738,0,0,1,0-6.776,5.416,5.416,0,0,1,7.143,0,4.739,4.739,0,0,1,0,6.776m-5.405-5.12a2.484,2.484,0,0,0-.72,1.779,2.3,2.3,0,0,0,.72,1.684,2.57,2.57,0,0,0,1.833.72,2.46,2.46,0,0,0,2.553-2.444,2.447,2.447,0,0,0-.733-1.739,2.714,2.714,0,0,0-1.82-.72,2.609,2.609,0,0,0-1.833.72" transform="translate(-193.321 -13.853)" fill="#fff"/>
        <path id="패스_12494" data-name="패스 12494" d="M340.541,22.825l1.575,5.853,1.915-5.853h1.874l1.779,5.853,1.711-5.853h2.458l-2.892,9.058h-2.4l-1.643-5.242-1.738,5.242h-2.39l-2.7-9.058Z" transform="translate(-210.16 -14.189)" fill="#fff"/>
        <path id="패스_12495" data-name="패스 12495" d="M381.984,24.821h-2.8v1.507h2.648v2h-2.648v1.562h2.8v2h-5.147V22.825h5.147Z" transform="translate(-234.25 -14.189)" fill="#fff"/>
        <path id="패스_12496" data-name="패스 12496" d="M398.578,22.825a2.926,2.926,0,0,1,2.214.8,2.98,2.98,0,0,1,.774,2.037,2.614,2.614,0,0,1-.72,1.888,2.533,2.533,0,0,1-1.249.625l2.838,3.708h-2.92l-2.254-3.477v3.477h-2.349V22.825Zm-1.317,4.061h.448a1.765,1.765,0,0,0,1.141-.367,1.126,1.126,0,0,0,.3-.76,1.068,1.068,0,0,0-.313-.761,1.593,1.593,0,0,0-1.127-.353h-.448Z" transform="translate(-245.485 -14.189)" fill="#fff"/>
        <rect id="사각형_2350" data-name="사각형 2350" width="2.349" height="9.058" transform="translate(157.84 8.636)" fill="#fff"/>
        <path id="패스_12497" data-name="패스 12497" d="M428.383,31.883V22.825h2.349l4.332,5.541V22.825h2.349v9.058h-2.349l-4.332-5.541v5.541Z" transform="translate(-266.292 -14.189)" fill="#fff"/>
        <path id="패스_12498" data-name="패스 12498" d="M460.844,26.414h4.672a5.065,5.065,0,0,1-1.453,4.074,4.421,4.421,0,0,1-3.191,1.141,4.679,4.679,0,0,1-3.477-1.344,4.565,4.565,0,0,1-1.3-3.273,4.72,4.72,0,0,1,1.358-3.395,5.266,5.266,0,0,1,5.962-.72,4.435,4.435,0,0,1,1.616,1.86l-2.241.924a2.219,2.219,0,0,0-.652-.91,1.9,1.9,0,0,0-1.263-.448,2.188,2.188,0,0,0-1.548.625,3.054,3.054,0,0,0-.788,2.078,2.833,2.833,0,0,0,.72,1.955,2.142,2.142,0,0,0,1.657.693,1.94,1.94,0,0,0,1.3-.421,1.612,1.612,0,0,0,.557-1.005h-1.928Z" transform="translate(-283.516 -13.853)" fill="#fff"/>
        <path id="패스_12499" data-name="패스 12499" d="M245.5,60.709h-2.8v1.507h2.648v2H242.7v1.562h2.8v2h-5.147V58.713H245.5Z" transform="translate(-149.407 -36.498)" fill="#fff"/>
        <path id="패스_12500" data-name="패스 12500" d="M259.279,62.936l-2.906-4.223h2.906l1.344,2.349,1.4-2.349h2.893l-2.947,4.223,3.422,4.835h-2.852l-1.929-2.947-2.037,2.947h-2.839Z" transform="translate(-158.97 -36.497)" fill="#fff"/>
        <path id="패스_12501" data-name="패스 12501" d="M285.929,64.769v3H283.58V58.713h3.748a3.117,3.117,0,0,1,2.294.815,2.806,2.806,0,0,1,.842,2.2,2.943,2.943,0,0,1-.8,2.254,3.014,3.014,0,0,1-2.254.788Zm0-1.9h.788a1.533,1.533,0,0,0,.991-.285,1.035,1.035,0,0,0,.3-.828,1.1,1.1,0,0,0-.271-.815,1.38,1.38,0,0,0-1.005-.326h-.8Z" transform="translate(-176.28 -36.497)" fill="#fff"/>
        <path id="패스_12502" data-name="패스 12502" d="M310.012,60.709h-2.8v1.507h2.648v2h-2.648v1.562h2.8v2h-5.147V58.713h5.147Z" transform="translate(-189.511 -36.498)" fill="#fff"/>
        <path id="패스_12503" data-name="패스 12503" d="M326.6,58.713a2.928,2.928,0,0,1,2.214.8,2.981,2.981,0,0,1,.774,2.037,2.614,2.614,0,0,1-.72,1.888,2.533,2.533,0,0,1-1.249.625l2.838,3.708h-2.92l-2.254-3.477v3.477h-2.349V58.713Zm-1.317,4.06h.448a1.765,1.765,0,0,0,1.141-.367,1.126,1.126,0,0,0,.3-.76,1.069,1.069,0,0,0-.313-.761,1.593,1.593,0,0,0-1.127-.353h-.448Z" transform="translate(-200.745 -36.497)" fill="#fff"/>
        <path id="패스_12504" data-name="패스 12504" d="M347.062,60.709v7.062h-2.349V60.709h-1.929v-2h6.207v2Z" transform="translate(-213.082 -36.498)" fill="#fff"/>
        <rect id="사각형_2351" data-name="사각형 2351" width="2.349" height="9.058" transform="translate(136.853 22.216)" fill="#fff"/>
        <path id="패스_12505" data-name="패스 12505" d="M372.563,64.721a3.173,3.173,0,0,0,2.078.923,1.192,1.192,0,0,0,.91-.312.81.81,0,0,0,.231-.571.707.707,0,0,0-.258-.543,3.272,3.272,0,0,0-1.168-.476l-.611-.19a2.957,2.957,0,0,1-1.3-.733,2.278,2.278,0,0,1-.516-1.6,2.961,2.961,0,0,1,.828-2.186,3.194,3.194,0,0,1,2.322-.856,6.363,6.363,0,0,1,2.8.733l-.937,1.833a2.389,2.389,0,0,0-1.548-.611,1.129,1.129,0,0,0-.774.271.673.673,0,0,0-.231.489.605.605,0,0,0,.122.407,1.492,1.492,0,0,0,.788.408l.72.218a3.457,3.457,0,0,1,1.643.9,2.138,2.138,0,0,1,.584,1.616,3.069,3.069,0,0,1-.856,2.282,3.511,3.511,0,0,1-2.675.923,4.841,4.841,0,0,1-1.779-.3,6.337,6.337,0,0,1-1.372-.72Z" transform="translate(-230.968 -36.163)" fill="#fff"/>
        <path id="패스_12506" data-name="패스 12506" d="M398.22,60.709h-2.8v1.507h2.648v2h-2.648v1.562h2.8v2h-5.147V58.713h5.147Z" transform="translate(-244.343 -36.498)" fill="#fff"/>
        <path id="패스_12507" data-name="패스 12507" d="M6.624,3.312A3.312,3.312,0,1,1,3.312,0,3.312,3.312,0,0,1,6.624,3.312" transform="translate(0 0)" fill="#fff"/>
        <path id="패스_12508" data-name="패스 12508" d="M215.5,0a3.29,3.29,0,0,0-1.656.447,3.307,3.307,0,0,1,0,5.731A3.311,3.311,0,1,0,215.5,0" transform="translate(-132.927 0)" fill="#fff"/>
        <path id="패스_12509" data-name="패스 12509" d="M204.021,3.312A3.308,3.308,0,0,1,205.677.447a3.311,3.311,0,1,0-1.656,6.177,3.294,3.294,0,0,0,1.656-.446,3.308,3.308,0,0,1-1.656-2.865" transform="translate(-124.765)" fill="#fff"/>
        <path id="패스_12510" data-name="패스 12510" d="M175.107,22.51V45.222a3.79,3.79,0,0,1-3.785,3.785v5.678a9.463,9.463,0,0,0,9.463-9.463V22.51Z" transform="translate(-106.498 -13.993)" fill="#fff"/>
        <path id="패스_12511" data-name="패스 12511" d="M1.25,45.222H6.928V25.349a2.839,2.839,0,0,0-5.678,0Z" transform="translate(-0.777 -13.993)" fill="#fff"/>
        <path id="패스_12512" data-name="패스 12512" d="M206.336,25.349V45.222h5.678V25.349a2.839,2.839,0,0,0-5.678,0" transform="translate(-128.263 -13.993)" fill="#fff"/>
        <path id="패스_12513" data-name="패스 12513" d="M41.4,36.4,32.221,22.923a.947.947,0,0,0-.782-.414H27.207a.947.947,0,0,0-.946.946V45.221h5.678V31.328l9.182,13.479a.947.947,0,0,0,.782.414h4.231a.946.946,0,0,0,.946-.946V22.509H41.4Z" transform="translate(-16.324 -13.992)" fill="#fff"/>
        <path id="패스_12514" data-name="패스 12514" d="M92.234,22.51a.946.946,0,0,0-.946.946V44.276a.946.946,0,0,0,.946.946h12.3V39.544H96.966V36.232h7.571V31.5H96.966V28.188h7.571V22.51h-12.3Z" transform="translate(-56.747 -13.993)" fill="#fff"/>
        <path id="패스_12515" data-name="패스 12515" d="M149.556,39.544h-7.571V36.232h7.571V31.5h-7.571V28.188h7.571V22.51h-12.3a.947.947,0,0,0-.947.946V44.276a.946.946,0,0,0,.947.946h12.3Z" transform="translate(-84.731 -13.993)" fill="#fff"/>
      </g>
    </g>
  </g>
</svg>
