<svg xmlns="http://www.w3.org/2000/svg" xmlns:xlink="http://www.w3.org/1999/xlink" width="99" height="22.135" viewBox="0 0 99 22.135">
  <defs>
    <clipPath id="clip-path">
      <rect id="사각형_2352" data-name="사각형 2352" width="99" height="22.135" fill="none"/>
    </clipPath>
  </defs>
  <g id="그룹_6832" data-name="그룹 6832" transform="translate(0 0)">
    <path id="패스_12490" data-name="패스 12490" d="M243.149,23.911h-1.522v.82h1.44v1.086h-1.44v.849h1.522v1.086h-2.8V22.825h2.8Z" transform="translate(-190.88 -18.127)" fill="#004397"/>
    <path id="패스_12491" data-name="패스 12491" d="M256.912,27.752l.835-4.927h1.263l1,2.63,1.056-2.63h1.278l.739,4.927H261.8l-.362-2.837-1.189,2.837h-.51L258.6,24.916l-.421,2.837Z" transform="translate(-204.034 -18.127)" fill="#004397"/>
    <g id="그룹_6400" data-name="그룹 6400" transform="translate(0 0)">
      <g id="그룹_6399" data-name="그룹 6399" clip-path="url(#clip-path)">
        <path id="패스_12492" data-name="패스 12492" d="M292.018,26.12v1.633H290.74V22.825h2.039a1.7,1.7,0,0,1,1.248.443,1.527,1.527,0,0,1,.458,1.2,1.6,1.6,0,0,1-.436,1.226,1.64,1.64,0,0,1-1.226.429Zm0-1.034h.428a.834.834,0,0,0,.539-.155.564.564,0,0,0,.163-.451.6.6,0,0,0-.148-.443.75.75,0,0,0-.547-.177h-.436Z" transform="translate(-230.9 -18.127)" fill="#004397"/>
        <path id="패스_12493" data-name="패스 12493" d="M315.656,26.7a2.947,2.947,0,0,1-3.886,0,2.577,2.577,0,0,1,0-3.686,2.946,2.946,0,0,1,3.886,0,2.578,2.578,0,0,1,0,3.686m-2.94-2.785a1.351,1.351,0,0,0-.392.968,1.252,1.252,0,0,0,.392.916,1.4,1.4,0,0,0,1,.391,1.338,1.338,0,0,0,1.389-1.329,1.331,1.331,0,0,0-.4-.946,1.476,1.476,0,0,0-.99-.391,1.419,1.419,0,0,0-1,.391" transform="translate(-246.986 -17.699)" fill="#004397"/>
        <path id="패스_12494" data-name="패스 12494" d="M339.42,22.825l.857,3.184,1.042-3.184h1.019l.968,3.184.931-3.184h1.337L344,27.752h-1.308L341.8,24.9l-.946,2.851h-1.3l-1.47-4.927Z" transform="translate(-268.498 -18.127)" fill="#004397"/>
        <path id="패스_12495" data-name="패스 12495" d="M379.637,23.911h-1.522v.82h1.44v1.086h-1.44v.849h1.522v1.086h-2.8V22.825h2.8Z" transform="translate(-299.276 -18.127)" fill="#004397"/>
        <path id="패스_12496" data-name="패스 12496" d="M396.906,22.825a1.592,1.592,0,0,1,1.2.436,1.621,1.621,0,0,1,.421,1.108,1.422,1.422,0,0,1-.391,1.027,1.378,1.378,0,0,1-.68.34L399,27.752h-1.588l-1.226-1.891v1.891h-1.278V22.825Zm-.716,2.209h.244a.96.96,0,0,0,.621-.2.612.612,0,0,0,.163-.413.581.581,0,0,0-.17-.414.867.867,0,0,0-.613-.192h-.244Z" transform="translate(-313.63 -18.127)" fill="#004397"/>
        <rect id="사각형_2350" data-name="사각형 2350" width="1.278" height="4.927" transform="translate(85.858 4.698)" fill="#004397"/>
        <path id="패스_12497" data-name="패스 12497" d="M428.383,27.752V22.825h1.278l2.356,3.014V22.825H433.3v4.927h-1.278l-2.356-3.014v3.014Z" transform="translate(-340.213 -18.127)" fill="#004397"/>
        <path id="패스_12498" data-name="패스 12498" d="M458.677,24.532h2.541a2.755,2.755,0,0,1-.791,2.216,2.4,2.4,0,0,1-1.736.621,2.545,2.545,0,0,1-1.891-.731,2.483,2.483,0,0,1-.709-1.78,2.567,2.567,0,0,1,.739-1.847,2.864,2.864,0,0,1,3.243-.392,2.412,2.412,0,0,1,.879,1.012l-1.219.5a1.207,1.207,0,0,0-.354-.495,1.034,1.034,0,0,0-.687-.244,1.19,1.19,0,0,0-.842.34,1.661,1.661,0,0,0-.429,1.13,1.541,1.541,0,0,0,.392,1.064,1.165,1.165,0,0,0,.9.377,1.055,1.055,0,0,0,.709-.229.877.877,0,0,0,.3-.547h-1.049Z" transform="translate(-362.218 -17.699)" fill="#004397"/>
        <path id="패스_12499" data-name="패스 12499" d="M243.149,59.8h-1.522v.82h1.44V61.7h-1.44v.849h1.522V63.64h-2.8V58.713h2.8Z" transform="translate(-190.88 -46.629)" fill="#004397"/>
        <path id="패스_12500" data-name="패스 12500" d="M257.663,61.01l-1.581-2.3h1.581l.731,1.278.761-1.278h1.574l-1.6,2.3,1.861,2.63h-1.551l-1.049-1.6-1.108,1.6h-1.544Z" transform="translate(-203.099 -46.629)" fill="#004397"/>
        <path id="패스_12501" data-name="패스 12501" d="M284.858,62.007V63.64H283.58V58.713h2.039a1.7,1.7,0,0,1,1.248.443,1.527,1.527,0,0,1,.458,1.2,1.6,1.6,0,0,1-.436,1.226,1.64,1.64,0,0,1-1.226.429Zm0-1.034h.429a.834.834,0,0,0,.539-.155.563.563,0,0,0,.163-.451.6.6,0,0,0-.148-.443.751.751,0,0,0-.547-.177h-.436Z" transform="translate(-225.213 -46.629)" fill="#004397"/>
        <path id="패스_12502" data-name="패스 12502" d="M307.664,59.8h-1.522v.82h1.44V61.7h-1.44v.849h1.522V63.64h-2.8V58.713h2.8Z" transform="translate(-242.117 -46.629)" fill="#004397"/>
        <path id="패스_12503" data-name="패스 12503" d="M324.932,58.713a1.592,1.592,0,0,1,1.2.436,1.621,1.621,0,0,1,.421,1.108,1.422,1.422,0,0,1-.391,1.027,1.378,1.378,0,0,1-.68.34l1.544,2.017h-1.588l-1.226-1.891V63.64h-1.278V58.713Zm-.716,2.209h.244a.96.96,0,0,0,.621-.2.612.612,0,0,0,.163-.413.581.581,0,0,0-.17-.414.867.867,0,0,0-.613-.192h-.244Z" transform="translate(-256.47 -46.629)" fill="#004397"/>
        <path id="패스_12504" data-name="패스 12504" d="M345.111,59.8V63.64h-1.278V59.8h-1.049V58.713h3.376V59.8Z" transform="translate(-272.232 -46.629)" fill="#004397"/>
        <rect id="사각형_2351" data-name="사각형 2351" width="1.278" height="4.927" transform="translate(74.442 12.084)" fill="#004397"/>
        <path id="패스_12505" data-name="패스 12505" d="M372.1,61.736a1.726,1.726,0,0,0,1.13.5.649.649,0,0,0,.495-.17.44.44,0,0,0,.126-.31.385.385,0,0,0-.14-.3,1.78,1.78,0,0,0-.635-.259l-.332-.1a1.608,1.608,0,0,1-.709-.4,1.239,1.239,0,0,1-.281-.872,1.611,1.611,0,0,1,.451-1.189,1.737,1.737,0,0,1,1.263-.465,3.461,3.461,0,0,1,1.522.4l-.51,1a1.3,1.3,0,0,0-.842-.332.614.614,0,0,0-.421.148.366.366,0,0,0-.125.266.329.329,0,0,0,.066.221.812.812,0,0,0,.429.222l.392.118a1.881,1.881,0,0,1,.894.487,1.163,1.163,0,0,1,.318.879,1.669,1.669,0,0,1-.465,1.241,1.91,1.91,0,0,1-1.455.5,2.633,2.633,0,0,1-.968-.162,3.447,3.447,0,0,1-.746-.391Z" transform="translate(-295.083 -46.201)" fill="#004397"/>
        <path id="패스_12506" data-name="패스 12506" d="M395.873,59.8h-1.522v.82h1.44V61.7h-1.44v.849h1.522V63.64h-2.8V58.713h2.8Z" transform="translate(-312.17 -46.629)" fill="#004397"/>
        <path id="패스_12507" data-name="패스 12507" d="M3.6,1.8A1.8,1.8,0,1,1,1.8,0,1.8,1.8,0,0,1,3.6,1.8" transform="translate(0 0)" fill="#0092e5"/>
        <path id="패스_12508" data-name="패스 12508" d="M214.74,0a1.79,1.79,0,0,0-.9.243,1.8,1.8,0,0,1,0,3.117,1.8,1.8,0,1,0,.9-3.36" transform="translate(-169.827 0)" fill="#0092e5"/>
        <path id="패스_12509" data-name="패스 12509" d="M202.511,1.8a1.8,1.8,0,0,1,.9-1.559,1.8,1.8,0,1,0-.9,3.36,1.792,1.792,0,0,0,.9-.243,1.8,1.8,0,0,1-.9-1.559" transform="translate(-159.399)" fill="#0092e5"/>
        <path id="패스_12510" data-name="패스 12510" d="M173.381,22.51V34.864a2.061,2.061,0,0,1-2.059,2.059v3.089a5.147,5.147,0,0,0,5.148-5.148V22.51Z" transform="translate(-136.06 -17.877)" fill="#0092e5"/>
        <path id="패스_12511" data-name="패스 12511" d="M1.25,34.864H4.339V24.054a1.544,1.544,0,0,0-3.089,0Z" transform="translate(-0.993 -17.877)" fill="#0092e5"/>
        <path id="패스_12512" data-name="패스 12512" d="M206.336,24.054v10.81h3.089V24.054a1.544,1.544,0,0,0-3.089,0" transform="translate(-163.868 -17.877)" fill="#0092e5"/>
        <path id="패스_12513" data-name="패스 12513" d="M34.5,30.066,29.5,22.734a.515.515,0,0,0-.425-.225h-2.3a.515.515,0,0,0-.515.515v11.84H29.35V27.306l4.994,7.332a.515.515,0,0,0,.426.225h2.3a.515.515,0,0,0,.515-.515V22.509H34.5Z" transform="translate(-20.856 -17.876)" fill="#0092e5"/>
        <path id="패스_12514" data-name="패스 12514" d="M91.8,22.51a.515.515,0,0,0-.515.515V34.35a.515.515,0,0,0,.515.515h6.692V31.776H94.377v-1.8h4.118V27.4H94.377V25.6h4.118V22.51H91.8Z" transform="translate(-72.499 -17.877)" fill="#0092e5"/>
        <path id="패스_12515" data-name="패스 12515" d="M143.514,31.776H139.4v-1.8h4.118V27.4H139.4V25.6h4.118V22.51h-6.692a.515.515,0,0,0-.515.515V34.35a.515.515,0,0,0,.515.515h6.692Z" transform="translate(-108.252 -17.877)" fill="#0092e5"/>
      </g>
    </g>
  </g>
</svg>
