<svg xmlns="http://www.w3.org/2000/svg" xmlns:xlink="http://www.w3.org/1999/xlink" width="277.063" height="25" viewBox="0 0 277.063 25">
  <defs>
    <clipPath id="clip-path">
      <rect id="사각형_2353" data-name="사각형 2353" width="205.556" height="22.222" fill="#fff"/>
    </clipPath>
    <clipPath id="clip-path-2">
      <rect id="사각형_4380" data-name="사각형 4380" width="62.5" height="25" transform="translate(0 0)" fill="#fff"/>
    </clipPath>
  </defs>
  <g id="ineeji" transform="translate(-4.626 -114)">
    <g id="Frame" transform="translate(76.134 116.778)" clip-path="url(#clip-path)">
      <path id="패스_12516" data-name="패스 12516" d="M280.014,23.113h-2.93V35.592h2.93Z" transform="translate(-220.58 -18.399)" fill="#fff"/>
      <path id="패스_12517" data-name="패스 12517" d="M302.362,35.611V23.132h2.55l6.892,8.043V23.132h2.93V35.611h-2.55l-6.891-8.085v8.085Z" transform="translate(-240.703 -18.415)" fill="#fff"/>
      <path id="패스_12518" data-name="패스 12518" d="M381.057,25.56h-4.112v2.417h3.807V30.41h-3.807v5.2h-2.93V23.132h7.042Z" transform="translate(-297.744 -18.415)" fill="#fff"/>
      <path id="패스_12519" data-name="패스 12519" d="M419,23.113h-2.93V35.592H419Z" transform="translate(-331.225 -18.399)" fill="#fff"/>
      <path id="패스_12520" data-name="패스 12520" d="M441.352,35.611V23.132H443.9l6.888,8.043V23.132h2.93V35.611h-2.55l-6.888-8.085v8.085Z" transform="translate(-351.349 -18.415)" fill="#fff"/>
      <path id="패스_12521" data-name="패스 12521" d="M516.051,23.113h-2.93V35.592h2.93Z" transform="translate(-408.483 -18.399)" fill="#fff"/>
      <path id="패스_12522" data-name="패스 12522" d="M537.341,25.56v10.05h-2.93V25.56h-2.76V23.132h8.45V25.56Z" transform="translate(-423.234 -18.415)" fill="#fff"/>
      <path id="패스_12523" data-name="패스 12523" d="M584.387,25.56h-4.243v2.417h4.033V30.41h-4.033v2.768h4.243v2.433H577.21V23.132h7.177Z" transform="translate(-459.502 -18.415)" fill="#fff"/>
      <path id="패스_12524" data-name="패스 12524" d="M643.327,25.493A3.794,3.794,0,0,0,642.2,28.32a3.689,3.689,0,0,0,1.162,2.807,3.764,3.764,0,0,0,2.72,1.029,3.868,3.868,0,0,0,2.815-1.068A3.706,3.706,0,0,0,650,28.3a3.917,3.917,0,0,0-1.1-2.807,4.111,4.111,0,0,0-2.8-1.068A3.926,3.926,0,0,0,643.327,25.493Zm7.708-1.91a6.566,6.566,0,0,1,0,9.4,6.845,6.845,0,0,1-4.909,1.832,7.058,7.058,0,0,1-4.949-1.832,6.324,6.324,0,0,1-1.979-4.639,6.5,6.5,0,0,1,6.927-6.565A6.828,6.828,0,0,1,651.035,23.583Z" transform="translate(-508.85 -17.334)" fill="#fff"/>
      <path id="패스_12525" data-name="패스 12525" d="M717.515,28.859h1.047a2.271,2.271,0,0,0,1.578-.468,1.727,1.727,0,0,0,.476-1.236,1.633,1.633,0,0,0-.476-1.216,2.308,2.308,0,0,0-1.638-.468h-.987Zm1.543-5.746a4.815,4.815,0,0,1,3.331,1.029,3.8,3.8,0,0,1,1.237,3.029,3.984,3.984,0,0,1-1.086,2.939,4.373,4.373,0,0,1-3.236,1.1h-1.788v4.378h-2.93V23.113Z" transform="translate(-568.863 -18.399)" fill="#fff"/>
      <path id="패스_12526" data-name="패스 12526" d="M766.165,25.56v10.05h-2.93V25.56h-2.76V23.132h8.45V25.56Z" transform="translate(-605.395 -18.415)" fill="#fff"/>
      <path id="패스_12527" data-name="패스 12527" d="M809.1,23.113h-2.93V35.592h2.93Z" transform="translate(-641.771 -18.399)" fill="#fff"/>
      <path id="패스_12528" data-name="패스 12528" d="M828.044,35.611l2.038-12.479h2.435l3.16,7.466,3.16-7.466h2.435l2.034,12.479h-2.93l-1.007-7.446-3.18,7.446h-1.027l-3.176-7.446-1.011,7.446Z" transform="translate(-659.185 -18.415)" fill="#fff"/>
      <path id="패스_12529" data-name="패스 12529" d="M913.583,31.046l-1.562-4.191-1.578,4.191Zm.8,2.207h-4.8l-.971,2.359h-3.045l5.119-12.479h2.684l5,12.479h-3.045Z" transform="translate(-720.9 -18.415)" fill="#fff"/>
      <path id="패스_12530" data-name="패스 12530" d="M975.252,23.113v10.05h3.937V35.6h-6.868V23.113Z" transform="translate(-774.041 -18.399)" fill="#fff"/>
      <path id="패스_12531" data-name="패스 12531" d="M3.715,1.824A1.84,1.84,0,0,1,1.86,3.649,1.839,1.839,0,0,1,0,1.824,1.843,1.843,0,0,1,1.856,0,1.844,1.844,0,0,1,3.715,1.824Z" fill="#fff"/>
      <path id="패스_12532" data-name="패스 12532" d="M223.373,0a1.871,1.871,0,0,0-.928.246,1.807,1.807,0,0,1,0,3.158,1.871,1.871,0,0,0,.928.246,1.84,1.84,0,0,0,1.856-1.824A1.84,1.84,0,0,0,223.373,0Z" transform="translate(-177.083)" fill="#fff"/>
      <path id="패스_12533" data-name="패스 12533" d="M210.651,1.824a1.817,1.817,0,0,1,.928-1.579A1.87,1.87,0,0,0,210.651,0a1.84,1.84,0,0,0-1.856,1.824,1.84,1.84,0,0,0,1.856,1.824,1.87,1.87,0,0,0,.928-.246A1.812,1.812,0,0,1,210.651,1.824Z" transform="translate(-166.216)" fill="#fff"/>
      <path id="패스_12534" data-name="패스 12534" d="M180.35,23.017V35.535a2.106,2.106,0,0,1-2.121,2.086v3.131a5.261,5.261,0,0,0,5.305-5.216V23.017Z" transform="translate(-141.884 -18.323)" fill="#fff"/>
      <path id="패스_12535" data-name="패스 12535" d="M1.3,35.554H4.487V24.6a1.59,1.59,0,0,0-3.18,0V35.554Z" transform="translate(-1.037 -18.338)" fill="#fff"/>
      <path id="패스_12536" data-name="패스 12536" d="M214.647,24.6V35.554h3.184V24.6a1.592,1.592,0,0,0-3.184,0Z" transform="translate(-170.875 -18.338)" fill="#fff"/>
      <path id="패스_12537" data-name="패스 12537" d="M35.809,30.678l-5.147-7.43a.537.537,0,0,0-.44-.226H27.851a.527.527,0,0,0-.531.522v12H30.5V27.878l5.147,7.43a.527.527,0,0,0,.44.226h2.371a.527.527,0,0,0,.531-.522v-12H35.809Z" transform="translate(-21.748 -18.323)" fill="#fff"/>
      <path id="패스_12538" data-name="패스 12538" d="M95.5,23.017a.527.527,0,0,0-.531.522V35.013a.527.527,0,0,0,.531.522h6.9V32.4H98.151V30.58H102.4V27.972H98.151V26.147H102.4v-3.13H95.5Z" transform="translate(-75.601 -18.323)" fill="#fff"/>
      <path id="패스_12539" data-name="패스 12539" d="M149.22,32.424h-4.247V30.6h4.247V27.991h-4.247V26.167h4.247v-3.13h-6.9a.527.527,0,0,0-.531.522V35.032a.527.527,0,0,0,.531.522h6.9Z" transform="translate(-112.875 -18.338)" fill="#fff"/>
    </g>
    <g id="그룹_7208" data-name="그룹 7208" transform="translate(4.626 114)">
      <g id="그룹_7205" data-name="그룹 7205" transform="translate(0 0)" clip-path="url(#clip-path-2)">
        <path id="패스_13880" data-name="패스 13880" d="M12.5,0A12.5,12.5,0,1,0,25,12.5,12.5,12.5,0,0,0,12.5,0" transform="translate(0 0)" fill="#fff"/>
        <path id="패스_13881" data-name="패스 13881" d="M121.35,12.5A12.492,12.492,0,0,1,127.6,1.676,12.5,12.5,0,1,0,121.35,25a12.437,12.437,0,0,0,6.25-1.676A12.492,12.492,0,0,1,121.35,12.5" transform="translate(-83.85 0)" fill="#fff"/>
        <path id="패스_13882" data-name="패스 13882" d="M196.738,0a12.437,12.437,0,0,0-6.25,1.676,12.5,12.5,0,0,1,0,21.647A12.5,12.5,0,1,0,196.738,0" transform="translate(-146.738 0)" fill="#fff"/>
      </g>
    </g>
  </g>
</svg>
