<svg xmlns="http://www.w3.org/2000/svg" width="848" height="470" viewBox="0 0 848 470">
  <g id="title" transform="translate(4912 8448)">
    <rect id="사각형_2442" data-name="사각형 2442" width="848" height="470" transform="translate(-4912 -8448)" fill="#fff" opacity="0"/>
    <g id="title-2" data-name="title" transform="translate(-282 -0.448)">
      <path id="패스_12863" data-name="패스 12863" d="M0,1.923H6.416c5.1,0,8.086,2.944,8.086,7.338a7.141,7.141,0,0,1-3.429,6.416,7.018,7.018,0,0,1,6.065,7.339c0,5.142-3.779,8.218-9.1,8.218H0ZM1.933,15.194H6.592a5.639,5.639,0,0,0,4-1.23,5.526,5.526,0,0,0,1.933-4.482,5.68,5.68,0,0,0-1.977-4.571,7.667,7.667,0,0,0-4.879-1.23H1.933Zm0,14.283H6.856c1.977,0,4.394,0,6.371-1.758a5.7,5.7,0,0,0,1.891-4.483c0-2.636-.923-4.438-3.121-5.45A13.027,13.027,0,0,0,6.5,16.951H1.933Z" transform="translate(-4630 -8446.749)" fill="#fff"/>
      <path id="패스_12864" data-name="패스 12864" d="M17.1,19.255a7.2,7.2,0,0,0,7.119,7.559,6.845,6.845,0,0,0,6.241-4.088l1.494.879a8.665,8.665,0,0,1-7.866,4.877c-5.582,0-8.833-4.13-8.833-9.36,0-6.239,4.306-9.448,8.7-9.448,4.835,0,8.482,3.867,8.482,9.581Zm13.492-1.671a6.734,6.734,0,0,0-6.636-6.239,6.852,6.852,0,0,0-6.724,6.239Z" transform="translate(-4623.634 -8443.514)" fill="#fff"/>
      <path id="패스_12865" data-name="패스 12865" d="M37.075,28.191,28.55,9.953h2.021l7.515,15.952L44.634,9.953h2.021L34.878,37.992H32.856Z" transform="translate(-4618.084 -8443.397)" fill="#fff"/>
      <path id="패스_12866" data-name="패스 12866" d="M61.279,19.08a9.4,9.4,0,0,1-18.81,0,9.4,9.4,0,1,1,18.81,0m-1.845,0a7.562,7.562,0,1,0-15.119,0,7.562,7.562,0,1,0,15.119,0" transform="translate(-4612.275 -8443.514)" fill="#fff"/>
      <path id="패스_12867" data-name="패스 12867" d="M59.24,10.069H61v2.812a5.988,5.988,0,0,1,5.494-3.208,5.569,5.569,0,0,1,4.966,2.5,8.641,8.641,0,0,1,.879,4.527V28H70.579V16.706a6.632,6.632,0,0,0-.7-3.6,3.8,3.8,0,0,0-3.515-1.759,4.718,4.718,0,0,0-4.4,2.506A9.74,9.74,0,0,0,61,18.683V28H59.24Z" transform="translate(-4605.275 -8443.514)" fill="#fff"/>
      <path id="패스_12868" data-name="패스 12868" d="M87.681,0H89.44V32.038H87.681V28.829a8.167,8.167,0,0,1-6.942,3.692c-4.527,0-8.789-3.251-8.789-9.536,0-6.548,4.438-9.274,8.789-9.274a8.115,8.115,0,0,1,6.942,3.516ZM73.8,22.942c0,5.229,3.427,7.91,7.032,7.91,3.56,0,6.944-2.682,6.944-7.91,0-4.176-2.594-7.559-7.032-7.559-3.692,0-6.944,2.548-6.944,7.559" transform="translate(-4599.97 -8447.552)" fill="#fff"/>
      <path id="패스_12869" data-name="패스 12869" d="M102.515,28.191,93.989,9.953h2.021l7.515,15.952,6.548-15.952h2.021L100.318,37.992H98.3Z" transform="translate(-4590.772 -8443.397)" fill="#fff"/>
      <path id="패스_12870" data-name="패스 12870" d="M126.748,19.08a9.4,9.4,0,0,1-18.808,0,9.4,9.4,0,1,1,18.808,0m-1.845,0a7.561,7.561,0,1,0-15.118,0,7.561,7.561,0,1,0,15.118,0" transform="translate(-4584.949 -8443.514)" fill="#fff"/>
      <path id="패스_12871" data-name="패스 12871" d="M126.344,9.953v10.81c0,1.274.044,3.165,1.142,4.483a5.095,5.095,0,0,0,7.119,0c1.1-1.318,1.142-3.209,1.142-4.483V9.953h1.758v11.3a7.736,7.736,0,0,1-1.361,4.921,7.014,7.014,0,0,1-10.2,0,7.738,7.738,0,0,1-1.362-4.921V9.953Z" transform="translate(-4578.001 -8443.397)" fill="#fff"/>
      <path id="패스_12872" data-name="패스 12872" d="M137.885,10.069h1.758V12.4A4.237,4.237,0,0,1,143.6,9.674a4.164,4.164,0,0,1,1.889.439l-.879,1.582a2.029,2.029,0,0,0-1.318-.352c-3.6,0-3.648,4.791-3.648,7.032V28h-1.758Z" transform="translate(-4572.451 -8443.514)" fill="#fff"/>
      <path id="패스_12873" data-name="패스 12873" d="M167.788,3.681h-12.13V14.315h11.866v1.758H155.658v13.4h12.13v1.758H153.725V1.923h14.063Z" transform="translate(-4565.84 -8446.749)" fill="#fff"/>
      <path id="패스_12874" data-name="패스 12874" d="M173.189,18.479l-6.636-8.525h2.154l5.668,7.383,5.582-7.383h2.153l-6.5,8.525,7.207,9.4H180.66l-6.285-8.262-6.285,8.262h-2.153Z" transform="translate(-4560.743 -8443.397)" fill="#fff"/>
      <path id="패스_12875" data-name="패스 12875" d="M182.081,38.108h-1.758V10.071h1.758v3.12a8.428,8.428,0,0,1,7.032-3.516c5.406,0,8.7,4.044,8.7,9.23,0,5.274-3.339,9.58-8.789,9.58a7.8,7.8,0,0,1-6.944-3.692Zm13.887-19.2c0-4.923-3.251-7.559-6.944-7.559-3.515,0-7.032,2.5-7.032,7.471,0,4.483,2.461,8,6.988,8s6.988-3.515,6.988-7.91" transform="translate(-4554.739 -8443.514)" fill="#fff"/>
      <path id="패스_12876" data-name="패스 12876" d="M197.326,19.255a7.2,7.2,0,0,0,7.119,7.559,6.843,6.843,0,0,0,6.241-4.088l1.494.879a8.663,8.663,0,0,1-7.866,4.877c-5.58,0-8.833-4.13-8.833-9.36,0-6.239,4.307-9.448,8.7-9.448,4.835,0,8.483,3.867,8.483,9.581Zm13.492-1.671a6.732,6.732,0,0,0-6.636-6.239,6.854,6.854,0,0,0-6.724,6.239Z" transform="translate(-4548.412 -8443.514)" fill="#fff"/>
      <path id="패스_12877" data-name="패스 12877" d="M225.812,14.289a8.189,8.189,0,0,0-6.2-2.944c-4.394,0-7.471,3.383-7.471,7.779a7.348,7.348,0,0,0,7.383,7.691,9.021,9.021,0,0,0,6.5-3.209v2.374a9.777,9.777,0,0,1-6.548,2.5,8.947,8.947,0,0,1-9.185-9.318c0-5.317,3.559-9.492,9.316-9.492a9.422,9.422,0,0,1,6.2,2.285Z" transform="translate(-4542.228 -8443.514)" fill="#fff"/>
      <path id="패스_12878" data-name="패스 12878" d="M227.333,13.512v16.26h-1.758V13.512H223.6v-1.67h1.977V5.426h1.758v6.416h3.12v1.67Z" transform="translate(-4536.677 -8445.287)" fill="#fff"/>
      <path id="패스_12879" data-name="패스 12879" d="M245.593,10.071h1.758V28h-1.758V24.792a8.19,8.19,0,0,1-6.988,3.692c-4.7,0-8.745-3.559-8.745-9.448,0-5.538,3.517-9.362,8.745-9.362a8.185,8.185,0,0,1,6.988,3.516ZM231.705,18.9c0,4.044,2.506,7.91,7.032,7.91,4.483,0,6.944-3.78,6.944-7.91,0-5.318-3.911-7.559-6.988-7.559-3.559,0-6.988,2.68-6.988,7.559" transform="translate(-4534.063 -8443.514)" fill="#fff"/>
      <path id="패스_12880" data-name="패스 12880" d="M248.969,13.512v16.26h-1.758V13.512h-1.977v-1.67h1.977V5.426h1.758v6.416h3.12v1.67Z" transform="translate(-4527.647 -8445.287)" fill="#fff"/>
      <path id="패스_12881" data-name="패스 12881" d="M252.054,6.215a1.583,1.583,0,1,1,3.165,0,1.583,1.583,0,1,1-3.165,0m2.462,23.908h-1.758V12.193h1.758Z" transform="translate(-4524.8 -8445.637)" fill="#fff"/>
      <path id="패스_12882" data-name="패스 12882" d="M275.948,19.08a9.406,9.406,0,0,1-18.811,0,9.406,9.406,0,0,1,18.811,0m-1.847,0a7.561,7.561,0,1,0-15.118,0,7.561,7.561,0,1,0,15.118,0" transform="translate(-4522.679 -8443.514)" fill="#fff"/>
      <path id="패스_12883" data-name="패스 12883" d="M273.909,10.069h1.758v2.812a5.989,5.989,0,0,1,5.494-3.208,5.564,5.564,0,0,1,4.965,2.5,8.628,8.628,0,0,1,.88,4.527V28h-1.758V16.706a6.644,6.644,0,0,0-.7-3.6,3.809,3.809,0,0,0-3.516-1.759,4.718,4.718,0,0,0-4.4,2.506,9.741,9.741,0,0,0-.967,4.833V28h-1.758Z" transform="translate(-4515.679 -8443.514)" fill="#fff"/>
      <path id="패스_12884" data-name="패스 12884" d="M295.583,13.365a3.278,3.278,0,0,0-3.12-2.021,2.887,2.887,0,0,0-3.032,2.856c0,1.759,1.406,2.329,3.165,3.033,1.8.7,3.471,1.186,4.612,2.636a4.309,4.309,0,0,1,.924,2.9c0,4.086-3.076,5.712-5.845,5.712a6.136,6.136,0,0,1-6.2-4.747l1.715-.527a4.573,4.573,0,0,0,4.482,3.6,3.843,3.843,0,0,0,4-3.956c0-2.021-1.273-2.768-4-3.867-1.8-.747-3.12-1.318-3.911-2.373a3.764,3.764,0,0,1-.792-2.33,4.549,4.549,0,0,1,4.791-4.614,4.829,4.829,0,0,1,4.7,2.9Z" transform="translate(-4510.595 -8443.514)" fill="#fff"/>
      <path id="패스_12891" data-name="패스 12891" d="M0,0H417.537V42.145H0Z" transform="translate(-4630 -8447.552)" fill="none"/>
      <path id="패스_12892" data-name="패스 12892" d="M0,0H11.241V57.673H0Z" transform="translate(-4626.369 -8354.005)" fill="#fff"/>
      <path id="패스_12885" data-name="패스 12885" d="M62.651,0V38.477L27.545,0H19.764V57.673H31V19.109L66.111,57.673h7.781V0Z" transform="translate(-4621.751 -8354.005)" fill="#fff"/>
      <path id="패스_12886" data-name="패스 12886" d="M67.343,0V57.673H78.585V32.252H96.742V22.567H78.585V9.685H97.953V0Z" transform="translate(-4601.893 -8354.005)" fill="#fff"/>
      <path id="패스_12896" data-name="패스 12896" d="M0,0H11.241V57.673H0Z" transform="translate(-4494.26 -8354.005)" fill="#fff"/>
      <path id="패스_12887" data-name="패스 12887" d="M155.92,0V38.477L120.815,0h-7.783V57.673h11.241V19.109l35.105,38.564h7.783V0Z" transform="translate(-4582.824 -8354.005)" fill="#fff"/>
      <path id="패스_12897" data-name="패스 12897" d="M0,0H11.24V57.673H0Z" transform="translate(-4402.354 -8354.005)" fill="#fff"/>
      <path id="패스_12889" data-name="패스 12889" d="M173.361,0V9.685H186.33V57.673h11.241V9.685h12.97V0Z" transform="translate(-4557.645 -8354.005)" fill="#fff"/>
      <path id="패스_12890" data-name="패스 12890" d="M204.47,0V57.673h31.993V47.988H215.711V32.252H235.6V22.567H215.711V9.685h20.752V0Z" transform="translate(-4544.661 -8354.005)" fill="#fff"/>
      <path id="패스_12543" data-name="패스 12543" d="M62.175,88.675c0,17.553-12.625,30.089-30.782,30.089S.61,106.228.61,88.675,13.235,58.5,31.392,58.5,62.175,71.122,62.175,88.675m-11.587,0C50.588,77,42.634,68.7,31.392,68.7S12.2,77,12.2,88.675s7.954,19.887,19.2,19.887,19.2-8.215,19.2-19.887" transform="translate(-4629.746 -8329.59)" fill="#fff"/>
      <path id="패스_12544" data-name="패스 12544" d="M68.2,59.414c6.484,0,10.982.692,15.218,4.409A18.369,18.369,0,0,1,89.3,77.745c0,2.248-.347,8.473-4.757,12.882-3.2,3.2-7.954,5.1-14.612,5.1H62.663v21.357H51.422V59.414ZM62.663,86.045h4.582c2.161,0,4.928,0,7.349-1.816a8.6,8.6,0,0,0,3.114-6.744,7.946,7.946,0,0,0-3.2-6.572c-2.336-1.641-5.275-1.816-7.956-1.816H62.663Z" transform="translate(-4608.538 -8329.207)" fill="#fff"/>
      <path id="패스_12545" data-name="패스 12545" d="M105.156,69.1v47.988H93.915V69.1H80.946V59.413h37.18V69.1Z" transform="translate(-4596.215 -8329.208)" fill="#fff"/>
      <path id="패스_12893" data-name="패스 12893" d="M0,0H11.241V57.673H0Z" transform="translate(-4471.177 -8269.793)" fill="#fff"/>
      <path id="패스_12546" data-name="패스 12546" d="M137.539,59.414h8.127l15.3,36.662,16-36.662h8.127l9.685,57.673H183.366l-5.188-35.538L162.7,117.087h-3.8L144.11,81.549l-5.879,35.538H126.817Z" transform="translate(-4577.071 -8329.207)" fill="#fff"/>
      <path id="패스_12547" data-name="패스 12547" d="M219.157,104.982H195.9l-5.1,12.1H178.6L203.42,59.414h8.82l24.124,57.673H224.258Zm-3.285-9.166-8.214-20.752-8.215,20.752Z" transform="translate(-4555.456 -8329.207)" fill="#fff"/>
      <path id="패스_12548" data-name="패스 12548" d="M235.353,59.414V107.4h17.811v9.685H224.112V59.414Z" transform="translate(-4536.463 -8329.207)" fill="#fff"/>
      <path id="패스_12549" data-name="패스 12549" d="M31.993,132.352a11.266,11.266,0,0,0-9.424-4.928c-6.054,0-7.956,3.8-7.956,6.744a4.857,4.857,0,0,0,1.816,3.891c1.383,1.3,3.285,1.99,6.917,3.287,4.5,1.556,8.734,3.113,11.673,5.793,2.594,2.334,4.928,6.225,4.928,12.106,0,11.24-8.127,18.936-20.06,18.936-10.635,0-16.861-6.486-19.887-10.9l7.35-7a13.521,13.521,0,0,0,12.1,7.695c5.1,0,8.905-3.113,8.905-7.956a6.7,6.7,0,0,0-2.247-5.188c-2.161-1.989-5.621-3.113-8.907-4.237a27.766,27.766,0,0,1-9.6-5.015c-1.9-1.643-4.582-4.843-4.582-10.722,0-8.473,5.708-16.947,18.5-16.947a22.176,22.176,0,0,1,16.342,6.745Z" transform="translate(-4630 -8304.792)" fill="#fff"/>
      <path id="패스_12550" data-name="패스 12550" d="M67.189,128.512H46.438v12.882H66.325v9.685H46.438v15.737H67.189V176.5H35.2V118.827H67.189Z" transform="translate(-4615.31 -8304.41)" fill="#fff"/>
      <path id="패스_12551" data-name="패스 12551" d="M82.689,118.828c7.956,0,12.019,2.075,14.7,4.323a16.38,16.38,0,0,1,5.706,12.97c0,5.62-2.248,10.549-6.744,13.574A15.962,15.962,0,0,1,90.04,152.2l17.985,24.3H94.017L78.625,153.328H77.242V176.5H66V118.828Zm-5.447,26.544h3.2c2.161,0,11.068-.259,11.068-8.732,0-8.561-8.82-8.647-10.9-8.647H77.242Z" transform="translate(-4602.453 -8304.41)" fill="#fff"/>
      <path id="패스_12894" data-name="패스 12894" d="M0,0H11.241V57.673H0Z" transform="translate(-4487.258 -8185.582)" fill="#fff"/>
      <path id="패스_12552" data-name="패스 12552" d="M149.965,128.512H129.213v12.882H149.1v9.685H129.213v15.737h20.752V176.5H117.972V118.827h31.993Z" transform="translate(-4580.762 -8304.41)" fill="#fff"/>
      <path id="패스_12553" data-name="패스 12553" d="M177.475,132.352a11.266,11.266,0,0,0-9.424-4.928c-6.054,0-7.956,3.8-7.956,6.744a4.857,4.857,0,0,0,1.816,3.891c1.383,1.3,3.285,1.99,6.917,3.287,4.5,1.556,8.734,3.113,11.673,5.793,2.594,2.334,4.928,6.225,4.928,12.106,0,11.24-8.127,18.936-20.06,18.936-10.635,0-16.861-6.486-19.887-10.9l7.35-7a13.521,13.521,0,0,0,12.1,7.695c5.1,0,8.905-3.113,8.905-7.956a6.7,6.7,0,0,0-2.247-5.188c-2.161-1.989-5.621-3.113-8.907-4.237a27.766,27.766,0,0,1-9.6-5.015c-1.9-1.643-4.582-4.843-4.582-10.722,0-8.473,5.708-16.947,18.5-16.947a22.176,22.176,0,0,1,16.342,6.745Z" transform="translate(-4569.28 -8304.792)" fill="#fff"/>
      <path id="패스_12554" data-name="패스 12554" d="M183.975,122.789v14.222H180V122.789h-3.835v-3.555H187.81v3.555Zm4.443,14.222,3.182-18.1h2.9l4.35,10.806,4.585-10.806h2.9l2.853,18.1h-3.976l-1.356-9.777-4.211,10.011h-1.59l-4.116-10.011-1.544,9.777Z" transform="translate(-4556.476 -8304.377)" fill="#fff"/>
      <path id="패스_12895" data-name="패스 12895" d="M0,0H346.7V227.393H0Z" transform="translate(-4630 -8354.005)" fill="none"/>
      <path id="패스_12888" data-name="패스 12888" d="M.96,3.119V31.481H14.566v-1.7H2.831V16.811H14.31v-1.7H2.831V4.821H14.566v-1.7Z" transform="translate(-4629.599 -8073.909)" fill="#fff"/>
      <path id="패스_12556" data-name="패스 12556" d="M13.89,11h1.7v2.721a5.793,5.793,0,0,1,5.315-3.1,5.383,5.383,0,0,1,4.8,2.424,8.357,8.357,0,0,1,.85,4.38V28.35h-1.7V17.422a6.432,6.432,0,0,0-.68-3.487,3.684,3.684,0,0,0-3.4-1.7,4.563,4.563,0,0,0-4.251,2.424,9.426,9.426,0,0,0-.935,4.677V28.35h-1.7Z" transform="translate(-4624.203 -8070.779)" fill="#fff"/>
      <path id="패스_12557" data-name="패스 12557" d="M27.976,19.888A6.964,6.964,0,0,0,34.863,27.2,6.621,6.621,0,0,0,40.9,23.247l1.446.85a8.383,8.383,0,0,1-7.611,4.72c-5.4,0-8.547-4-8.547-9.057,0-6.038,4.167-9.141,8.419-9.141,4.677,0,8.207,3.74,8.207,9.268Zm13.053-1.616a6.515,6.515,0,0,0-6.421-6.038A6.63,6.63,0,0,0,28.1,18.272Z" transform="translate(-4619.069 -8070.779)" fill="#fff"/>
      <path id="패스_12558" data-name="패스 12558" d="M41.249,11h1.7v2.254a4.1,4.1,0,0,1,3.827-2.636,4.021,4.021,0,0,1,1.827.425l-.849,1.531a1.965,1.965,0,0,0-1.277-.34c-3.485,0-3.528,4.635-3.528,6.8V28.35h-1.7Z" transform="translate(-4612.784 -8070.779)" fill="#fff"/>
      <path id="패스_12559" data-name="패스 12559" d="M64.53,11V27.84c0,6.547-3.274,10.289-8.717,10.289-4.507,0-8.292-2.636-8.5-7.441h1.786c.3,3.614,3.019,5.825,6.718,5.825,6.846,0,7.016-6.888,7.016-8.673V25.372a8.317,8.317,0,0,1-6.846,3.446c-4.252,0-8.547-3.1-8.547-9.142,0-5.017,3.317-9.057,8.759-9.057a7.839,7.839,0,0,1,6.633,3.4V11ZM49.222,19.761c0,4.167,2.636,7.441,6.718,7.441,4.295,0,6.973-3.359,6.973-7.611,0-4.039-2.636-7.356-6.888-7.356-4.295,0-6.8,3.529-6.8,7.526" transform="translate(-4610.255 -8070.779)" fill="#fff"/>
      <path id="패스_12560" data-name="패스 12560" d="M70.107,28.535,61.859,10.889h1.956l7.27,15.435L77.42,10.889h1.956l-11.4,27.128H66.025Z" transform="translate(-4604.182 -8070.667)" fill="#fff"/>
      <path id="패스_12561" data-name="패스 12561" d="M97.525,8.038a6.062,6.062,0,0,0-5.57-3.487,5.041,5.041,0,0,0-5.271,5.273c0,3.06,2.126,4.082,4.974,5.484a40.087,40.087,0,0,1,5.655,2.976,6.236,6.236,0,0,1,3.019,5.485c0,4.762-4,8.292-8.844,8.292A8.1,8.1,0,0,1,84.9,29.084a9.306,9.306,0,0,1-1.827-3.1l1.614-.765a9.8,9.8,0,0,0,1.532,2.721,6.817,6.817,0,0,0,5.315,2.424,6.594,6.594,0,0,0,6.844-6.548,4.992,4.992,0,0,0-2.764-4.465c-.808-.468-2.466-1.318-4.8-2.465C88,15.521,86.6,14.756,85.62,13.14a6.084,6.084,0,0,1-.893-3.232A6.888,6.888,0,0,1,92,2.85a7.6,7.6,0,0,1,6.888,4.04Z" transform="translate(-4595.33 -8074.022)" fill="#fff"/>
      <path id="패스_12562" data-name="패스 12562" d="M113.47,11h1.7V28.35h-1.7v-3.1a7.924,7.924,0,0,1-6.761,3.572c-4.55,0-8.462-3.444-8.462-9.142,0-5.356,3.4-9.056,8.462-9.056a7.919,7.919,0,0,1,6.761,3.4Zm-13.437,8.547c0,3.912,2.424,7.654,6.8,7.654,4.337,0,6.718-3.657,6.718-7.654,0-5.144-3.784-7.314-6.761-7.314-3.444,0-6.761,2.594-6.761,7.314" transform="translate(-4588.995 -8070.779)" fill="#fff"/>
      <path id="패스_12563" data-name="패스 12563" d="M114.459,10.889,120.582,25.3l6.038-14.415h1.87L120.582,29.3l-7.994-18.412Z" transform="translate(-4583.009 -8070.667)" fill="#fff"/>
      <path id="패스_12564" data-name="패스 12564" d="M125.727,7.273a1.531,1.531,0,1,1,3.062,0,1.531,1.531,0,1,1-3.062,0m2.381,23.13h-1.7V13.055h1.7Z" transform="translate(-4577.525 -8072.833)" fill="#fff"/>
      <path id="패스_12565" data-name="패스 12565" d="M131.487,11h1.7v2.721a5.793,5.793,0,0,1,5.315-3.1,5.386,5.386,0,0,1,4.8,2.424,8.357,8.357,0,0,1,.85,4.38V28.35h-1.7V17.422a6.432,6.432,0,0,0-.68-3.487,3.686,3.686,0,0,0-3.4-1.7,4.564,4.564,0,0,0-4.252,2.424,9.426,9.426,0,0,0-.935,4.677V28.35h-1.7Z" transform="translate(-4575.122 -8070.779)" fill="#fff"/>
      <path id="패스_12566" data-name="패스 12566" d="M160.857,11V27.84c0,6.547-3.274,10.289-8.717,10.289-4.506,0-8.29-2.636-8.5-7.441h1.786c.3,3.614,3.019,5.825,6.717,5.825,6.846,0,7.017-6.888,7.017-8.673V25.372a8.319,8.319,0,0,1-6.846,3.446c-4.252,0-8.547-3.1-8.547-9.142,0-5.017,3.317-9.057,8.758-9.057a7.842,7.842,0,0,1,6.635,3.4V11ZM145.55,19.761c0,4.167,2.636,7.441,6.718,7.441,4.295,0,6.972-3.359,6.972-7.611,0-4.039-2.636-7.356-6.887-7.356-4.295,0-6.8,3.529-6.8,7.526" transform="translate(-4570.05 -8070.779)" fill="#fff"/>
      <path id="패스_12567" data-name="패스 12567" d="M159.06,27.127c7.058,0,16.711-.043,25.13-1.361l.211,1.743c-8.673,1.573-18.07,1.573-24.958,1.573Zm22.026-15.6c0,5.145-4.082,8.63-9.95,8.63s-9.95-3.485-9.95-8.63,4.082-8.632,9.95-8.632,9.95,3.487,9.95,8.632m-17.731,0c0,3.869,3.274,6.674,7.781,6.674s7.78-2.8,7.78-6.674-3.273-6.676-7.78-6.676-7.781,2.806-7.781,6.676M189.121,37.8h-2.254V0h2.254Z" transform="translate(-4563.613 -8075.211)" fill="#fff"/>
      <path id="패스_12568" data-name="패스 12568" d="M222.64,31.518H188.369V29.6H222.64Zm-3.1-10.843c-4.975-1.276-11.819-5.485-14.16-11.4-2.339,5.91-9.1,10.077-14.116,11.4L190.2,18.762c5.4-1.106,13.988-6.717,13.988-13.733V2.01h2.339V5.029c0,6.972,8.717,12.67,14.074,13.733Z" transform="translate(-4551.381 -8074.373)" fill="#fff"/>
      <path id="패스_12569" data-name="패스 12569" d="M215.22,3.911H232.1v23.98H215.22Zm2.211,22.111h12.5V5.783h-12.5Zm31.422-8.547h-6.633V37.714h-2.254V0h2.254V15.562h6.633Z" transform="translate(-4540.174 -8075.212)" fill="#fff"/>
      <path id="패스_12570" data-name="패스 12570" d="M273.911,31.543H239.639V29.629h34.272Zm-4.082-9.78H244.275V2.459h25.17V4.372H246.57v6.633h22.067v1.871H246.57V19.85h23.259Z" transform="translate(-4529.982 -8074.185)" fill="#fff"/>
      <path id="패스_12571" data-name="패스 12571" d="M287.385,6.876H265.019V5H275.1V.03h2.255V5h10.034ZM276.2,23.2c-5.356,0-8.929-2.72-8.929-6.887,0-4.21,3.573-6.931,8.929-6.931s8.887,2.721,8.887,6.931c0,4.167-3.529,6.887-8.887,6.887m0-1.828c4.039,0,6.761-2.126,6.761-5.059,0-3.019-2.721-5.1-6.761-5.1s-6.8,2.084-6.8,5.1c0,2.933,2.764,5.059,6.8,5.059M273.183,34.9h22.662v1.913H270.929V26.051h2.254Zm26.7-21.939V14.87h-5.909V28.39h-2.255V.03h2.255V12.956Z" transform="translate(-4519.389 -8075.199)" fill="#fff"/>
      <path id="패스_12572" data-name="패스 12572" d="M314.864,21.684a16.892,16.892,0,0,1-9.44-9.736,17.325,17.325,0,0,1-9.693,10.629L294.54,20.75c5.229-2.085,9.736-7.484,9.736-13.564V2.254h2.211V7.4c0,5.528,4.465,10.545,9.61,12.542ZM326,34.908v1.913H301.257V25.13h2.254v9.778Zm-3.188-23.6h-9.058V9.355h9.058V0h2.254V28.488h-2.254Z" transform="translate(-4507.068 -8075.211)" fill="#fff"/>
      <path id="패스_12573" data-name="패스 12573" d="M337.21,19.376c-4.381.935-7.909,1.106-14.245,1.106h-2.3V2.879h14.415V4.792h-12.2v5.655h11.777v1.87H322.88v6.251h.085c6.249,0,9.736-.17,13.945-1.106Zm-11.693,5.613h24.916V37.745h-2.254V26.9H325.516ZM350.432.03V22.777h-2.169V12.106h-6.336V22.565h-2.167V.71h2.167v9.481h6.336V.03Z" transform="translate(-4496.163 -8075.199)" fill="#fff"/>
      <path id="패스_12574" data-name="패스 12574" d="M34.059,59.384V61.3H0V59.384H14.8V51.732h2.254v7.652ZM29.935,72.225c0,4.295-5.017,6.8-13.011,6.8s-13.01-2.509-13.01-6.8,5.016-6.846,13.01-6.846,13.011,2.551,13.011,6.846M27.384,45.353H4.126V43.44H29.552v3.274a35.476,35.476,0,0,1-1.021,9.907l-2.169-.3a33.645,33.645,0,0,0,1.021-9.61Zm.34,26.872c0-3.019-4.38-5.017-10.8-5.017s-10.756,2-10.756,5.017S10.5,77.2,16.923,77.2s10.8-1.956,10.8-4.975" transform="translate(-4630 -8057.081)" fill="#fff"/>
      <path id="패스_12575" data-name="패스 12575" d="M47.409,62.835a16.145,16.145,0,0,1-9.4-9.185,17.064,17.064,0,0,1-9.863,10.333L27,62.155c5.23-2,9.822-7.1,9.822-12.841V46.932H27.808V45.019H47.876v1.913H39.033v2.339c0,5.145,4.378,9.907,9.523,11.778Zm10.12,9.95c0,4.421-4.72,6.887-12.374,6.887-7.7,0-12.374-2.466-12.374-6.887S37.459,65.9,45.155,65.9c7.654,0,12.374,2.465,12.374,6.888m-2.211,0c0-3.147-4-5.06-10.163-5.06s-10.119,1.913-10.119,5.06,3.953,5.059,10.119,5.059,10.163-1.913,10.163-5.059M55.1,52.205V42h2.254V64.494H55.1V54.118H46.6V52.205Z" transform="translate(-4618.731 -8057.682)" fill="#fff"/>
      <path id="패스_12576" data-name="패스 12576" d="M65.9,69.256a104.865,104.865,0,0,0,11.608-1.063l.17,1.7c-8.63,1.616-18.028,1.616-24.916,1.616l-.383-2c3.317,0,7.186,0,11.268-.128V61.6H65.9Zm-12.16-8.122c5.315-1.7,9.907-6.166,9.907-11.821V49.1H54.506V47.23h9.142V42.255H65.9V47.23h9.4V49.1H65.9v.213c0,5.443,4.677,9.737,9.992,11.4L74.83,62.5c-4.465-1.532-8.418-4.635-10.034-8.844-1.573,4.465-5.485,7.695-9.95,9.268ZM82.441,79.8H80.187V42h2.254Z" transform="translate(-4608.138 -8057.682)" fill="#fff"/>
      <path id="패스_12577" data-name="패스 12577" d="M98.3,62.919a16.527,16.527,0,0,1-9.438-9.226,16.717,16.717,0,0,1-9.822,10.161L77.85,62.07c5.23-1.956,9.865-7.017,9.865-12.714V46.8H78.7V44.891H98.77V46.8H89.926v2.509c0,5.188,4.38,9.95,9.525,11.821ZM83.335,66.873h24.916V79.715H106V68.787H83.335ZM108.251,42V64.62H106V54.246h-8.5V52.333H106V42Z" transform="translate(-4597.508 -8057.682)" fill="#fff"/>
      <path id="패스_12578" data-name="패스 12578" d="M116.249,69.779c3.784-.213,7.611-.468,11.141-1.022l.17,1.743c-8.292,1.4-17.306,1.49-24.024,1.49l-.425-1.957c3.232,0,6.973,0,10.885-.169v-4.72c-4.55-.383-7.526-2.934-7.526-6.846,0-4.252,3.444-6.931,8.674-6.931,5.188,0,8.717,2.679,8.717,6.931,0,3.912-3.019,6.463-7.611,6.846ZM126.5,48.731H103.748V46.817H114V41.97h2.254v4.847H126.5ZM115.143,63.4c3.912,0,6.591-2.126,6.591-5.1,0-3.019-2.679-5.1-6.591-5.1-3.954,0-6.591,2.084-6.591,5.1,0,2.976,2.636,5.1,6.591,5.1M138.7,60.424H132.15v19.3H129.9V42.013h2.252V58.468H138.7Z" transform="translate(-4586.965 -8057.694)" fill="#fff"/>
      <path id="패스_12579" data-name="패스 12579" d="M151.161,64.419H139.085L135.3,73.731h-2.041l11.947-29.212,11.778,29.212h-2.041Zm-.68-1.7-5.315-13.437-5.4,13.437Z" transform="translate(-4574.381 -8056.63)" fill="#fff"/>
      <path id="패스_12898" data-name="패스 12898" d="M0,0H1.871V28.36H0Z" transform="translate(-4413.143 -8011.26)" fill="#fff"/>
      <path id="패스_12580" data-name="패스 12580" d="M195.3,59.029V60.9H161.16V59.029h15.945V53.588h2.254v5.441Zm-2.849-3.613c-5.4-.852-11.947-3.529-14.2-8.036-2.254,4.507-8.844,7.185-14.245,8.036l-.806-1.787c5.909-.721,13.9-4.336,13.9-9.651V42.15h2.3v1.828c0,5.315,7.993,8.929,13.862,9.651Zm-24.7,21.854h24.278v1.871H165.54V70.893h23.046v-4.38H165.455V64.727H190.8v7.951H167.751Z" transform="translate(-4562.737 -8057.619)" fill="#fff"/>
      <path id="패스_12581" data-name="패스 12581" d="M221.123,66.472H205.05v12.84H202.8V66.472H186.81V64.6h34.313Zm-6.506-21.431h-23.6V43.17h25.809v9.057H193.4v5.825h24.236v1.913H191.147v-9.61h23.47Z" transform="translate(-4552.031 -8057.193)" fill="#fff"/>
      <path id="패스_12582" data-name="패스 12582" d="M233.676,64.055a17.237,17.237,0,0,1-9.27-10.077,17.512,17.512,0,0,1-9.695,10.8l-1.233-1.786c5.273-2.169,9.737-7.611,9.737-13.777V44.071h2.211v5.145c0,5.7,4.38,10.97,9.566,13.054ZM244.943,76.9v1.913H220.2V67.286h2.254V76.9ZM241.755,57.89h-8.419V55.976h8.419V49.9h-8.419V47.983h8.419V42.031h2.254V70.3h-2.254Z" transform="translate(-4540.9 -8057.669)" fill="#fff"/>
      <path id="패스_12899" data-name="패스 12899" d="M0,0H484.27V97.329H0Z" transform="translate(-4630 -8075.211)" fill="none"/>
    </g>
  </g>
</svg>
