<svg xmlns="http://www.w3.org/2000/svg" width="36" height="36" viewBox="0 0 36 36">
  <g id="right_03" transform="translate(-1759 -447)">
    <g id="사각형_3886" data-name="사각형 3886" transform="translate(1759 447)" fill="#fff" stroke="#d5dcef" stroke-width="1">
      <rect width="36" height="36" rx="10" stroke="none"/>
      <rect x="0.5" y="0.5" width="35" height="35" rx="9.5" fill="none"/>
    </g>
    <g id="패스_13564" data-name="패스 13564" transform="translate(1777 456.979) rotate(45)" fill="#fff">
      <path d="M 0.9173430204391479 16.08265686035156 L 5.332902431488037 5.332902431488037 L 16.08265686035156 0.9173430204391479 L 11.6670970916748 11.6670970916748 L 0.9173430204391479 16.08265686035156 Z" stroke="none"/>
      <path d="M 15.16530418395996 1.834695816040039 L 5.716059684753418 5.716059684753418 L 1.834695816040039 15.16530418395996 L 11.2839412689209 11.2839412689209 L 15.16530418395996 1.834695816040039 M 17 0 L 12.05025005340576 12.05025005340576 L 0 17 L 4.949749946594238 4.949749946594238 L 17 0 Z" stroke="none" fill="#002d65"/>
    </g>
    <g id="패스_13563" data-name="패스 13563" transform="translate(1777 452.979) rotate(45)" fill="#fff">
      <path d="M 0.9173430204391479 16.08265686035156 L 5.332902431488037 5.332902431488037 L 16.08265686035156 0.9173430204391479 L 11.6670970916748 11.6670970916748 L 0.9173430204391479 16.08265686035156 Z" stroke="none"/>
      <path d="M 15.16530418395996 1.834695816040039 L 5.716059684753418 5.716059684753418 L 1.834695816040039 15.16530418395996 L 11.2839412689209 11.2839412689209 L 15.16530418395996 1.834695816040039 M 17 0 L 12.05025005340576 12.05025005340576 L 0 17 L 4.949749946594238 4.949749946594238 L 17 0 Z" stroke="none" fill="#002d65"/>
    </g>
    <g id="패스_13562" data-name="패스 13562" transform="translate(1777 448.979) rotate(45)" fill="#fff">
      <path d="M 0.9173430204391479 16.08265686035156 L 5.332902431488037 5.332902431488037 L 16.08265686035156 0.9173430204391479 L 11.6670970916748 11.6670970916748 L 0.9173430204391479 16.08265686035156 Z" stroke="none"/>
      <path d="M 15.16530418395996 1.834695816040039 L 5.716059684753418 5.716059684753418 L 1.834695816040039 15.16530418395996 L 11.2839412689209 11.2839412689209 L 15.16530418395996 1.834695816040039 M 17 0 L 12.05025005340576 12.05025005340576 L 0 17 L 4.949749946594238 4.949749946594238 L 17 0 Z" stroke="none" fill="#002d65"/>
    </g>
  </g>
</svg>
