<svg id="구성_요소_80_1" data-name="구성 요소 80 – 1" xmlns="http://www.w3.org/2000/svg" xmlns:xlink="http://www.w3.org/1999/xlink" width="222.203" height="200" viewBox="0 0 222.203 200">
  <defs>
    <linearGradient id="linear-gradient" x1="0.035" x2="0.969" y2="0.971" gradientUnits="objectBoundingBox">
      <stop offset="0" stop-color="#3d73b4"/>
      <stop offset="1" stop-color="#010339"/>
    </linearGradient>
    <linearGradient id="linear-gradient-2" x1="0.966" y1="0.132" x2="0.101" y2="0.899" gradientUnits="objectBoundingBox">
      <stop offset="0" stop-color="#ffba60"/>
      <stop offset="1" stop-color="#ff9000"/>
    </linearGradient>
    <filter id="패스_13612" x="49.929" y="24" width="172.274" height="172.274" filterUnits="userSpaceOnUse">
      <feOffset dx="10" dy="10" input="SourceAlpha"/>
      <feGaussianBlur stdDeviation="10" result="blur"/>
      <feFlood flood-opacity="0.251"/>
      <feComposite operator="in" in2="blur"/>
      <feComposite in="SourceGraphic"/>
    </filter>
    <filter id="사각형_4054" x="6" y="30.252" width="160" height="160" filterUnits="userSpaceOnUse">
      <feOffset dx="10" dy="10" input="SourceAlpha"/>
      <feGaussianBlur stdDeviation="10" result="blur-2"/>
      <feFlood/>
      <feComposite operator="in" in2="blur-2"/>
      <feComposite in="SourceGraphic"/>
    </filter>
    <linearGradient id="linear-gradient-3" x1="0.5" x2="0.5" y2="1.373" gradientUnits="objectBoundingBox">
      <stop offset="0" stop-color="#fff"/>
      <stop offset="1" stop-color="#fad4a4"/>
    </linearGradient>
    <filter id="빼기_37" x="43.782" y="68.841" width="65.001" height="42" filterUnits="userSpaceOnUse">
      <feOffset dy="3" input="SourceAlpha"/>
      <feGaussianBlur stdDeviation="1.5" result="blur-3"/>
      <feFlood flood-color="#ff9d00" flood-opacity="0.396"/>
      <feComposite operator="in" in2="blur-3"/>
      <feComposite in="SourceGraphic"/>
    </filter>
  </defs>
  <g id="패스_14101" data-name="패스 14101" opacity="0" fill="url(#linear-gradient)">
    <path d="M46,0H154a46,46,0,0,1,46,46V154a46,46,0,0,1-46,46H46A46,46,0,0,1,0,154V46A46,46,0,0,1,46,0Z" stroke="none"/>
    <path d="M 46 1 C 39.92460632324219 1 34.03144836425781 2.189651489257812 28.48426818847656 4.535919189453125 C 23.12580871582031 6.802337646484375 18.313232421875 10.04716491699219 14.18019104003906 14.18019104003906 C 10.04716491699219 18.313232421875 6.802337646484375 23.12580871582031 4.535919189453125 28.48426818847656 C 2.189651489257812 34.03144836425781 1 39.92460632324219 1 46 L 1 154 C 1 160.0753936767578 2.189651489257812 165.9685516357422 4.535919189453125 171.5157318115234 C 6.802337646484375 176.8741760253906 10.04716491699219 181.686767578125 14.18019104003906 185.8198089599609 C 18.313232421875 189.9528350830078 23.12580871582031 193.1976623535156 28.48426818847656 195.4640808105469 C 34.03144836425781 197.8103485107422 39.92460632324219 199 46 199 L 154 199 C 160.0753936767578 199 165.9685516357422 197.8103485107422 171.5157318115234 195.4640808105469 C 176.8741760253906 193.1976623535156 181.686767578125 189.9528350830078 185.8198089599609 185.8198089599609 C 189.9528350830078 181.686767578125 193.1976623535156 176.8741760253906 195.4640808105469 171.5157318115234 C 197.8103485107422 165.9685516357422 199 160.0753936767578 199 154 L 199 46 C 199 39.92460632324219 197.8103485107422 34.03144836425781 195.4640808105469 28.48426818847656 C 193.1976623535156 23.12580871582031 189.9528350830078 18.313232421875 185.8198089599609 14.18019104003906 C 181.686767578125 10.04716491699219 176.8741760253906 6.802337646484375 171.5157318115234 4.535919189453125 C 165.9685516357422 2.189651489257812 160.0753936767578 1 154 1 L 46 1 M 46 0 L 154 0 C 179.4051055908203 0 200 20.59489440917969 200 46 L 200 154 C 200 179.4051055908203 179.4051055908203 200 154 200 L 46 200 C 20.59489440917969 200 0 179.4051055908203 0 154 L 0 46 C 0 20.59489440917969 20.59489440917969 0 46 0 Z" stroke="none" fill="rgba(144,212,255,0.25)"/>
  </g>
  <g id="그룹_7413" data-name="그룹 7413" transform="translate(-1304 -657)">
    <g id="그룹_7410" data-name="그룹 7410">
      <g transform="matrix(1, 0, 0, 1, 1304, 657)" filter="url(#패스_13612)">
        <path id="패스_13612-2" data-name="패스 13612" d="M18,0H61.39a18,18,0,0,1,18,18V61.39a18,18,0,0,1-18,18H18a18,18,0,0,1-18-18V18A18,18,0,0,1,18,0Z" transform="translate(69.93 100.14) rotate(-45)" fill="url(#linear-gradient-2)"/>
      </g>
      <g transform="matrix(1, 0, 0, 1, 1304, 657)" filter="url(#사각형_4054)">
        <g id="사각형_4054-2" data-name="사각형 4054" transform="translate(26 50.25)" fill="#ffba00" stroke="rgba(255,255,255,0.2)" stroke-width="1">
          <rect width="100" height="100" rx="50" stroke="none"/>
          <rect x="0.5" y="0.5" width="99" height="99" rx="49.5" fill="none"/>
        </g>
      </g>
      <g transform="matrix(1, 0, 0, 1, 1304, 657)" filter="url(#빼기_37)">
        <g id="빼기_37-2" data-name="빼기 37" transform="translate(-2143.22 -74.16)" fill="url(#linear-gradient-3)">
          <path d="M2238.772,177.5h-34.786v-.011l-.51.008-.261,0a11.382,11.382,0,0,1-8.275-3.58,12.648,12.648,0,0,1,0-17.339,11.385,11.385,0,0,1,8.275-3.58,11.22,11.22,0,0,1,3.146.447l.4.115.188-.367a15.7,15.7,0,0,1,13.913-8.7,16.054,16.054,0,0,1,15.667,14.466l.063.538.532-.107a8.437,8.437,0,0,1,1.652-.163,9.143,9.143,0,0,1,0,18.266Zm-11.181-19.218v12.58h1.836v-12.58Zm-9.673,0v12.58h1.836V165.9h1.836a4.922,4.922,0,0,0,3.221-.98,3.958,3.958,0,0,0-.015-5.657,4.952,4.952,0,0,0-3.223-.98Zm-9.18,8.874h4.521l1.394,3.706h1.955l-4.776-12.58h-1.65l-4.776,12.58h1.938l1.394-3.706Zm3.893-1.683h-3.246l1.615-4.81h.034l1.6,4.809Zm8.942-1.257h-1.819v-4.251h1.8a3.027,3.027,0,0,1,1.9.546,1.912,1.912,0,0,1,.7,1.579C2224.156,163.442,2223.215,164.217,2221.573,164.217Z" stroke="none"/>
          <path d="M 2238.771728515625 176.5007019042969 C 2243.033447265625 176.5007019042969 2246.500732421875 172.8521728515625 2246.500732421875 168.3675079345703 C 2246.500732421875 163.8828430175781 2243.033447265625 160.2343139648438 2238.771728515625 160.2343139648438 C 2238.28173828125 160.2343139648438 2237.7919921875 160.2825775146484 2237.3173828125 160.3775329589844 L 2235.72119140625 160.6989135742188 L 2235.531982421875 159.0828857421875 C 2234.62158203125 151.3396148681641 2228.31298828125 145.5004119873047 2220.858154296875 145.5004119873047 C 2215.41259765625 145.5004119873047 2210.422119140625 148.6245880126953 2207.8349609375 153.6523742675781 L 2207.270263671875 154.7541809082031 L 2206.08056640625 154.4080963134766 C 2205.1552734375 154.1378936767578 2204.19091796875 154.0008850097656 2203.21435546875 154.0008850097656 C 2200.364501953125 154.0008850097656 2197.68212890625 155.1628875732422 2195.6611328125 157.2729034423828 C 2193.62255859375 159.4006042480469 2192.5 162.2335662841797 2192.5 165.2499084472656 C 2192.5 168.2674102783203 2193.62255859375 171.1009979248047 2195.6611328125 173.2288970947266 C 2197.681396484375 175.3387451171875 2200.364013671875 176.5007019042969 2203.21435546875 176.5007019042969 C 2203.294677734375 176.5007019042969 2203.375244140625 176.4998626708984 2203.459228515625 176.4981231689453 L 2204.98583984375 176.4735717773438 L 2204.98583984375 176.5007019042969 L 2238.771728515625 176.5007019042969 M 2226.591064453125 164.1548919677734 C 2226.3330078125 164.7487945556641 2225.95263671875 165.2634887695312 2225.457275390625 165.6828460693359 C 2224.517333984375 166.4789123535156 2223.179931640625 166.8997039794922 2221.58984375 166.8997039794922 L 2220.753662109375 166.8997039794922 L 2220.753662109375 171.8632049560547 L 2213.96142578125 171.8632049560547 L 2212.567138671875 168.1570129394531 L 2209.43017578125 168.1570129394531 L 2208.035888671875 171.8632049560547 L 2203.956787109375 171.8632049560547 L 2209.492431640625 157.2830047607422 L 2212.52197265625 157.2830047607422 L 2216.917724609375 168.8611907958984 L 2216.917724609375 157.2830047607422 L 2221.57275390625 157.2830047607422 C 2223.156005859375 157.2830047607422 2224.492919921875 157.7027893066406 2225.43896484375 158.4969482421875 C 2225.943359375 158.9202880859375 2226.329833984375 159.4396057128906 2226.591064453125 160.0384063720703 L 2226.591064453125 157.2830047607422 L 2230.427001953125 157.2830047607422 L 2230.427001953125 171.8632049560547 L 2226.591064453125 171.8632049560547 L 2226.591064453125 164.1548919677734 M 2211.244384765625 164.4739837646484 L 2211.0107421875 163.7700653076172 L 2210.7744140625 164.4739837646484 L 2211.244384765625 164.4739837646484 M 2221.57275390625 163.2167053222656 C 2223.156494140625 163.2167053222656 2223.156494140625 162.3988037109375 2223.156494140625 162.0908966064453 C 2223.156494140625 161.6138305664062 2222.983154296875 161.4143676757812 2222.832275390625 161.2940826416016 C 2222.56689453125 161.08251953125 2222.113525390625 160.9660034179688 2221.5556640625 160.9660034179688 L 2220.753662109375 160.9660034179688 L 2220.753662109375 163.2167053222656 L 2221.57275390625 163.2167053222656 M 2238.771728515625 177.5007019042969 L 2203.98583984375 177.5007019042969 L 2203.98583984375 177.4897918701172 L 2203.475341796875 177.4980010986328 C 2203.38916015625 177.4998016357422 2203.3017578125 177.5007019042969 2203.21435546875 177.5007019042969 C 2200.088623046875 177.5007019042969 2197.149658203125 176.2292327880859 2194.93896484375 173.9205017089844 C 2192.72119140625 171.6056060791016 2191.5 168.5263366699219 2191.5 165.2499084472656 C 2191.5 161.9746551513672 2192.72119140625 158.8960113525391 2194.93896484375 156.5811004638672 C 2197.150390625 154.2723693847656 2200.08935546875 153.0008850097656 2203.21435546875 153.0008850097656 C 2204.28564453125 153.0008850097656 2205.344482421875 153.1513824462891 2206.36083984375 153.4481964111328 L 2206.7568359375 153.5634002685547 L 2206.945068359375 153.1961975097656 C 2209.705078125 147.8324432373047 2215.0361328125 144.5004119873047 2220.858154296875 144.5004119873047 C 2228.820068359375 144.5004119873047 2235.555419921875 150.7193145751953 2236.525146484375 158.9661102294922 L 2236.588134765625 159.5043029785156 L 2237.1201171875 159.3972015380859 C 2237.660400390625 159.2891082763672 2238.216064453125 159.2343139648438 2238.771728515625 159.2343139648438 C 2243.5849609375 159.2343139648438 2247.500732421875 163.3314514160156 2247.500732421875 168.3675079345703 C 2247.500732421875 173.403564453125 2243.5849609375 177.5007019042969 2238.771728515625 177.5007019042969 Z M 2227.591064453125 158.2830047607422 L 2227.591064453125 170.8632049560547 L 2229.427001953125 170.8632049560547 L 2229.427001953125 158.2830047607422 L 2227.591064453125 158.2830047607422 Z M 2217.917724609375 158.2830047607422 L 2217.917724609375 170.8632049560547 L 2219.753662109375 170.8632049560547 L 2219.753662109375 165.8997039794922 L 2221.58984375 165.8997039794922 C 2222.940185546875 165.8997039794922 2224.053955078125 165.5608367919922 2224.81103515625 164.9197235107422 C 2225.59521484375 164.2559051513672 2225.99267578125 163.3041534423828 2225.99267578125 162.0908966064453 C 2225.99267578125 160.8977966308594 2225.578857421875 159.9198913574219 2224.796142578125 159.2628936767578 C 2224.032470703125 158.6218566894531 2222.917724609375 158.2830047607422 2221.57275390625 158.2830047607422 L 2217.917724609375 158.2830047607422 Z M 2216.608154296875 170.8632049560547 L 2211.83203125 158.2830047607422 L 2210.182373046875 158.2830047607422 L 2205.406005859375 170.8632049560547 L 2207.34375 170.8632049560547 L 2208.738525390625 167.1570129394531 L 2213.25927734375 167.1570129394531 L 2214.653564453125 170.8632049560547 L 2216.608154296875 170.8632049560547 Z M 2212.63037109375 165.4739837646484 L 2209.384033203125 165.4739837646484 L 2210.99853515625 160.6634979248047 L 2211.03271484375 160.6635131835938 L 2212.63037109375 165.4739837646484 Z M 2221.57275390625 164.2167053222656 L 2219.753662109375 164.2167053222656 L 2219.753662109375 159.9660034179688 L 2221.5556640625 159.9660034179688 C 2222.350341796875 159.9660034179688 2223.00732421875 160.1548309326172 2223.45556640625 160.5120849609375 C 2223.920654296875 160.8830108642578 2224.156494140625 161.4142150878906 2224.156494140625 162.0908966064453 C 2224.156494140625 163.4418792724609 2223.21484375 164.2167053222656 2221.57275390625 164.2167053222656 Z" stroke="none" fill="rgba(255,255,255,0.25)"/>
        </g>
      </g>
      <path id="패스_14060" data-name="패스 14060" d="M-821.011,636.341v8.413h-10v9.068" transform="translate(2185.728 124)" fill="none" stroke="#fff" stroke-width="2"/>
      <path id="패스_14072" data-name="패스 14072" d="M-831.011,636.341v8.413h10v9.068" transform="translate(2225.307 124)" fill="none" stroke="#fff" stroke-width="2"/>
      <path id="패스_14070" data-name="패스 14070" d="M-823.523,632.3v12.457h-5.488v12.767" transform="translate(2195.818 128)" fill="none" stroke="#fff" stroke-width="2"/>
      <path id="패스_14073" data-name="패스 14073" d="M-829.011,632.3v12.457h5.488v12.767" transform="translate(2215.728 128)" fill="none" stroke="#fff" stroke-width="2"/>
      <circle id="타원_565" data-name="타원 565" cx="3" cy="3" r="3" transform="translate(1351.717 775)" fill="#fff"/>
      <circle id="타원_568" data-name="타원 568" cx="3" cy="3" r="3" transform="translate(1401.295 775)" fill="#fff"/>
      <circle id="타원_566" data-name="타원 566" cx="3" cy="3" r="3" transform="translate(1363.717 782)" fill="#fff"/>
      <circle id="타원_569" data-name="타원 569" cx="3" cy="3" r="3" transform="translate(1389.295 782)" fill="#fff"/>
      <circle id="타원_567" data-name="타원 567" cx="3" cy="3" r="3" transform="translate(1376.717 785)" fill="#fff"/>
      <path id="패스_14071" data-name="패스 14071" d="M-810.388,636.3v26.05" transform="translate(2190.105 124)" fill="none" stroke="#fff" stroke-width="2"/>
    </g>
  </g>
</svg>
