<svg id="구성_요소_79_1" data-name="구성 요소 79 – 1" xmlns="http://www.w3.org/2000/svg" xmlns:xlink="http://www.w3.org/1999/xlink" width="211.501" height="200" viewBox="0 0 211.501 200">
  <defs>
    <linearGradient id="linear-gradient" x1="0.035" x2="0.969" y2="0.971" gradientUnits="objectBoundingBox">
      <stop offset="0" stop-color="#3d73b4"/>
      <stop offset="1" stop-color="#010339"/>
    </linearGradient>
    <linearGradient id="linear-gradient-2" x1="0.5" x2="0.5" y2="1" gradientUnits="objectBoundingBox">
      <stop offset="0" stop-color="#48ffff"/>
      <stop offset="1" stop-color="#0091bc"/>
    </linearGradient>
    <filter id="합치기_23" x="66.5" y="36.282" width="145.001" height="150.247" filterUnits="userSpaceOnUse">
      <feOffset dx="10" dy="10" input="SourceAlpha"/>
      <feGaussianBlur stdDeviation="10" result="blur"/>
      <feFlood flood-opacity="0.251"/>
      <feComposite operator="in" in2="blur"/>
      <feComposite in="SourceGraphic"/>
    </filter>
    <filter id="사각형_4740" x="9" y="30" width="160" height="160" filterUnits="userSpaceOnUse">
      <feOffset dx="10" dy="10" input="SourceAlpha"/>
      <feGaussianBlur stdDeviation="10" result="blur-2"/>
      <feFlood/>
      <feComposite operator="in" in2="blur-2"/>
      <feComposite in="SourceGraphic"/>
    </filter>
    <linearGradient id="linear-gradient-3" x1="0.5" x2="0.5" y2="1" gradientUnits="objectBoundingBox">
      <stop offset="0" stop-color="#fff"/>
      <stop offset="1" stop-color="#b5ddff"/>
    </linearGradient>
  </defs>
  <g id="패스_14100" data-name="패스 14100" opacity="0" fill="url(#linear-gradient)">
    <path d="M46,0H154a46,46,0,0,1,46,46V154a46,46,0,0,1-46,46H46A46,46,0,0,1,0,154V46A46,46,0,0,1,46,0Z" stroke="none"/>
    <path d="M 46 1 C 39.92460632324219 1 34.03144836425781 2.189651489257812 28.48426818847656 4.535919189453125 C 23.12580871582031 6.802337646484375 18.313232421875 10.04716491699219 14.18019104003906 14.18019104003906 C 10.04716491699219 18.313232421875 6.802337646484375 23.12580871582031 4.535919189453125 28.48426818847656 C 2.189651489257812 34.03144836425781 1 39.92460632324219 1 46 L 1 154 C 1 160.0753936767578 2.189651489257812 165.9685516357422 4.535919189453125 171.5157318115234 C 6.802337646484375 176.8741760253906 10.04716491699219 181.686767578125 14.18019104003906 185.8198089599609 C 18.313232421875 189.9528350830078 23.12580871582031 193.1976623535156 28.48426818847656 195.4640808105469 C 34.03144836425781 197.8103485107422 39.92460632324219 199 46 199 L 154 199 C 160.0753936767578 199 165.9685516357422 197.8103485107422 171.5157318115234 195.4640808105469 C 176.8741760253906 193.1976623535156 181.686767578125 189.9528350830078 185.8198089599609 185.8198089599609 C 189.9528350830078 181.686767578125 193.1976623535156 176.8741760253906 195.4640808105469 171.5157318115234 C 197.8103485107422 165.9685516357422 199 160.0753936767578 199 154 L 199 46 C 199 39.92460632324219 197.8103485107422 34.03144836425781 195.4640808105469 28.48426818847656 C 193.1976623535156 23.12580871582031 189.9528350830078 18.313232421875 185.8198089599609 14.18019104003906 C 181.686767578125 10.04716491699219 176.8741760253906 6.802337646484375 171.5157318115234 4.535919189453125 C 165.9685516357422 2.189651489257812 160.0753936767578 1 154 1 L 46 1 M 46 0 L 154 0 C 179.4051055908203 0 200 20.59489440917969 200 46 L 200 154 C 200 179.4051055908203 179.4051055908203 200 154 200 L 46 200 C 20.59489440917969 200 0 179.4051055908203 0 154 L 0 46 C 0 20.59489440917969 20.59489440917969 0 46 0 Z" stroke="none" fill="rgba(144,212,255,0.25)"/>
  </g>
  <g id="그룹_7412" data-name="그룹 7412" transform="translate(-714.962 -656.479)">
    <g id="그룹_7401" data-name="그룹 7401" transform="translate(2.962 -121.521)">
      <g transform="matrix(1, 0, 0, 1, 712, 778)" filter="url(#합치기_23)">
        <path id="합치기_23-2" data-name="합치기 23" d="M-2590.621-6821.632l-4.367-4.367H-2610a21,21,0,0,1-21-21v-43a21,21,0,0,1,21-21h43a21,21,0,0,1,21,21v43a21,21,0,0,1-21,21h-15.012l-4.367,4.367a2.993,2.993,0,0,1-2.122.878A2.989,2.989,0,0,1-2590.621-6821.632Z" transform="translate(2717.5 6967.28)" fill="url(#linear-gradient-2)"/>
      </g>
      <g transform="matrix(1, 0, 0, 1, 712, 778)" filter="url(#사각형_4740)">
        <g id="사각형_4740-2" data-name="사각형 4740" transform="translate(29 50)" fill="#40f3f7" stroke="rgba(255,255,255,0.1)" stroke-width="1">
          <rect width="100" height="100" rx="50" stroke="none"/>
          <rect x="0.5" y="0.5" width="99" height="99" rx="49.5" fill="none"/>
        </g>
      </g>
      <path id="패스_14082" data-name="패스 14082" d="M-6.536,0l-9.728-14.82,8.588-13.3H-15.77L-20.444-20.1-25.27-28.12H-33.4l8.7,13.148L-34.542,0h8.018l5.776-9.956L-14.668,0Zm29.88,0L12.172-28.12H6.51L-4.776,0H2.938L4.42-4.066h9.766L15.554,0ZM12.286-9.766H6.4L9.284-19.38l.114.038ZM32.414,0V-28.12H25.232V0Z" transform="translate(791 892)" stroke="rgba(255,255,255,0.5)" stroke-width="1" fill="url(#linear-gradient-3)"/>
    </g>
  </g>
</svg>
