<svg xmlns="http://www.w3.org/2000/svg" xmlns:xlink="http://www.w3.org/1999/xlink" width="194.428" height="25" viewBox="0 0 194.428 25">
  <defs>
    <clipPath id="clip-path">
      <rect id="사각형_4380" data-name="사각형 4380" width="62.5" height="25" transform="translate(0 0)" fill="#fff"/>
    </clipPath>
  </defs>
  <g id="ineeji" transform="translate(-4.626 -114)">
    <g id="그룹_7208" data-name="그룹 7208" transform="translate(4.626 114)">
      <g id="그룹_7205" data-name="그룹 7205" transform="translate(0 0)" clip-path="url(#clip-path)">
        <path id="패스_13880" data-name="패스 13880" d="M12.5,0A12.5,12.5,0,1,0,25,12.5,12.5,12.5,0,0,0,12.5,0" transform="translate(0 0)" fill="#fff"/>
        <path id="패스_13881" data-name="패스 13881" d="M121.35,12.5A12.492,12.492,0,0,1,127.6,1.676,12.5,12.5,0,1,0,121.35,25a12.437,12.437,0,0,0,6.25-1.676A12.492,12.492,0,0,1,121.35,12.5" transform="translate(-83.85 0)" fill="#fff"/>
        <path id="패스_13882" data-name="패스 13882" d="M196.738,0a12.437,12.437,0,0,0-6.25,1.676,12.5,12.5,0,0,1,0,21.647A12.5,12.5,0,1,0,196.738,0" transform="translate(-146.738 0)" fill="#fff"/>
      </g>
    </g>
    <path id="패스_14195" data-name="패스 14195" d="M15.591-41.782A7.22,7.22,0,0,0,11.066-43.3a7.788,7.788,0,0,0-8.016,7.97,7.745,7.745,0,0,0,7.924,7.878,7.977,7.977,0,0,0,4.617-1.493v-2.113a6.968,6.968,0,0,1-1.769,1.286,6.369,6.369,0,0,1-2.848.712A6.131,6.131,0,0,1,4.8-35.3a6.18,6.18,0,0,1,6.156-6.385,6.526,6.526,0,0,1,2.641.6,7.551,7.551,0,0,1,2,1.424Zm2.71-2.687v16.744h1.654V-44.469Zm9.233,17.02a4.889,4.889,0,0,0,5.053-5.007,4.894,4.894,0,0,0-5.053-5.03,4.894,4.894,0,0,0-5.053,5.03A4.889,4.889,0,0,0,27.535-27.449Zm0-8.567a3.3,3.3,0,0,1,3.353,3.56,3.3,3.3,0,0,1-3.353,3.537,3.3,3.3,0,0,1-3.353-3.537A3.312,3.312,0,0,1,27.535-36.016Zm9.233-1.24H35.115v5.742a3.789,3.789,0,0,0,.873,2.871A3.983,3.983,0,0,0,38.9-27.449a3.983,3.983,0,0,0,2.917-1.194,3.789,3.789,0,0,0,.873-2.871v-5.742H41.04V-31.7a3.245,3.245,0,0,1-.459,2.044,2.024,2.024,0,0,1-1.677.735,2.024,2.024,0,0,1-1.677-.735,3.245,3.245,0,0,1-.459-2.044ZM53.122-35.9a3.944,3.944,0,0,0-3.262-1.585c-2.435,0-4.64,1.7-4.64,4.984,0,3.353,2.228,5.053,4.64,5.053a4.021,4.021,0,0,0,3.262-1.608v1.332h1.654V-44.469H53.122Zm-3.078-.115a3.229,3.229,0,0,1,3.17,3.537c0,1.883-1.148,3.56-3.17,3.56-1.975,0-3.124-1.539-3.124-3.583C46.921-34.822,48.413-36.016,50.044-36.016Zm23.819,8.292h3.216L70.67-43.045H68.327l-6.592,15.32h3.239l1.355-3.216h6.179Zm-6.592-5.65,2.182-5.513,2.182,5.513Zm11.6-9.67v15.32h2.986v-15.32Zm20.327,0H90.7v15.32h8.5V-30.3H93.685v-4.18h5.283V-37.05H93.685v-3.422H99.2Zm11.393,0h-8.5v15.32h8.5V-30.3h-5.513v-4.18h5.283V-37.05h-5.283v-3.422h5.513Zm5.375,0v9.877a4.991,4.991,0,0,1-.345,2.481,1.321,1.321,0,0,1-1.171.528,1.771,1.771,0,0,1-1.493-.827L111.141-28.8a5.05,5.05,0,0,0,3.514,1.424,4.693,4.693,0,0,0,2.5-.689c1.7-1.148,1.792-3.285,1.792-4.64V-43.045Zm6.477,0v15.32h2.986v-15.32Z" transform="translate(73.626 162.425)" fill="#fff"/>
  </g>
</svg>
